<svg xmlns="http://www.w3.org/2000/svg" width="400" zoomAndPan="magnify" viewBox="0 0 300 52.5" height="70" preserveAspectRatio="xMidYMid meet" xmlns:v="https://vecta.io/nano"><defs><clipPath id="A"><path d="M280 16h14.48v20H280zm0 0" clip-rule="nonzero"/></clipPath><clipPath id="B"><path d="M213 16h5v27.848h-5zm0 0" clip-rule="nonzero"/></clipPath></defs><g fill="#0d478f"><path d="M155.504 35.695c-1.602 0-2.969-.309-4.117-.926-1.141-.625-2.012-1.527-2.602-2.711-.598-1.187-.898-2.617-.898-4.285v-2.965c0-1.652.301-3.062.898-4.238.59-1.172 1.461-2.07 2.602-2.68 1.148-.617 2.516-.922 4.117-.922s2.969.305 4.113.922c1.145.609 2.012 1.508 2.609 2.68s.891 2.586.891 4.238v3.016c0 1.66-.297 3.078-.891 4.25a6.21 6.21 0 0 1-2.609 2.695c-1.145.617-2.516.926-4.113.926zm0-3.824c1.145 0 2.035-.352 2.672-1.059s.949-1.707.949-2.988v-3.016c0-1.273-.316-2.262-.949-2.969-.637-.699-1.527-1.047-2.672-1.047-1.156 0-2.047.348-2.676 1.047-.633.707-.949 1.695-.949 2.969v3.016c0 1.281.316 2.281.949 2.988s1.52 1.059 2.676 1.059zm-9.941-10.058c-.293-.344-.66-.594-1.09-.766s-.926-.254-1.488-.254c-1.074 0-1.902.313-2.504.934-.59.629-.887 1.496-.887 2.609l-.371-3.934c.551-1.082 1.246-1.926 2.102-2.527a4.78 4.78 0 0 1 2.832-.906c.809 0 1.535.121 2.18.359a4.92 4.92 0 0 1 1.711 1.059zm0 0"/><path d="M135.477 17.23h4.117v14.938c-.07 1.77-1.551 3.211-3.328 3.211h-.789zm-11.082 0h8.438v.391c-.07 1.496-1.16 2.754-2.574 3.09v.047h-5.863zm0 0"/><path d="M130.648 35.523c-1.508 0-2.613-.406-3.32-1.223s-1.062-2.012-1.062-3.602v-18.76h3.992v18.379c0 .441.09.785.262 1.023.18.238.438.359.773.359h1.539v3.824zm-14.828.172c-1.074 0-2.098-.102-3.066-.305a12.33 12.33 0 0 1-2.723-.914c-.844-.402-1.613-.906-2.301-1.496l2.422-3c.941.688 1.891 1.207 2.859 1.563.961.348 1.895.52 2.809.52 1.316 0 2.313-.184 2.992-.555.676-.379 1.02-.93 1.02-1.652 0-.527-.176-.918-.523-1.18-.34-.262-.777-.449-1.297-.543-.516-.102-1.246-.187-2.191-.258l-.426-.039-.418-.027-.137-.031c-.047-.004-.094-.004-.145-.004-1.246-.121-2.281-.305-3.094-.559s-1.5-.73-2.051-1.437-.82-1.715-.82-3.039c0-1.262.273-2.32.82-3.184.551-.855 1.352-1.504 2.418-1.941 1.063-.43 2.375-.645 3.938-.645a13.58 13.58 0 0 1 2.723.27 13.8 13.8 0 0 1 2.52.789 12.71 12.71 0 0 1 2.285 1.293l-2.398 2.91a12.04 12.04 0 0 0-2.609-1.211c-.871-.281-1.727-.422-2.551-.422-1.137 0-1.988.18-2.574.523a1.7 1.7 0 0 0-.879 1.547 1.1 1.1 0 0 0 .488.961c.328.223.734.379 1.227.457l2.121.23c.082.016.16.02.242.02l.266.012c.035.012.078.02.117.02a.39.39 0 0 1 .125.016c1.324.109 2.426.289 3.316.547.898.258 1.652.77 2.262 1.531s.918 1.879.918 3.348c0 1.281-.285 2.363-.867 3.242s-1.434 1.531-2.574 1.98c-1.133.441-2.551.664-4.242.664zm-18.152 0c-2.145 0-3.746-.465-4.805-1.395s-1.582-2.34-1.582-4.23c0-1.801.52-3.152 1.559-4.051 1.035-.906 2.598-1.355 4.691-1.355h4.953l.242 3.16h-5.18c-.863 0-1.512.18-1.934.551s-.641.938-.641 1.695c0 .801.281 1.402.84 1.797.559.387 1.406.586 2.535.586 1.344 0 2.344-.145 2.992-.437.66-.293.98-.746.98-1.371l.371 2.598c-.234.539-.59.988-1.074 1.359-.484.363-1.062.641-1.746.824a8.54 8.54 0 0 1-2.203.27zm0 0"/><path d="M102.32 23.895c0-1.07-.305-1.902-.914-2.492-.613-.578-1.473-.871-2.586-.871-.711 0-1.402.105-2.09.328s-1.293.531-1.832.934l-2.727-2.195c.699-.828 1.625-1.473 2.777-1.934s2.418-.695 3.824-.695c1.527 0 2.836.262 3.926.797s1.922 1.305 2.496 2.316.855 2.23.855 3.656v8.035h-.004v.23a3.36 3.36 0 0 1-3.332 3.336h-.395zM80.547 35.734c-1.312 0-2.441-.301-3.375-.887-.934-.594-1.645-1.457-2.129-2.586-.484-1.141-.727-2.496-.727-4.09v-3.645c0-1.602.238-2.973.715-4.109.484-1.145 1.18-2.008 2.098-2.598s2.016-.887 3.297-.887c1.043 0 1.984.285 2.848.848.852.57 1.551 1.367 2.09 2.395l-.371 3.844c0-.723-.125-1.34-.383-1.848a2.64 2.64 0 0 0-1.117-1.164c-.496-.262-1.082-.395-1.766-.395-1.09 0-1.934.348-2.523 1.035-.598.691-.895 1.672-.895 2.934v3.59c0 1.242.297 2.199.895 2.867.59.672 1.434 1.012 2.523 1.012.684 0 1.27-.137 1.766-.406a2.66 2.66 0 0 0 1.117-1.172c.258-.516.383-1.133.383-1.844l.246 3.941a5.03 5.03 0 0 1-1.762 2.281c-.809.586-1.781.883-2.93.883zm0 0"/><path d="M84.992 11.848h3.992v20.297a3.36 3.36 0 0 1-3.328 3.203h-.664zM63.289 35.695c-2.145 0-3.746-.465-4.805-1.395s-1.582-2.34-1.582-4.23c0-1.801.52-3.152 1.559-4.051 1.035-.906 2.602-1.355 4.691-1.355h4.953l.246 3.16h-5.18c-.867 0-1.512.18-1.937.551s-.641.938-.641 1.695c0 .801.281 1.402.844 1.797.555.387 1.406.586 2.531.586 1.348 0 2.344-.145 2.996-.437s.98-.746.98-1.371l.371 2.598c-.234.539-.594.988-1.078 1.359-.48.363-1.062.641-1.742.824s-1.41.27-2.207.27zm0 0"/><path d="M67.945 23.895c0-1.07-.305-1.902-.914-2.492-.617-.578-1.477-.871-2.59-.871a6.73 6.73 0 0 0-2.09.328c-.68.227-1.289.531-1.828.934l-2.73-2.195c.699-.828 1.625-1.473 2.777-1.934s2.422-.695 3.824-.695c1.531 0 2.84.262 3.926.797 1.094.531 1.926 1.305 2.5 2.316s.852 2.23.852 3.656v8.137h-.016v.23a3.36 3.36 0 0 1-3.078 3.328h-.633zm-18.554 11.8c-1.68 0-3.117-.316-4.312-.945a6.35 6.35 0 0 1-2.73-2.766c-.625-1.207-.941-2.664-.941-4.375v-2.645c0-1.68.316-3.125.941-4.32a6.28 6.28 0 0 1 2.73-2.734c1.195-.629 2.633-.941 4.313-.941a10.31 10.31 0 0 1 2.711.344c.855.227 1.621.555 2.297.992.672.43 1.242.957 1.695 1.574l-2.746 2.563a5.14 5.14 0 0 0-1.723-1.223 5.21 5.21 0 0 0-2.055-.426c-1.32 0-2.348.367-3.078 1.098s-1.094 1.75-1.094 3.074v2.645c0 1.359.363 2.406 1.09 3.148s1.75 1.113 3.082 1.113a4.91 4.91 0 0 0 2.074-.461 5.04 5.04 0 0 0 1.703-1.309l2.746 2.734c-.465.609-1.031 1.125-1.715 1.555-.676.426-1.434.75-2.281.969a10.64 10.64 0 0 1-2.707.336zm0 0"/></g><path fill="#72b4cc" d="M285.781 35.727c-2.227 0-3.891-.484-4.988-1.449s-1.645-2.434-1.645-4.402c0-1.871.543-3.277 1.621-4.215s2.699-1.406 4.867-1.406h5.141l.258 3.289h-5.379c-.898 0-1.57.184-2.008.57-.441.379-.664.973-.664 1.762 0 .836.289 1.457.875 1.867.574.406 1.457.613 2.629.613 1.395 0 2.43-.152 3.105-.457.684-.305 1.02-.777 1.02-1.426l.383 2.703c-.242.559-.613 1.023-1.117 1.41s-1.102.668-1.809.859-1.465.281-2.289.281zm0 0"/><g clip-path="url(#A)"><path fill="#72b4cc" d="M290.613 23.453c0-1.117-.316-1.98-.949-2.59-.641-.605-1.531-.91-2.687-.91a6.97 6.97 0 0 0-2.168.344c-.711.238-1.34.555-1.898.973l-2.836-2.285c.727-.859 1.688-1.531 2.887-2.012 1.188-.477 2.508-.723 3.969-.723 1.586 0 2.945.277 4.074.828s1.996 1.359 2.59 2.41.891 2.32.891 3.801v8.723c-.02 1.887-1.578 3.441-3.461 3.441h-.41zm0 0"/></g><g fill="#72b4cc"><path d="M269.703 35.727c-1.117 0-2.176-.105-3.18-.316-1.004-.219-1.949-.531-2.828-.953s-1.676-.941-2.391-1.555l2.516-3.121c.977.719 1.965 1.258 2.969 1.625 1 .359 1.965.543 2.914.543 1.363 0 2.402-.195 3.109-.578.699-.395 1.055-.965 1.055-1.719 0-.547-.18-.953-.543-1.227-.352-.273-.805-.465-1.344-.566s-1.297-.195-2.277-.27l-.437-.035-.437-.031-.141-.031c-.051-.008-.102-.008-.148-.008-1.297-.125-2.371-.316-3.215-.578s-1.555-.758-2.125-1.492-.855-1.789-.855-3.164c0-1.312.285-2.414.855-3.309s1.398-1.562 2.504-2.02c1.105-.445 2.469-.672 4.086-.672a14.03 14.03 0 0 1 2.828.281 13.79 13.79 0 0 1 2.617.82 13.07 13.07 0 0 1 2.371 1.344l-2.488 3.027c-.898-.547-1.797-.965-2.711-1.258a8.59 8.59 0 0 0-2.648-.441c-1.176 0-2.062.188-2.672.547a1.76 1.76 0 0 0-.91 1.605c0 .438.172.773.508 1.004s.762.391 1.27.473c.516.086 1.25.168 2.203.242a1.85 1.85 0 0 0 .254.02l.273.012a.44.44 0 0 0 .125.02c.051 0 .094.004.129.016 1.371.113 2.52.301 3.441.57.934.266 1.711.801 2.344 1.59.641.797.957 1.957.957 3.48 0 1.332-.297 2.461-.898 3.375-.602.906-1.488 1.594-2.676 2.059-1.176.461-2.648.691-4.402.691zm-16.863 0c-1.77 0-3.281-.328-4.535-.984a6.63 6.63 0 0 1-2.871-2.895c-.656-1.27-.992-2.801-.992-4.598v-2.137c0-1.871.316-3.473.949-4.797.625-1.328 1.551-2.336 2.762-3.027s2.664-1.039 4.359-1.039c1.598 0 2.969.398 4.105 1.203s2.004 1.965 2.598 3.492.895 3.355.895 5.48v1.238h-12.797v-3.117h8.906l-.02-.141c-.109-1.391-.484-2.465-1.129-3.23-.637-.766-1.492-1.152-2.559-1.152-1.336 0-2.363.43-3.098 1.281s-1.102 2.055-1.102 3.609v2.402c0 1.477.395 2.602 1.184 3.395s1.898 1.188 3.344 1.188c.727 0 1.445-.145 2.152-.422s1.34-.672 1.898-1.184l2.727 2.609c-.949.895-2.016 1.594-3.199 2.082s-2.383.742-3.578.742zm-10.813-14.442a2.96 2.96 0 0 0-1.129-.797c-.445-.172-.961-.262-1.543-.262-1.117 0-1.98.324-2.602.973-.613.652-.922 1.555-.922 2.715l-.383-4.09c.57-1.129 1.293-2.004 2.184-2.633a4.94 4.94 0 0 1 2.938-.941c.836 0 1.594.125 2.262.375.676.25 1.266.617 1.777 1.102zm0 0"/><path d="M231.559 16.527h4.273v15.215h-.004v.238c0 1.902-1.562 3.473-3.457 3.473h-.812zm-9.399 19.2c-1.133 0-2.125-.281-2.977-.848s-1.477-1.367-1.891-2.402l.254-4.082c0 .742.137 1.375.402 1.906a2.78 2.78 0 0 0 1.16 1.211c.508.281 1.125.426 1.836.426 1.129 0 1.996-.355 2.617-1.059.621-.711.926-1.699.926-2.977v-3.734c0-1.301-.305-2.316-.926-3.039s-1.488-1.086-2.617-1.086c-.711 0-1.328.137-1.836.41a2.73 2.73 0 0 0-1.16 1.207c-.266.531-.402 1.156-.402 1.887l-.379-3.828c.559-1.109 1.277-1.961 2.16-2.566a5.12 5.12 0 0 1 2.965-.902c1.332 0 2.473.305 3.422.922s1.676 1.512 2.172 2.703c.496 1.18.742 2.605.742 4.273v3.754c0 1.645-.246 3.051-.75 4.219-.504 1.18-1.238 2.066-2.219 2.684s-2.141.922-3.5.922zm0 0"/></g><g clip-path="url(#B)"><path fill="#72b4cc" d="M213.406 16.527h4.141v23.41a3.49 3.49 0 0 1-3.445 3.172h-.695zm0 0"/></g><g fill="#72b4cc"><path d="M194.797 24.168c0-1.258-.309-2.223-.926-2.914-.617-.684-1.492-1.027-2.617-1.027-1.117 0-1.977.301-2.578.902-.609.602-.91 1.445-.91 2.523l-.379-3.828c.574-1.152 1.32-2.035 2.227-2.652.898-.617 1.914-.922 3.039-.922 1.332 0 2.465.305 3.41.922.938.617 1.648 1.512 2.141 2.703.488 1.18.738 2.605.738 4.273v11.305h-4.145zm0 0"/><path d="M183.621 16.527h4.145v18.926h-4.145zm22.352 7.641c0-1.258-.324-2.223-.957-2.914-.637-.684-1.531-1.027-2.676-1.027-1.082 0-1.918.332-2.508.992s-.891 1.598-.891 2.801l-.801-3.883c.594-1.238 1.371-2.199 2.336-2.871a5.42 5.42 0 0 1 3.207-1.016c1.352 0 2.512.305 3.48.922.961.617 1.691 1.512 2.195 2.703.5 1.18.754 2.605.754 4.273v7.738a3.49 3.49 0 0 1-3.457 3.473h-.684zm-32.364 11.559c-1.766 0-3.281-.328-4.531-.984a6.66 6.66 0 0 1-2.875-2.895c-.656-1.27-.992-2.801-.992-4.598v-2.137c0-1.871.316-3.473.949-4.797s1.551-2.336 2.762-3.027 2.664-1.039 4.359-1.039c1.598 0 2.969.398 4.105 1.203s2.004 1.965 2.598 3.492.895 3.355.895 5.48v1.238h-12.797v-3.117h8.906l-.016-.141c-.113-1.391-.484-2.465-1.129-3.23s-1.496-1.152-2.562-1.152c-1.332 0-2.363.43-3.094 1.281-.738.848-1.105 2.055-1.105 3.609v2.402c0 1.477.398 2.602 1.184 3.395s1.898 1.188 3.344 1.188c.727 0 1.445-.145 2.152-.422s1.34-.672 1.898-1.184l2.73 2.609c-.953.895-2.02 1.594-3.203 2.082s-2.383.742-3.578.742zm0 0"/><path d="M8.023 25.023c2.445-6.664 12.805-11.516 18.531-13.168 4.613-1.324 3.508-8.164-1.539-7.371-5.094.793-23.473 13.242-16.992 20.539 1.625 3.414 6.414 4.523 9.484 5.316 1.859.488 1.902 3.195.086 4.043-3.266 1.535-12.105-3.445-9.57-9.359zm0 0" fill-rule="evenodd"/></g><path fill="#244a7b" d="M32.031 26.895c-1.629-3.414-6.414-4.523-9.484-5.316-1.859-.492-1.902-3.199-.09-4.047 3.27-1.531 12.109 3.449 9.574 9.363-2.449 6.664-12.809 11.512-18.535 13.164-4.609 1.328-3.508 8.164 1.543 7.371 5.09-.805 23.473-13.242 16.992-20.535zm0 0" fill-rule="evenodd"/></svg>