<?xml version="1.0" encoding="utf-8"?>
<!-- Generator: Adobe Illustrator 24.0.1, SVG Export Plug-In . SVG Version: 6.00 Build 0)  -->
<svg version="1.1" id="Camada_1" xmlns="http://www.w3.org/2000/svg" xmlns:xlink="http://www.w3.org/1999/xlink" x="0px" y="0px"
	 viewBox="0 0 1080 1081" style="enable-background:new 0 0 1080 1081;" xml:space="preserve">
<style type="text/css">
	.st0{clip-path:url(#SVGID_2_);fill:#E2EDEF;}
	.st1{clip-path:url(#SVGID_2_);fill:#C6E2E9;}
	.st2{clip-path:url(#SVGID_2_);fill:#D5F1F8;}
	.st3{clip-path:url(#SVGID_2_);fill:#C7E2E9;}
	.st4{clip-path:url(#SVGID_2_);fill:#D6F1F8;}
	.st5{clip-path:url(#SVGID_2_);fill:#FDFEFE;}
	.st6{clip-path:url(#SVGID_2_);fill:#C8E3EA;}
	.st7{clip-path:url(#SVGID_2_);fill:#FEFEFE;}
	.st8{clip-path:url(#SVGID_2_);fill:#E4EEF0;}
	.st9{clip-path:url(#SVGID_2_);fill:#CFE6EC;}
	.st10{clip-path:url(#SVGID_2_);fill:#E5EFF1;}
	.st11{clip-path:url(#SVGID_2_);fill:#CCE5EB;}
	.st12{clip-path:url(#SVGID_2_);fill:#D7EAEF;}
	.st13{clip-path:url(#SVGID_2_);fill:#D6EAEF;}
	.st14{clip-path:url(#SVGID_2_);fill:#E2F5FA;}
	.st15{clip-path:url(#SVGID_2_);fill:#E1F5FA;}
	.st16{clip-path:url(#SVGID_2_);fill:#DFF4FA;}
	.st17{clip-path:url(#SVGID_2_);fill:#DEF4F9;}
	.st18{clip-path:url(#SVGID_2_);fill:#E0F4FA;}
	.st19{clip-path:url(#SVGID_2_);fill:#E5F7FB;}
	.st20{clip-path:url(#SVGID_2_);fill:#F2FCFD;}
	.st21{clip-path:url(#SVGID_2_);fill:#F3FCFE;}
	.st22{clip-path:url(#SVGID_2_);fill:#E0F5FA;}
	.st23{clip-path:url(#SVGID_2_);fill:#D8EBF0;}
	.st24{clip-path:url(#SVGID_2_);fill:#D5E9EE;}
	.st25{clip-path:url(#SVGID_2_);fill:#DEF4FA;}
	.st26{clip-path:url(#SVGID_2_);fill:#F3FCFD;}
	.st27{clip-path:url(#SVGID_2_);fill:#3EAFF8;}
	.st28{clip-path:url(#SVGID_2_);fill:#E7F3F6;}
	.st29{clip-path:url(#SVGID_2_);fill:#DFF5FA;}
	.st30{clip-path:url(#SVGID_2_);fill:#DDF4F9;}
	.st31{clip-path:url(#SVGID_2_);fill:#D1E7ED;}
	.st32{clip-path:url(#SVGID_2_);fill:#D0E7ED;}
	.st33{clip-path:url(#SVGID_2_);fill:#EFFCFE;}
	.st34{clip-path:url(#SVGID_2_);fill:#DCEFF4;}
	.st35{clip-path:url(#SVGID_2_);fill:#E5F3F6;}
	.st36{clip-path:url(#SVGID_2_);fill:#DEF0F4;}
	.st37{clip-path:url(#SVGID_2_);fill:#EBFBFE;}
	.st38{clip-path:url(#SVGID_2_);fill:#EFF7F9;}
	.st39{clip-path:url(#SVGID_2_);fill:#F4FCFE;}
	.st40{clip-path:url(#SVGID_2_);fill:#F1FCFD;}
	.st41{clip-path:url(#SVGID_2_);fill:#F5FCFE;}
	.st42{clip-path:url(#SVGID_2_);fill:#FDFDFD;}
	.st43{clip-path:url(#SVGID_2_);fill:#EAFBFE;}
	.st44{clip-path:url(#SVGID_2_);fill:#E8F2F4;}
	.st45{clip-path:url(#SVGID_2_);fill:#D2EAF1;}
	.st46{clip-path:url(#SVGID_2_);fill:#EBF5F8;}
	.st47{clip-path:url(#SVGID_2_);fill:#E4F3F6;}
	.st48{clip-path:url(#SVGID_2_);fill:#E1FAFE;}
	.st49{clip-path:url(#SVGID_2_);fill:#D3EAF1;}
	.st50{clip-path:url(#SVGID_2_);fill:#E2FAFE;}
	.st51{clip-path:url(#SVGID_2_);fill:#D4EBF1;}
	.st52{clip-path:url(#SVGID_2_);fill:#D4EBF2;}
	.st53{clip-path:url(#SVGID_2_);fill:#E4F2F6;}
	.st54{clip-path:url(#SVGID_2_);fill:#DDEFF4;}
	.st55{clip-path:url(#SVGID_2_);fill:#EAF3F5;}
	.st56{clip-path:url(#SVGID_2_);fill:#E4FAFE;}
	.st57{clip-path:url(#SVGID_2_);fill:#D6ECF2;}
	.st58{clip-path:url(#SVGID_2_);fill:#D9EEF3;}
	.st59{clip-path:url(#SVGID_2_);fill:#EDF4F6;}
	.st60{clip-path:url(#SVGID_2_);fill:#ECF4F6;}
	.st61{clip-path:url(#SVGID_2_);fill:#EEF5F6;}
	.st62{clip-path:url(#SVGID_2_);fill:#EBF4F5;}
	.st63{clip-path:url(#SVGID_2_);fill:#EBF3F5;}
	.st64{clip-path:url(#SVGID_2_);fill:#EEF5F7;}
	.st65{clip-path:url(#SVGID_2_);fill:#EDF5F6;}
	.st66{clip-path:url(#SVGID_2_);fill:#E3F2F6;}
	.st67{clip-path:url(#SVGID_2_);fill:#ECF4F5;}
	.st68{clip-path:url(#SVGID_2_);fill:#DBEEF3;}
	.st69{clip-path:url(#SVGID_2_);fill:#E1F1F5;}
	.st70{clip-path:url(#SVGID_2_);fill:#E2F2F5;}
	.st71{clip-path:url(#SVGID_2_);fill:#DDF0F4;}
	.st72{clip-path:url(#SVGID_2_);fill:#E0F1F5;}
	.st73{clip-path:url(#SVGID_2_);fill:#E9FBFE;}
	.st74{clip-path:url(#SVGID_2_);fill:#EEFCFE;}
	.st75{clip-path:url(#SVGID_2_);fill:#EDFCFE;}
	.st76{clip-path:url(#SVGID_2_);fill:#EFF5F7;}
	.st77{clip-path:url(#SVGID_4_);fill:#7CC8EF;}
	.st78{clip-path:url(#SVGID_4_);fill:#498AD0;}
	.st79{clip-path:url(#SVGID_4_);fill:#6DBEEB;}
	.st80{clip-path:url(#SVGID_4_);fill:#80CCF1;}
	.st81{clip-path:url(#SVGID_4_);fill:#75C9FE;}
	.st82{clip-path:url(#SVGID_4_);fill:#71C1EC;}
	.st83{clip-path:url(#SVGID_4_);fill:#529DDB;}
	.st84{clip-path:url(#SVGID_4_);fill:#75C3ED;}
	.st85{clip-path:url(#SVGID_4_);fill:#4F96D7;}
	.st86{clip-path:url(#SVGID_4_);fill:#83CFF2;}
	.st87{clip-path:url(#SVGID_4_);fill:#4E95D6;}
	.st88{clip-path:url(#SVGID_4_);fill:#519BDA;}
	.st89{clip-path:url(#SVGID_4_);fill:#56A2DD;}
	.st90{clip-path:url(#SVGID_4_);fill:#54A0DD;}
	.st91{clip-path:url(#SVGID_4_);fill:#69B9E9;}
	.st92{clip-path:url(#SVGID_4_);fill:#5FAEE3;}
	.st93{clip-path:url(#SVGID_4_);fill:#77C5EE;}
	.st94{clip-path:url(#SVGID_4_);fill:#B9E8FA;}
	.st95{clip-path:url(#SVGID_4_);fill:#4B90D3;}
	.st96{clip-path:url(#SVGID_4_);fill:#65B5E7;}
	.st97{clip-path:url(#SVGID_4_);fill:#59A7E0;}
	.st98{clip-path:url(#SVGID_4_);fill:#87D1F3;}
	.st99{clip-path:url(#SVGID_4_);fill:#5AA9E1;}
	.st100{clip-path:url(#SVGID_4_);fill:#498BD0;}
	.st101{clip-path:url(#SVGID_4_);fill:#84CFF2;}
	.st102{clip-path:url(#SVGID_4_);fill:#498BD1;}
	.st103{clip-path:url(#SVGID_4_);fill:#66B5E7;}
	.st104{clip-path:url(#SVGID_4_);fill:#8FD5F4;}
	.st105{clip-path:url(#SVGID_4_);fill:#8BD3F3;}
	.st106{clip-path:url(#SVGID_4_);fill:#58A6DF;}
	.st107{clip-path:url(#SVGID_4_);fill:#4B91D4;}
	.st108{clip-path:url(#SVGID_4_);fill:#54A1DD;}
	.st109{clip-path:url(#SVGID_4_);fill:#56A2DE;}
	.st110{clip-path:url(#SVGID_4_);fill:#7CC9F0;}
	.st111{clip-path:url(#SVGID_4_);fill:#5BAAE1;}
	.st112{clip-path:url(#SVGID_4_);fill:#95D8F5;}
	.st113{clip-path:url(#SVGID_4_);fill:#6FBFEC;}
	.st114{clip-path:url(#SVGID_4_);fill:#6ABAE9;}
	.st115{clip-path:url(#SVGID_4_);fill:#498DD1;}
	.st116{clip-path:url(#SVGID_4_);fill:#5EADE3;}
	.st117{clip-path:url(#SVGID_4_);fill:#529EDB;}
	.st118{clip-path:url(#SVGID_4_);fill:#9CDCF7;}
	.st119{clip-path:url(#SVGID_4_);fill:#62B1E5;}
	.st120{clip-path:url(#SVGID_4_);fill:#61B0E5;}
	.st121{clip-path:url(#SVGID_4_);fill:#8AD2F3;}
	.st122{clip-path:url(#SVGID_4_);fill:#85CFF2;}
	.st123{clip-path:url(#SVGID_4_);fill:#5DABE2;}
	.st124{clip-path:url(#SVGID_4_);fill:#74C3ED;}
	.st125{clip-path:url(#SVGID_4_);fill:#63B4E6;}
	.st126{clip-path:url(#SVGID_4_);fill:#7ECAF0;}
	.st127{clip-path:url(#SVGID_4_);fill:#529CDA;}
	.st128{clip-path:url(#SVGID_4_);fill:#58A5DF;}
	.st129{clip-path:url(#SVGID_4_);fill:#90D5F4;}
	.st130{clip-path:url(#SVGID_4_);fill:#529DDA;}
	.st131{clip-path:url(#SVGID_4_);fill:#8DD3F4;}
	.st132{clip-path:url(#SVGID_4_);fill:#4E94D6;}
	.st133{clip-path:url(#SVGID_4_);fill:#56A4DE;}
	.st134{clip-path:url(#SVGID_4_);fill:#6BBBEA;}
	.st135{clip-path:url(#SVGID_4_);fill:#A3E0F8;}
	.st136{clip-path:url(#SVGID_4_);fill:#4A8BD1;}
	.st137{clip-path:url(#SVGID_4_);fill:#4C90D4;}
	.st138{clip-path:url(#SVGID_4_);fill:#A7E1F8;}
	.st139{clip-path:url(#SVGID_4_);fill:#AEE4F9;}
	.st140{clip-path:url(#SVGID_4_);fill:#5099D8;}
	.st141{clip-path:url(#SVGID_4_);fill:#59A8E0;}
	.st142{clip-path:url(#SVGID_4_);fill:#539FDC;}
	.st143{clip-path:url(#SVGID_4_);fill:#55A2DD;}
	.st144{clip-path:url(#SVGID_4_);fill:#72C1EC;}
	.st145{clip-path:url(#SVGID_4_);fill:#4D93D5;}
	.st146{clip-path:url(#SVGID_4_);fill:#96D9F5;}
	.st147{clip-path:url(#SVGID_4_);fill:#6DBDEB;}
	.st148{clip-path:url(#SVGID_4_);fill:#519AD9;}
	.st149{clip-path:url(#SVGID_4_);fill:#70C0EC;}
	.st150{clip-path:url(#SVGID_4_);fill:#4F95D6;}
	.st151{clip-path:url(#SVGID_4_);fill:#66B6E7;}
	.st152{clip-path:url(#SVGID_4_);fill:#5AA8E1;}
	.st153{clip-path:url(#SVGID_4_);fill:#B3E6F9;}
	.st154{clip-path:url(#SVGID_4_);fill:#4B8FD2;}
	.st155{clip-path:url(#SVGID_4_);fill:#65B4E7;}
	.st156{clip-path:url(#SVGID_4_);fill:#94D7F5;}
	.st157{clip-path:url(#SVGID_4_);fill:#9BDDF7;}
	.st158{clip-path:url(#SVGID_4_);fill:#6DBDEA;}
	.st159{clip-path:url(#SVGID_4_);fill:#5096D6;}
	.st160{clip-path:url(#SVGID_4_);fill:#4C90D3;}
	.st161{clip-path:url(#SVGID_4_);fill:#539EDB;}
	.st162{clip-path:url(#SVGID_4_);fill:#99DBF6;}
	.st163{clip-path:url(#SVGID_4_);fill:#A4E0F8;}
	.st164{clip-path:url(#SVGID_4_);fill:#76C4EE;}
	.st165{clip-path:url(#SVGID_4_);fill:#4B8FD3;}
	.st166{clip-path:url(#SVGID_4_);fill:#ACE3F8;}
	.st167{clip-path:url(#SVGID_4_);fill:#B0E5F9;}
	.st168{clip-path:url(#SVGID_4_);fill:#63A7DE;}
	.st169{clip-path:url(#SVGID_4_);fill:#CDEAF9;}
	.st170{clip-path:url(#SVGID_4_);fill:#76C5EE;}
	.st171{clip-path:url(#SVGID_4_);fill:#57A3DE;}
	.st172{clip-path:url(#SVGID_4_);fill:#6ABBEA;}
	.st173{clip-path:url(#SVGID_4_);fill:#60AFE4;}
	.st174{clip-path:url(#SVGID_4_);fill:#6EBEEB;}
	.st175{clip-path:url(#SVGID_6_);fill:#003B62;}
	.st176{clip-path:url(#SVGID_6_);fill:#013B62;}
	.st177{clip-path:url(#SVGID_6_);fill:#013C62;}
	.st178{clip-path:url(#SVGID_6_);fill:#4DB7FE;}
	.st179{clip-path:url(#SVGID_6_);fill:#52B8FD;}
	.st180{clip-path:url(#SVGID_6_);fill:#4EB7FE;}
	.st181{clip-path:url(#SVGID_6_);fill:#4FB7FE;}
	.st182{clip-path:url(#SVGID_6_);fill:#4EB6FD;}
	.st183{clip-path:url(#SVGID_6_);fill:#51B8FE;}
	.st184{clip-path:url(#SVGID_6_);fill:#4FB7FD;}
	.st185{clip-path:url(#SVGID_6_);fill:#4EB5FA;}
	.st186{clip-path:url(#SVGID_6_);fill:#4FB6FC;}
	.st187{clip-path:url(#SVGID_6_);fill:#53B9FE;}
	.st188{clip-path:url(#SVGID_6_);fill:#51B7FC;}
	.st189{clip-path:url(#SVGID_6_);fill:#50B7FC;}
	.st190{clip-path:url(#SVGID_6_);fill:#54B9FE;}
	.st191{clip-path:url(#SVGID_6_);fill:#55BAFE;}
	.st192{clip-path:url(#SVGID_6_);fill:#ABD7F5;}
	.st193{clip-path:url(#SVGID_6_);fill:#51B6FA;}
	.st194{clip-path:url(#SVGID_6_);fill:#FBFCFD;}
	.st195{clip-path:url(#SVGID_6_);fill:#4EB7FD;}
	.st196{clip-path:url(#SVGID_6_);fill:#FCFDFD;}
	.st197{clip-path:url(#SVGID_6_);fill:#4DB6FD;}
	.st198{clip-path:url(#SVGID_6_);fill:#FDFEFE;}
	.st199{clip-path:url(#SVGID_6_);fill:#51B6FB;}
	.st200{clip-path:url(#SVGID_6_);fill:#4EB2F5;}
	.st201{clip-path:url(#SVGID_6_);fill:#65BDF9;}
	.st202{clip-path:url(#SVGID_6_);fill:#179EF7;}
	.st203{clip-path:url(#SVGID_6_);fill:#2AA2F1;}
	.st204{clip-path:url(#SVGID_6_);fill:#E2EFF9;}
	.st205{clip-path:url(#SVGID_6_);fill:#9BCDEF;}
	.st206{clip-path:url(#SVGID_6_);fill:#FBFCFC;}
	.st207{clip-path:url(#SVGID_6_);fill:#FAFBFB;}
</style>
<g>
	<defs>
		<rect id="SVGID_1_" width="1080" height="1081"/>
	</defs>
	<clipPath id="SVGID_2_">
		<use xlink:href="#SVGID_1_"  style="overflow:visible;"/>
	</clipPath>
	<path class="st0" d="M690.7,305.8c0.6,44.7-35.9,81.1-80.8,81.1c-45,0-82.1-35.7-81.1-83.5c0.9-42.4,34.8-78.4,80.2-78.8
		C655.1,224,691.5,261.4,690.7,305.8"/>
	<path class="st0" d="M690.7,803.2c0.7,44.3-35.8,80.8-80.7,80.8c-44.8,0-82.3-35.6-81.2-83.4c0.9-42.4,34.8-78.4,80.1-78.9
		C655,721.1,691.5,758.4,690.7,803.2"/>
	<path class="st1" d="M788.2,582.7c40.9-0.1,73.5,32.3,73.3,73.4c-0.2,41.2-32.9,72.8-73.2,72.8c-40,0-73.9-32.6-73-74.7
		C716,615.9,748.1,582.2,788.2,582.7"/>
	<path class="st1" d="M291.6,582.7c39.3-0.5,73.8,32.5,73,74.8c-0.8,37.8-32.1,72-73.9,71.4c-39.6-0.6-73.6-32.3-72.4-75.5
		C219.4,615.2,250.9,582.3,291.6,582.7"/>
	<path class="st2" d="M564.9,610.5c-39.1,1.4-72.5-32.8-72.3-72.2c0.2-39.7,33.4-72.2,72.5-72c40.4,0.2,72.4,33,72.2,72.7
		C637.1,579.4,603.7,611.6,564.9,610.5"/>
	<path class="st0" d="M738.7,491.7c-0.6-31.3,27-59.6,60.1-59c33,0.6,59.6,27,59,60.9c-0.5,32.2-26.2,59-61.9,58.4
		C765.2,551.5,737.7,524.8,738.7,491.7"/>
	<path class="st0" d="M360.8,493c0.1,32.6-27.1,59.3-60.6,59c-32.1-0.3-58.8-26.8-58.7-60.1c0.1-31.4,26.2-60.3,61.9-59.2
		C332.5,433.6,361.4,458.2,360.8,493"/>
	<path class="st2" d="M381,790c-0.8-25.4,22.2-50.3,51-49.3c25.3,0.8,48.4,22.2,48,50c-0.4,26.7-22.3,49.7-50.7,49.1
		C403.1,839.3,380.8,817.7,381,790"/>
	<path class="st2" d="M430.6,243.8c26.6-1,49.1,22.1,49.5,48c0.4,29-21.9,50.5-49.2,50.8c-28.6,0.4-50.1-23.2-49.9-50.6
		C381.1,267,403.3,242.4,430.6,243.8"/>
	<path class="st0" d="M488.7,483.8c-25.3,1-47.4-20.6-46.9-46.6c0.4-25.4,20.5-46.3,46.5-46.2c26.1,0,46.7,20.9,46.5,47.8
		C534.6,462.1,514.5,484.9,488.7,483.8"/>
	<path class="st2" d="M613.5,645.7c-0.5-24.7,20.2-45.1,44.6-44.9c25.5,0.2,45.1,19.3,45.1,44.6c0.1,26-19.4,45.2-46,45.3
		C633.6,690.6,613.1,670.7,613.5,645.7"/>
	<path class="st1" d="M443.3,641.2c22.2-1.1,42.1,18.1,42,41.7c-0.1,22.8-18.9,41.5-41.7,41.5c-23.3,0-41.8-19.7-41.8-41.9
		C401.8,661.6,420,640.1,443.3,641.2"/>
	<path class="st2" d="M732.7,772.9c-0.8-15.3,12.4-28.8,28.9-28.8c16.1,0,29,13.9,28.9,29.3c-0.1,15.9-13.1,29.1-28.9,29.1
		C744.5,802.5,731.2,787.5,732.7,772.9"/>
	<path class="st2" d="M293.3,773.4c0.7,15.4-12.6,28.9-28.8,29c-16.2,0.1-29-12.9-28.9-29.3c0-16.5,12.9-29,28.9-29
		C280.9,744.1,293.9,757.6,293.3,773.4"/>
	<path class="st2" d="M595.5,680.9c1,14.9-13.3,29.2-29.7,28.6c-15.6-0.6-28.1-13.2-28-29.4c0-15,13.1-29.1,30.1-28.6
		C581.6,651.9,597,665.5,595.5,680.9"/>
	<path class="st3" d="M581.2,393.8c15.4,0,28.7,13,28.4,28.3c-0.3,16.5-12.3,28.6-28.5,28.5c-16.5-0.1-28.2-12.1-28.2-28.4
		C552.9,406.4,564.7,394.4,581.2,393.8"/>
	<path class="st1" d="M445.5,604.5c-15.6,0-28.5-12.7-28.4-28.2c0.1-15.3,12.4-28.3,28.2-28.3c16,0,28.5,12.1,28.6,28.2
		C473.8,592.1,461.1,604.7,445.5,604.5"/>
	<path class="st0" d="M337.5,362.4c0,13.3-10.8,24.1-24.4,23.9c-13.5-0.3-23.5-10.4-23.4-24c0-13.8,10.5-23.7,24-23.9
		C326.8,338.2,337.5,349.2,337.5,362.4"/>
	<path class="st4" d="M377.5,417c-11.7,0-21.3-9.7-21.3-21.5c0-11.9,9.4-21.3,21.4-21.3c11.7,0,21.4,9.7,21.3,21.4
		C399,407.5,389.3,417,377.5,417"/>
	<path class="st5" d="M438,493.5c-0.2-0.2-0.5-0.5-0.7-0.7c-2.7-4.2-2.6-7.7,0.3-10.4c2.8-2.7,6.9-2.9,9.9-0.6
		c3.2,2.4,3.9,6.4,1.7,10c-2,3.4-5.7,4.5-9.3,2.9C439.2,494.3,438.6,493.9,438,493.5"/>
	<path class="st6" d="M414.7,377.7c0-8.9,6.5-15.4,15.3-15.4c8.3,0,15.5,7.2,15.4,15.6c-0.1,8.7-6.8,15.2-15.6,15.2
		C421,393,414.7,386.7,414.7,377.7"/>
	<path class="st5" d="M688.5,360.8c0.2,0.2,0.5,0.5,0.7,0.7c4.6,4.9,0.2,12.3-5.2,12.4c-3.4,0.1-6.2-1.5-7.4-4.5
		c-1.2-2.9-0.5-6.4,1.8-8.6c2.3-2.2,5.6-2.7,8.6-1.1C687.5,360,688,360.5,688.5,360.8"/>
	<path class="st5" d="M342,804.6c0.2-0.5,0.5-1,0.7-1.4c0.6-1,1.3-1.7,2.3-2.3l0,0c2.7-1.4,5.4-1.8,8,0.1c1.1,0.4,1.9,1.1,2.5,2.1
		l0,0c3.4,5.6-0.5,12.6-7.5,11.6c-2.9-0.4-5.1-1.7-5.7-5c0.4-1,1.1-1,1.7-0.2c0.9,1.2,1.7,2.3,3.1,3c-2.6-1.8-2.9-2.2-3.4-5.4
		c-0.4,0.8-0.2,2.1-1.7,2C341.4,807.7,341.5,806.2,342,804.6"/>
	<path class="st5" d="M633.1,462c0.5,0.5,1,1,1.4,1.5c-0.1,0.1-0.3,0.2-0.4,0.3c-1.8,0.4-3.5-1.5-5.8-0.3c-0.1,0,0.7,0.4,0.4-0.1
		c1.6-0.9,2.9,0.1,4.4,0.5c2.1,1.8,2.1,1.8,2.5,4.9c0,0.5,0.9,0,0.4,0c0,0-0.1,0-0.1-0.2c-0.2-0.9-0.7-1.9,0.6-2.5
		c1.4,1.4,0.5,3,0.6,4.6c-1.3,2.3-2.6,4.5-5.5,5.1c-5.7,1.2-10.3-3.7-8.8-9.4c0.3-1.1,0.8-2.1,1.2-3.1c0.6,0,1.2-0.1,1.5-0.7
		C627.8,461,630.4,461.2,633.1,462"/>
	<path class="st7" d="M399.1,476.3c0.2-0.2,0.5-0.5,0.7-0.7c0.9-0.7,1.9-1.3,3.1-1.3c6.7,1.5,8.6,3.9,8.5,10.6
		c-3.4,4.3-6.2,5-10.8,2.6l0,0C396.5,483.7,396.2,481.3,399.1,476.3"/>
	<path class="st7" d="M394.5,618.8c-0.2,0.2-0.5,0.4-0.7,0.7c-2.9,2.3-5.9,2.6-9.1,0.8l0,0c-0.8-0.7-1.9-1.1-1.8-2.4
		c2-1.9,2.1,1.1,3.2,1c-2.1-0.5-1.6-4.3-4.7-4.1c-0.3-3.3,1.2-5.5,4-6.9c7.4,0.5,9,1.8,10.1,8.3C395.6,617.2,395,618,394.5,618.8"/>
	<path class="st8" d="M293.3,419.7c0,7.7-5.1,13-12.7,13c-6.5,0-12.7-6-12.8-12.6c-0.2-6.9,6-12.9,13.1-12.9
		C288.3,407.3,293.3,412.4,293.3,419.7"/>
	<path class="st8" d="M660.7,573.1c0,7.5-5.2,12.7-12.6,12.7c-7-0.1-12.9-5.9-12.9-12.7c0-6.9,6-12.8,12.9-12.7
		C655.6,560.3,660.7,565.6,660.7,573.1"/>
	<path class="st8" d="M397.8,432.8c6.7,0,12.4,5.9,12.5,12.7c0,6.5-6.4,12.8-13.2,12.8c-6.9,0-12.6-5.9-12.7-13
		C384.4,438.2,390.2,432.7,397.8,432.8"/>
	<path class="st8" d="M694.1,520.5c-6.9,0-13-6.2-12.8-12.9c0.2-7.1,5.9-12.6,13-12.6c6.7,0,13.3,6.1,12.9,12.4
		C706.6,515,701.9,520.1,694.1,520.5"/>
	<path class="st8" d="M777.7,407.3c7.2,0,12.8,5.3,12.8,12.3c0,7.4-5.6,13.2-12.8,13.2c-6.9,0-12.6-5.8-12.7-12.6
		C764.9,413.1,770.6,407.3,777.7,407.3"/>
	<path class="st8" d="M370.2,734.2c-6.8,0-12.4-5.7-12.5-12.7c0-7,5.8-12.8,12.8-12.8c7,0,12.8,5.9,12.7,13
		C383.2,728.7,377.4,734.3,370.2,734.2"/>
	<path class="st9" d="M501.7,741.8c0-6.6,4.6-11.3,11.2-11.4c6.4,0,11.4,4.9,11.3,11.3c0,6.2-4.9,11.1-11.1,11.2
		C506.5,753,501.8,748.4,501.7,741.8"/>
	<path class="st10" d="M732.1,377.3c-6.4,0-11.3-4.8-11.4-11.3c-0.1-6.4,5-11.7,11.4-11.9c5.7-0.2,11.6,5.8,11.6,11.9
		C743.7,372,738.3,377.2,732.1,377.3"/>
	<path class="st11" d="M369.8,561.5c-0.1,6-5.2,11.1-11.2,11.2c-6,0.1-11.4-5.5-11.3-11.6c0.1-5.9,5.4-11.3,11.2-11.4
		C364.8,549.7,369.9,554.9,369.8,561.5"/>
	<path class="st11" d="M697.7,436.5c-5.9,0-11.3-5.3-11.4-11.1c-0.1-6,5.6-11.5,11.9-11.4c5.8,0.1,11.3,5.6,11.2,11.3
		C709.3,431.3,703.8,436.6,697.7,436.5"/>
	<path class="st12" d="M534.8,635.3c4.2,0,8.2,4,8.2,8.1c0,4-3.8,8.1-7.8,8.2c-4.3,0.1-8-3.6-8-8.1
		C527.2,639.2,530.8,635.3,534.8,635.3"/>
	<path class="st13" d="M686.9,563.1c0-4.4,3.7-8.2,8-8.1c3.9,0.1,7.7,4.1,7.8,8.1c0,4.3-3.4,7.9-7.8,7.9
		C690.4,571.2,686.9,567.7,686.9,563.1"/>
	<path class="st14" d="M317.5,399c5-0.1,8.7,3.4,8.8,8.2c0,4.2-3.8,8.1-8.1,8.3c-3.9,0.1-8.3-4-8.4-8
		C309.6,403.2,313.4,399.1,317.5,399"/>
	<path class="st15" d="M498.8,354.8c4.3,2,5.6,6.3,3.3,10.5c-2.4,4.2-7.3,5.5-11.5,3c-3.6-2.1-4.9-7.7-2.6-11.1
		C490.7,353,494.7,352.2,498.8,354.8c-1.7,1.5-3.8-0.4-5.6,0.7c-2.7,1.4-4.8,3.3-4.2,6.7c0.4,2.3,1.5,4.3,4,4.9
		c3.2,0.8,5.6-0.4,7.4-3.1c0.9-2.3,0.7-4.5-0.7-6.6C499.1,356.6,498.3,355.9,498.8,354.8"/>
	<path class="st15" d="M405,542.5c0-4.8,3.6-8.6,8-8.5c4.3,0.1,7.8,3.9,7.8,8.4c-0.1,4.5-3.6,8-8.1,8.1
		C408.7,550.6,405,546.7,405,542.5"/>
	<path class="st16" d="M438,493.5c2.5,0.4,4.6,2.4,7.5,0.9c3.6-1.9,5.5-5.8,4.1-9.2c-1.5-3.6-5.7-5.4-9.3-4
		c-3.9,1.5-5.4,5.4-3.7,9.5c0.3,0.7,0.5,1.4,0.7,2.1c-3.6-2.3-2.7-5.7-1.6-8.6c1.2-3.3,4.4-4.8,7.8-4.6c3.5,0.2,6.6,3.1,7.2,6.1
		c0.7,4-0.6,7.3-3.7,8.9C443.8,496.3,440.6,496.8,438,493.5"/>
	<path class="st17" d="M688.5,360.8c-0.6-0.2-1.2-0.3-1.8-0.6c-4-1.7-7-0.9-9.2,2.2c-1.8,2.7-1.5,6.5,0.9,8.9
		c2.6,2.6,5.7,2.9,9.1,0.7c2.9-1.8,3.7-5.2,2.2-8.8c-0.2-0.6-0.4-1.2-0.6-1.8c2.8,2.9,3.1,6.1,0.8,9.7c-1.8,2.8-6.2,4-9.6,2.8
		c-3.4-1.2-5.3-4.8-4.8-8.7c0.6-4,3.1-6.5,6.7-6.7C684.7,358.5,687.2,358,688.5,360.8"/>
	<path class="st18" d="M697.5,709.4c2.2,2.7,2.1,6.8-0.1,9.4c-2.7,3.2-6.6,3.9-10.3,1.8c-3.4-1.9-4.8-5.8-3.5-9.7
		c1.8-5.2,7-6.9,11.7-3.9c-0.1,0.1-0.3,0.2-0.4,0.4c-1.8,0.7-3.7-0.8-5.5,0.4c-4.9,3.1-5.8,7.5-2.1,10.5c2.9,2.3,6.3,1.6,9.3-2
		c1.4-2.1,0.1-4.4,0.6-6.6C697.3,709.7,697.4,709.6,697.5,709.4"/>
	<path class="st19" d="M713.2,753c-1.8,3.7-5.6,5.4-9.2,4c-4.1-1.6-6.7-6.1-5.6-9.8c1.3-4.1,5.6-7,9.5-6.1c1,0.2,2.2,0.4,3,1.3
		c-0.2,0.3-0.5,0.5-0.9,0.6c-2.2,0.1-4.5-0.6-6.5,0.8c-3.2,2.5-3.9,6.5-1.8,9c2.3,2.8,6.4,2.7,9.9-0.3c0.4-0.4,0.9-0.7,1.5-0.6
		C713.6,752.3,713.6,752.7,713.2,753"/>
	<path class="st18" d="M345,772.5c-2.5,3.1-6.1,4-9.5,2.4c-2.9-1.4-5.2-5.5-4.6-8.3c0.7-3.9,3.9-6.7,7.8-6.8c1.1,0,2.2,0,3.4,0
		c-0.7,2.7-3.2,1.2-4.7,2.1c-4.8,2.8-5.5,7.9-1.5,10.8c1.6,1.2,3.4,1.4,5.3,0.6c1.1-0.4,2.1-1.4,3.5-1.1
		C344.8,772.2,344.9,772.3,345,772.5"/>
	<path class="st20" d="M336.8,761.2c1.4-1.7,3.8,0.2,5.2-1.5c1.1,0.6,2.5,0.9,3,2.2c0.3,1.7,1.8,3,1.8,4.8c0.1,1.8,0.4,3.8-2,4.5
		C343.4,766.9,341,763.3,336.8,761.2"/>
	<path class="st21" d="M721.5,456c1.2,0.6,2.2,1.5,2.3,3c1.5,2.8,1.5,5.5,0,8.3l0,0c-0.5,0.6-0.9,1.4-1.8,0.6
		c-0.3-0.5-0.4-1.1-0.5-1.8c0-5.3-0.4-5.8-5.1-7.7c-0.9-0.4-2-0.6-2-1.9C716.6,454.6,719.1,456.2,721.5,456"/>
	<path class="st22" d="M508.5,795.7c2.8,2.6,2.7,5.6,0.9,8.7c-2,3.4-5,5-8.8,3.9c-3.6-1-6-3.4-6.3-7.4c0.3-0.2,0.6-0.3,1-0.2
		c0.8,0.5,1.1,1.3,1.5,2c3.2,5,7.8,5,11.1,0c0.8-2.1,0.2-4.2,0.1-6.2C508.1,796.3,508.2,795.9,508.5,795.7"/>
	<path class="st23" d="M623.9,463.5c-0.2,1-0.4,1.9-0.6,2.9c-0.8,4.2,0.4,7.2,3.4,8.6c3.4,1.5,6.3,0.6,9-2.8
		c0.3-0.4,0.6-0.8,0.9-1.1c0.3-0.4,0.5-0.4,0.8,0c-1.5,3.5-3.9,6-7.8,5.8c-3.5-0.2-6.3-2.1-7.5-5.8
		C621.2,468.1,622.1,465.7,623.9,463.5"/>
	<path class="st24" d="M385.5,608.2c-2.5,1.6-4,3.7-3.7,6.7c0.4,0.9,0.5,1.5-0.8,1.5c-0.1-6.1,1.6-8.9,6.1-10.1
		c3.6-1,6.4,0.6,8.4,3.4c2.1,3,1.6,6.3-1,9c0.2-0.8,0.5-1.5,0.7-2.3C395.2,610,392.6,607.7,385.5,608.2"/>
	<path class="st25" d="M342.8,809.2c0.8,3.9,3.9,5.9,7.9,5.2c3.4-0.6,6-4.2,5.6-7.6c-0.2-1.2-0.5-2.4-0.7-3.6
		c2.7,2.7,1.9,5.7,0.5,8.5c-1.9,3.7-5.6,4-9.1,3.4c-3.1-0.5-5.1-2.7-5.5-5.8c-0.2-1.5-0.7-3.2,0.7-4.6
		C342.3,806.2,341.4,807.9,342.8,809.2L342.8,809.2z"/>
	<path class="st17" d="M721.5,456c-2.1,1.2-4.7-1.3-6.7,0.7c-0.4,0.6-0.9,1.2-1.4,1.7c-2,1.9-2.7,4.2-1.8,6.7
		c0.9,2.6,2.9,3.9,5.6,4.1c0.9,0.1,1.7,0.1,2.5,0.6c0.1,0.1,0.2,0.3,0.4,0.4c-3.1,1.5-6,1.1-8.5-1.4c-2.7-2.7-2.9-6-1.5-9.3
		c1.3-3,3.7-4.5,7.1-4.4C718.6,455.3,720.1,455.2,721.5,456"/>
	<path class="st26" d="M411,484.5c-1.9-1.3,0.5-3.5-1.3-5.3c-2-2.2-4.4-3.3-7-4.4c0.9-2.4,3.2-0.3,4.5-1.5c0.8,0.5,1.5,1,2.3,1.5
		c2,2.6,3.7,5.3,2.6,8.8C412,484.2,411.9,484.8,411,484.5"/>
	<path class="st15" d="M411,484.5c1.5-2.7,1-5.3-0.7-7.8c-0.4-0.6-1.7-0.9-0.8-2c4,2.6,4.4,8.5,1.9,11.4c-2.8,3.3-7.9,4.7-10.9,1.4
		C404.7,488.8,408.5,488.8,411,484.5"/>
	<path class="st27" d="M710.3,582c-0.1,1.6-0.9,2.6-2.5,2.6c-1.4,0-2.4-1-2.4-2.4c0-1.6,0.9-2.6,2.6-2.6
		C709.4,579.7,710.2,580.5,710.3,582"/>
	<path class="st14" d="M508.5,795.7c0,0.3,0,0.5,0,0.8c-0.2,0.3-0.5,0.4-0.9,0.4c-1.5-0.2-2.3-1.5-3.5-2.1c-2-1-4,0.1-6,0
		c-0.3-0.1-0.6-0.3-0.9-0.6C502,791,505.1,791.4,508.5,795.7"/>
	<path class="st28" d="M381,616.5c0.6-0.3,0.7-0.9,0.8-1.5c0.7-0.5,1.3-1,2.1-1.7c-0.2,3,1.3,4.7,3.8,5.7c-2,1.8-2.8-1.8-4.5-1
		c-0.2,0.3-0.3,0.7-0.8,0.8C382,618,381.5,617.2,381,616.5"/>
	<path class="st25" d="M399.1,476.3c-2.1,4.1-1.5,7.8,1.5,11.3C396.1,485.2,395.5,479.9,399.1,476.3"/>
	<path class="st22" d="M713.2,753c0-0.3,0-0.5,0-0.8c0.1-3.6-2-6.5-3-9.7c0.3,0,0.5,0,0.8,0C715.3,745.9,715.9,748.8,713.2,753"/>
	<path class="st29" d="M345,770.9c1.9-1.8,1.8-3.8,0.8-6.1c-0.4-0.9-1.6-1.7-0.8-2.9c3.2,4.7,3.2,7.1,0,10.5l0,0
		C344.6,771.9,344.6,771.4,345,770.9"/>
	<path class="st24" d="M384.8,620.2c3.1,1.1,6.1,0.5,9.1-0.8C391.2,622.4,387.7,622.7,384.8,620.2"/>
	<path class="st25" d="M353.3,801.7c-2.6-2.1-5.4-1.3-8.3-0.7c2.5-2.1,5.7-2.2,8.3,0c0.3,0.2,0.3,0.3,0.3,0.5
		S353.4,801.7,353.3,801.7"/>
	<path class="st16" d="M497.3,794.2c0.3,0,0.5,0,0.8,0c-0.2,2.6-1.3,4.8-3,6.7h-0.7C494.2,798.2,495,795.9,497.3,794.2"/>
	<path class="st30" d="M723.7,467.3c0.7-2.8,0.7-5.5,0-8.3C725.9,461.7,725.9,464.5,723.7,467.3"/>
	<path class="st31" d="M633.1,462c-2.6,0-5.2-0.2-7.6,0.8C627.7,460.2,630.3,460.3,633.1,462"/>
	<path class="st32" d="M637.5,471c-0.3,0-0.5,0-0.8,0c-0.2-1.5,0.6-3.2-0.7-4.5c-0.8-0.5-1.3-1.3-1.8-2.1c-0.1-0.3,0-0.6,0.3-0.8
		c0,0,0,0,0,0C638.5,464.8,637.2,468.2,637.5,471"/>
	<path class="st25" d="M407.3,473.3c-1.1,1.6-3.3-0.1-4.5,1.5c-1,0.3-2,0.5-3,0.8C401.6,472.6,404.6,473.4,407.3,473.3"/>
	<path class="st17" d="M722.2,468c0.5-0.2,1-0.5,1.5-0.7c-0.3,2.2-2,2.6-3.8,3l0,0C719.7,468.5,720.9,468.2,722.2,468"/>
	<path class="st18" d="M695.2,707.2c1.4,0.1,2.2,0.8,2.3,2.2l0,0C695.8,709.6,695,708.9,695.2,707.2L695.2,707.2z"/>
	<path class="st24" d="M382.5,618.7c0.3-0.3,0.5-0.5,0.8-0.8c0.5,0.8,1,1.5,1.5,2.3C383.7,620.3,383,619.7,382.5,618.7"/>
	<path class="st25" d="M345,800.9c-0.5,1-1.3,1.8-2.3,2.3C342.8,801.8,343.6,801,345,800.9"/>
	<path class="st17" d="M353.3,801.7c0-0.2,0-0.5,0-0.7c1.4,0.1,2.2,0.8,2.2,2.3C354.8,802.7,354,802.2,353.3,801.7"/>
	<path class="st7" d="M609.5,378c-38.3,0.3-72.6-30.8-72.3-73.4c0.3-38.4,31.4-71.6,73.5-71.4c39.2,0.2,72.2,32.8,71.7,73.6
		C682,345.9,649.6,378.6,609.5,378"/>
	<path class="st7" d="M609,875.2c-38.4,0.6-71.8-31-71.7-73.3c0.1-38,30.7-71.4,73.3-71.4c39.3,0,72.3,32.9,71.8,73.4
		C682,843.1,649.5,875.9,609,875.2"/>
	<path class="st7" d="M853.5,656c0.8,35.2-28.6,65.7-65.6,65.3c-36.3-0.5-65.2-28.7-64.8-66.6c0.4-35.5,28.7-64.5,66.8-64.3
		C824,590.5,854.4,619.7,853.5,656"/>
	<path class="st7" d="M293.1,590.2c35.5,1.3,64.1,29,63.7,66.2c-0.3,36.5-28.9,65.4-66.6,64.7c-36.3-0.7-64.3-28.6-64.2-66.1
		C226.2,618.5,255.2,590.5,293.1,590.2"/>
	<path class="st7" d="M629.2,539c0.8,34.3-28.9,63.8-63.2,64.2c-36.1,0.4-66.5-29.3-65.9-65.6c0.6-34.5,29.8-64.3,66-63.7
		C600.5,474.5,630.4,503.8,629.2,539"/>
	<path class="st7" d="M851.2,492.5c0.5,29.9-23.7,53.8-53.7,53.2c-29-0.6-52.7-22.5-52.7-53.9c0-29.2,23.9-52.7,53-52.9
		C827.8,438.8,852,462.9,851.2,492.5"/>
	<path class="st7" d="M301.4,438.8c30.1,0.9,53.5,23.8,53.2,54.2c-0.4,29.8-23.2,52.9-53.4,52.7c-31.1-0.2-53.7-23.4-53.4-53.8
		C248.2,461.3,271.4,439.8,301.4,438.8"/>
	<path class="st7" d="M386.3,790c-0.7-23.5,21-44.5,44.6-44.1c23.9,0.4,44.7,21,43.9,45.3c-0.7,24.1-19.4,43.1-43.9,43.3
		C405.7,834.7,386,814.6,386.3,790"/>
	<path class="st7" d="M430.3,249c24-1.1,44.6,20,44.4,43.7c-0.2,25.7-19.7,44.5-44.1,44.6c-24.7,0.1-44.4-19.3-44.5-45.1
		C386.1,269.3,407.2,247.6,430.3,249"/>
	<path class="st7" d="M447,437.5c-0.9-21.6,18-41.9,41.4-41.4c24,0.4,41.5,17.9,41.5,41.5c0.1,23.2-17.9,41.6-42.2,41.6
		C465.5,479.3,446.1,460,447,437.5"/>
	<path class="st7" d="M698.2,645.9c0.6,21-16.7,40.3-40,40.2c-22.5-0.1-40.3-18.2-40.1-40.4c0.2-23,17.3-39.9,40-40.3
		C681.4,605.1,699,624.6,698.2,645.9"/>
	<path class="st7" d="M480.8,682.5c0.5,19.9-16.6,37.9-37.9,37.4c-20.7-0.5-36.7-16.3-36.7-37.5c0-20.6,16.4-37.3,37.4-37.3
		C464.2,645.1,480.9,661.8,480.8,682.5"/>
	<path class="st7" d="M735.7,773c-1.2-13.1,12-26.2,26.3-25.5c13.9,0.7,25.6,11.6,25.4,25.5c-0.2,15.2-11.1,26.2-26.4,26.3
		C746.9,799.4,734.6,786.8,735.7,773"/>
	<path class="st7" d="M290.3,773.2c0.5,14.6-11.7,26-26,26.2c-13.9,0.1-25.6-11.9-25.7-25.8c-0.1-14.3,11.4-26.2,26.7-26.2
		C279.1,747.5,291.1,760.6,290.3,773.2"/>
	<path class="st7" d="M592.5,680.6c0.8,13.9-11.7,26.2-25.9,25.9c-14.2-0.3-25.8-11.7-25.8-25.9c0-14.3,11.7-25.8,26.2-25.9
		C581,654.6,593.2,666.8,592.5,680.6"/>
	<path class="st7" d="M581.5,396.8c13.6,0.1,25.6,12,25.1,25.4c-0.5,15.1-11.3,25.4-25.5,25.3c-14.8-0.1-25.3-11-25.2-25.5
		C556,407.6,567.5,396.9,581.5,396.8"/>
	<path class="st7" d="M445.5,551.2c14-0.6,25.5,10.5,25.3,25.2c-0.1,14.5-11.1,25.1-25.6,25.1c-13.8,0-25.1-11.4-25.2-25.2
		C419.9,562.2,432.3,550.1,445.5,551.2"/>
	<path class="st7" d="M313.6,341.3c10.3-1.2,21.4,7.6,21.4,20.9c0,12-8.1,21.3-21.5,21.5c-12.6,0.2-21.2-10.7-21.1-21.8
		C292.4,352.1,301.5,339.8,313.6,341.3"/>
	<path class="st7" d="M358.5,395.6c0-10.6,8.6-19.1,19.2-19.1c10.1,0,19,9,19,19.2c0,10.1-9,19.1-19.1,19.1
		C367.1,414.8,358.5,406.2,358.5,395.6"/>
	<path class="st7" d="M429.8,391.5c-7.8-0.1-13.7-6.1-13.6-13.9c0.1-8.6,6.5-13.6,13.5-13.6c8.2,0,13.8,4.9,13.9,13.5
		C443.9,386.6,436.7,391.9,429.8,391.5"/>
	<path class="st33" d="M680.3,370.8c-2.4-1.2-3.7-2.9-2.3-5.7C677.8,367.4,679,369.1,680.3,370.8"/>
	<path class="st33" d="M342.8,809.2c0-1.1,0.1-2.2,1.3-3.2c0.3,3,1,5.6,4.6,6.7C345.1,813.4,344.4,810.5,342.8,809.2
		C342.8,809.2,342.8,809.2,342.8,809.2"/>
	<path class="st34" d="M634.5,464.2c1,0.4,1.5,1.2,1.5,2.3v2.9c-0.8-1.9-1.8-3.6-3-5.1C633.5,463.9,634,463.8,634.5,464.2"/>
	<path class="st35" d="M624.1,468c1,2.6,1.9,4.5,3.5,5.8C625.1,473.1,624,471.4,624.1,468"/>
	<path class="st36" d="M634.5,464.2c-0.5,0-1,0-1.5,0c-1.5-0.4-3-0.7-4.7-1.1c2.3-1.1,4.2,0.4,6.3,0.4
		C634.5,463.8,634.5,464,634.5,464.2"/>
	<path class="st37" d="M399.3,480.1c0.4,1.9,0.8,3.8,2,5.4C399.1,484.4,398.9,482.4,399.3,480.1"/>
	<path class="st38" d="M385.5,608.2c2.7-2.1,5.3-1.6,7.6,0.5c2.3,2.1,3.8,4.5,2.1,7.8c-1.1-0.8-0.7-2.3-1.2-3.4
		c-1.1-2.6-2.7-4.3-5.8-4.1C387.3,609,386.2,609.2,385.5,608.2"/>
	<path class="st7" d="M280.6,408.8c6.9,0,11.6,4.8,11.5,11.8c-0.1,5.8-5.3,10.7-11.1,10.7c-6.2,0-11.6-5.2-11.7-11.2
		C269.3,413.8,274.3,408.8,280.6,408.8"/>
	<path class="st7" d="M659.2,573.1c0,6.4-4.7,11-11,11.1c-7.2,0.1-11.3-5.4-11.4-11.2c-0.2-6.6,4.9-11.4,11.7-11.3
		C654.7,561.8,659.3,566.6,659.2,573.1"/>
	<path class="st7" d="M386.3,445.1c0-6.7,4.1-10.8,10.9-10.9c6.7,0,11.7,4.6,11.6,10.9c0,6.1-5.3,11.6-11.3,11.6
		C390.7,456.7,386.3,452.1,386.3,445.1"/>
	<path class="st7" d="M694,496.5c7.3-0.7,11.5,5.7,11.6,11c0.1,6.2-5.3,11.5-11.4,11.5c-6.4,0-11.9-5.3-11.6-11.7
		C683,501.1,688.1,495.7,694,496.5"/>
	<path class="st7" d="M778,408.8c6.5,0,11,4.7,11,11.5c0,6.5-4.8,11.1-11.5,11c-6.7-0.1-11.1-4.9-11-11.9
		C766.5,413.2,771.4,408.7,778,408.8"/>
	<path class="st7" d="M370.5,732.7c-6.6,0-11.2-4.6-11.2-11.2c0-6.6,4.6-11.3,11.2-11.3c6.7,0,11.3,4.7,11.3,11.7
		C381.8,728.1,377,732.7,370.5,732.7"/>
	<path class="st7" d="M522,744.7c-2,5.9-7,8.4-12.6,6.4c-5.2-1.9-7.8-7.7-5.8-13.1c1.8-5,7.7-7.6,12.9-5.7
		C521.5,734.1,523.9,739.5,522,744.7c-0.8-1.7-0.2-3.6-1.1-5.4c-2.1-4.1-5.1-6.2-9.8-5.8c-0.5,0,0.3,0.7,0,0.3
		c-0.1-0.1,0-0.2,0.3-0.2c5.3-0.3,9.6,3.3,10.2,8.6C521.7,743.1,521.3,744,522,744.7"/>
	<path class="st7" d="M732,375.8c-6.1,0-9.4-3.9-9.9-10.2c-0.4-5.3,4.6-10.1,10.2-10.1c5.2,0,10.2,5.1,10.2,10.5
		C742.5,371.7,738.1,375.8,732,375.8"/>
	<path class="st7" d="M348.8,561.5c0-5.8,4-10.2,9.6-10.2c5.4-0.1,10.2,4.3,10.2,9.4c0.1,6.1-4.2,10.7-10,10.8
		C353.1,571.6,348.8,567.2,348.8,561.5"/>
	<path class="st7" d="M697.9,435c-5.9,0-10.2-4.2-10.1-9.9c0-5.5,4.3-9.6,10.1-9.6c5.9,0,10.3,4.2,10.2,9.9
		C707.8,430.7,703.2,435.8,697.9,435"/>
	<path class="st7" d="M537.7,637.5c2,1,2,0.9,1.8,2.9c-0.1,0.5,0.2,1.2,0.6,1.7c1.7,2.5,1.8,5-0.9,6.8c-2.7,1.9-5.6,1.9-8.3,0
		c-2.6-2-3.8-4.6-2.4-7.9c0.7-1.7,1.8-3.3,4-3.5c0.2,0,0.3,0,0.5,0c1.5-0.1,2.9,0.1,4.4,0.2C537.5,637.6,537.6,637.5,537.7,637.5"/>
	<path class="st7" d="M532.5,637.5c1.8-1.2,3.5-1.2,5.2,0l0,0C536,638.1,534.2,638,532.5,637.5L532.5,637.5z"/>
	<path class="st7" d="M697.5,557.2c1.3,0.5,3.6,0.4,1.8,3c-0.2,0.3,0.3,1.1,0.5,1.7c1.4,2.7,1.8,5.2-1.2,7.1
		c-2.6,1.7-6.3,1.3-8.6-0.9c-2.4-2.4-3-5.1-1.3-8.1C690.7,556.4,693.2,555.7,697.5,557.2c-0.8,0.8-1.7,0.3-2,0.3
		C695.7,557.4,696.7,558.2,697.5,557.2"/>
	<path class="st7" d="M323.3,411.8c-2.3,3-5.3,2.8-8.3,1.6c-3.4-1.3-4.2-4.3-3.6-7.6c0.5-2.8,1.8-5.1,5.2-5.3
		C323.6,401.8,325.3,404.7,323.3,411.8"/>
	<path class="st39" d="M323.3,411.8c1.1-5.8-1.4-9.4-6.7-11.2c3.3-1.6,5.5,0.2,7.2,2.5C325.9,405.9,325.7,409,323.3,411.8"/>
	<path class="st7" d="M501,364.5c-3.1,3.8-6.7,4.9-10,2.9c-2.7-1.6-4.1-6.1-2.6-8.9c0.9-1.8,2.1-3.4,4.4-3.7
		C499,355.3,501,357.7,501,364.5"/>
	<path class="st21" d="M501,364.5c-1.4-1.2-0.5-3-1.1-4.5c-1.3-3.4-4.6-3.8-7.2-5.2c2-1.9,4,0.3,6,0l0,0
		C501.2,357.6,503.1,360.6,501,364.5"/>
	<path class="st7" d="M419.3,544.5c-1.8,4.1-4.1,5.4-8.1,4.5c-2.9-0.6-5.4-3.6-5.4-6.7c0-3.3,2.4-6.1,6-6.8
		C416.3,536.8,419.6,539.1,419.3,544.5"/>
	<path class="st39" d="M419.3,544.5c-1.5-3.5-2.1-7.9-7.5-7.6c0-0.5,0-0.9,0-1.4C418,535.5,421.2,539.3,419.3,544.5"/>
	<path class="st7" d="M697.5,717c-2.9,3.6-5.6,4.7-8.9,3.3c-2.7-1.2-4.6-3.2-4.5-6.3c0.1-3.4,1.7-5.9,5.2-6.8
		C695.4,707.8,697.4,710.1,697.5,717"/>
	<path class="st40" d="M697.5,717c-0.2-0.3-0.6-0.6-0.6-0.9c0.2-5.3-3.5-7.3-7.6-8.9c2-1.9,4,0.3,6,0c0.5,1,1.2,1.8,2.2,2.3
		C698.1,712,698.9,714.5,697.5,717"/>
	<path class="st7" d="M712.5,752.9c-2,3.4-5.3,3.6-8.4,2.7c-2.5-0.7-4.4-2.6-4.3-5.7c0.1-2.9,0.2-5.8,3.8-6.7
		C711,742.9,712.8,744.9,712.5,752.9"/>
	<path class="st41" d="M712.5,752.9c-0.2-0.5-0.6-1.1-0.7-1.6c-0.6-6.1-1.1-6.6-7.1-7.5c-0.4-0.1-0.8-0.5-1.2-0.7
		c2-2.1,4.4-0.9,6.7-0.7c2.5,2.8,4.8,5.6,3,9.7L712.5,752.9z"/>
	<path class="st7" d="M345,770.9c0,0.5,0,1,0,1.5c-0.7,0.3-1.4,0.5-2,0.9c-4.1,2.4-8,1.4-10.1-2.5c-2-3.8-0.5-7.7,3.8-9.6
		c3,1.1,6.7,1.4,7.4,5.5C344.5,768.1,343.7,769.8,345,770.9"/>
	<path class="st7" d="M722.2,468c-0.8,0.7-1.5,1.5-2.3,2.2c-6.4,0-9.6-2.1-9.7-6.7c-0.1-3.3,1.1-5.8,4.5-6.8c0.5,0.7,1.3,0.6,2,0.8
		C721.6,458.4,722.7,460.6,722.2,468"/>
	<path class="st42" d="M495,800.9c0.4-2.5,1.4-4.7,3-6.7c2.2-0.4,4.5-1.6,6.7,0c-0.8,0.8-1.8,0.1-2.7,0.5c4.9,0.5,6.4,2.3,6.5,8
		c0,0.2,0,0.4,0,0.5c-0.7,3.3-3.3,4.3-6.1,4.4c-2.9,0.1-5.1-1.7-6.5-4.2C495.5,802.6,495.3,801.7,495,800.9"/>
	<path class="st42" d="M507.7,796.4c0.3,0,0.5,0,0.8,0c1,2.2,1.3,4.5,0,6.7l0,0C508.1,801,507.8,798.7,507.7,796.4"/>
	<path class="st43" d="M507.7,796.4c0.8,2.2,0.9,4.5,0.8,6.8c-0.5-0.4-0.7-1-0.8-1.6c-0.6-4.8-1.7-6-6.6-7.4c1.2,0,2.4,0,3.7,0
		C505.8,794.9,506.8,795.7,507.7,796.4"/>
	<path class="st44" d="M664,343.7c10.8-29.1,5.2-55.3-16.7-76.4c-21.6-20.9-47.3-25-75.7-11.1c17.3-14.3,51.7-18.6,75.7,0.3
		C677.3,279.8,679.3,317.8,664,343.7"/>
	<path class="st44" d="M560.6,286.4c-2.4,4.8-4.4,9.6-5.1,15c-0.8,6.1,0.1,11.9,2.2,17.5c6,15.8,16.8,27.5,31.5,35.6
		c7.3,4,15.3,6.4,24,4.9c1.1-0.2,2.2,0,3.3,0.2c-7,2.9-14.1,3.3-21.4,1.9c-11.1-2.2-21.2-6.6-29.1-14.9
		c-9.7-10.1-15.9-21.9-15.4-36.4C550.9,301.1,554.2,293.1,560.6,286.4"/>
	<path class="st44" d="M572.1,752.6c23.8-17,56.9-14.9,77.3,2.7c28.6,24.6,29.1,61.1,14.6,85.5c10.8-28.7,5.3-54.7-15.9-75.7
		C626.4,743.8,600.3,739.2,572.1,752.6"/>
	<path class="st44" d="M616.2,856.4c-8.4,3.9-17.2,3.4-26,1.1c-17.7-4.7-30.1-15.9-36.7-32.8c-5.9-15.2-3.6-30.1,7.1-41.5
		c-0.1,2.5-1.9,3.9-2.7,5.8c-4.6,10.7-3.5,21.2,1.5,31.3c6.9,14.2,17.3,25.2,31.5,32.3c7.1,3.6,14.6,5.5,22.7,3.9
		C614.5,856.3,615.4,856.4,616.2,856.4"/>
	<path class="st45" d="M838.4,687.7c2.2-7.2,3.8-14.4,3.8-21.9c0-14.3-5.3-26.7-13.8-37.9c-9-11.8-21-19.1-35.3-22.3
		c-14.4-3.2-28.1-0.4-41,6.9c1.4-2.3,4.6-4.7,10.6-7.3c17.2-7.3,34.6-8.1,51.1,1c18,10,29,25.2,31.4,46.3
		c1.4,12.7-1.3,24.4-6.1,35.9C838.5,688.6,838.1,688.5,838.4,687.7"/>
	<path class="st45" d="M797.3,703.9c-5.1,2-10.2,3.7-15.7,3.2c-9.3-0.8-18.1-3.2-25.9-8.6c-12.2-8.6-19.7-20-20.6-35.1
		c-0.5-8.3,2.3-15.9,7.6-22.4c-1,4-2.9,7.6-3.4,11.8c-0.9,7.2,0.6,13.8,4,20.1c7.5,13.9,18.4,24,33.3,29.6
		C783.3,704.9,790.3,704.6,797.3,703.9"/>
	<path class="st46" d="M838.4,687.7c0.2,0.2,0.5,0.5,0.7,0.7c-0.4,0.7-0.8,1.5-1.2,2.2c-0.1,0.2-0.4,0.2-0.8,0.4
		C837.4,689.7,837.5,688.6,838.4,687.7"/>
	<path class="st45" d="M342.8,684.7c1.1-5.6,2.2-11.1,2.4-16.9c0.5-15.1-4.5-28-13.6-39.8c-10.3-13.3-24-20.9-40.4-23.3
		c-10.1-1.5-20.1,0.3-29.5,4.7c-2.2,1-4.4,2.2-6.7,2.9c7.4-6,15.8-9.9,25.2-11.5c15.8-2.7,30.6-0.1,43.6,9.6
		c13.6,10.1,22,23.3,24.4,40.3c1.7,12.1-0.3,23.5-4.6,34.7C342.8,685.6,342.5,685.5,342.8,684.7"/>
	<path class="st45" d="M299.1,704.2c-15.8,7.1-40.5,0.3-54.1-19.5c-8.6-12.6-8.8-33.2,0.2-42.4c-1,4.1-2.6,7.7-2.9,11.7
		c-0.9,10.8,3.6,19.7,9.8,27.9c6.9,9.1,15.8,15.8,26.4,20.1C284.9,704.7,291.6,704.1,299.1,704.2"/>
	<path class="st47" d="M342.8,684.7c0.2,0.2,0.5,0.5,0.7,0.7c-0.5,1.1-1.1,2.2-2,3.9C341.3,687.1,342,685.9,342.8,684.7"/>
	<path class="st48" d="M608.4,577.6c12.8-24,10.5-47.2-5.6-68.2c-16.5-21.6-38.9-27.6-65.6-19.5c20.3-11.2,50.7-10.1,70.6,14.1
		C628.8,529.7,621.5,562.3,608.4,577.6"/>
	<path class="st48" d="M523.9,515.2c-2.2,3.3-4.3,6.6-5.7,10.3c-3.9,10.3-1.7,20.2,2.8,29.5c5.8,12,14,22,26.3,28
		c5.2,2.6,10.8,3.7,17.1,3.5c-14.6,5.1-37.6-4.8-48-24.5C507.8,545.5,510.5,526.2,523.9,515.2"/>
	<path class="st10" d="M565.8,543.7c-6.2-0.1-11.7-5.7-11.5-11.9c0.2-5.9,5.6-11.4,11.3-11.3c6.5,0,11.9,5.5,11.9,11.9
		C577.5,538.3,571.8,543.8,565.8,543.7"/>
	<path class="st44" d="M772.3,454.3c14.1-10.3,40.9-10.6,56.9,4.6c18.7,17.9,19.1,44.6,8.6,61.6c7.5-20.6,4.5-39.4-10.8-55.2
		C811.6,449.6,793.1,445.6,772.3,454.3"/>
	<path class="st44" d="M761.4,479.2c-5.3,11.2-3.8,20.9,2.1,30.3c6.6,10.6,15.3,18.5,27.7,21.9c3.7,1,7.5,0.1,11.2,0.5
		c-10.5,5.3-30.3,0.3-41-14.6C752.7,505,752.3,487.5,761.4,479.2"/>
	<path class="st44" d="M274.4,454.9c16.2-12,42.4-9.9,56.5,2.9c19.5,17.7,20.6,42.9,11.3,59.8c6.1-20.7,1.9-38.9-13.7-53.7
		C312.6,449,294.4,445.9,274.4,454.9"/>
	<path class="st44" d="M305.6,531.9c-11.8,5.2-30.4-0.2-40.6-14.2c-9.7-13.4-9.9-29.2-0.2-39.2c-1.7,4.3-3.5,7.9-3.7,11.9
		c-0.5,9.2,3.3,16.9,8.6,23.7c6.1,7.7,13.5,13.9,23.2,16.9C296.9,532.3,301,531.3,305.6,531.9"/>
	<path class="st48" d="M460.1,817.6c8.6-16.4,7.6-32.2-3.4-46.9c-11.2-14.9-26.3-19.4-45.2-13.8c14.2-7.9,35.1-6.1,47.6,8.6
		C471.7,780.2,472.4,801.2,460.1,817.6"/>
	<path class="st48" d="M401.4,775.3c-10.7,20,4.8,45.3,28.3,47.6c-7.7,3.8-23-2.8-29.8-12.6C390.7,797,392.9,782.7,401.4,775.3"/>
	<path class="st44" d="M520.8,456.1c8.4-30.6-19.8-60.4-50.6-49.1c11.8-8.1,32.6-6.5,44.8,7.1C525.7,425.8,527.8,445,520.8,456.1"/>
	<path class="st44" d="M489.7,469c-10.7,3.2-23.5-2.5-30.9-13.4c-5.8-8.6-5.9-19.4,0-26.8c-4.6,10.6-0.2,19.3,5.9,27.1
		C471,463.8,479.2,468.7,489.7,469"/>
	<path class="st48" d="M644.9,614.1c12.4-6.1,30.7-1.4,39.4,9.1c12.3,14.7,10.4,34.8,1.7,46.2c6.3-15.1,5.7-28.8-3.5-41.1
		C673.1,615.8,660.4,611,644.9,614.1"/>
	<path class="st48" d="M656.2,676c-13.3,1.3-24.8-6.9-29.7-19.4c-3-7.6-1.2-18.3,4.2-22.8c-4.3,10-2.4,18.8,3.2,27.1
		C639.2,668.9,646.1,674.8,656.2,676"/>
	<path class="st49" d="M473.6,697.4c6.2-31.4-25.5-54-49.8-40c8.8-7.7,24.9-9.7,37.4-1.3C475.3,665.6,479.7,684.3,473.6,697.4"/>
	<path class="st49" d="M447,710.4c-8.3,3.5-21.2-0.3-27.1-7.6c-7.3-9-8.7-18.2-3.4-26.6c-2.8,10.4,1,17.9,7.2,24.4
		C429.9,707.1,437.4,711.4,447,710.4"/>
	<path class="st50" d="M780.8,785.3c3-9.1,1.2-17.4-4.7-24.4c-5.9-6.9-13.6-10.1-23-8c9.2-4.1,18.6-1.5,25.9,7
		C784.6,766.4,785.5,777.8,780.8,785.3"/>
	<path class="st50" d="M760.4,793c-6.8,0.9-14.4-3.3-17.9-9.3c-3.6-6.2-3.5-12.4,0.7-17.4c-3.2,6.2-0.6,11.6,2.4,16.7
		C748.7,788.5,753.6,791.7,760.4,793"/>
	<path class="st50" d="M283.7,786.1c2.9-9,1.8-17.4-4.1-24.6c-5.8-7.1-13.4-10.5-22.9-8.6c6.5-4.3,17.7-1.4,23.2,4.4
		C287.6,765.5,289.7,775.6,283.7,786.1"/>
	<path class="st50" d="M559.6,659.9c7.2-3,17.4-1.4,24.2,6.6c5.9,7,7.5,17.2,2.9,25c1.9-8.5,0.5-16.4-4.9-23.1
		C576.1,661.7,568.6,658.7,559.6,659.9"/>
	<path class="st50" d="M565.4,700.1c-7.4,0.9-14.2-2.8-18.1-9.8c-3.2-5.8-2.8-12,1.4-17.1c-2.6,6.2-1.3,12,2.2,17.3
		C554.3,695.6,558.7,699.5,565.4,700.1"/>
	<path class="st51" d="M572.3,402.1c15.1-5.5,28.6,4.1,31.2,18.2c0.8,4.2-0.1,8-1.7,11.8c0.2-3.3,0.4-6.5,0-9.9
		c-1.5-10.6-13.2-21.8-26.1-19.4c-0.8,0.2-1.7,0.1-2.6,0.1C572.2,403.1,572.1,402.7,572.3,402.1"/>
	<path class="st52" d="M562,419.4c1.2,13.5,8,20.8,21.7,22c-8,1.7-13.8-0.3-18.5-5.6C561,431,559.5,425.5,562,419.4"/>
	<path class="st53" d="M572.3,402.1c0.2,0.2,0.5,0.5,0.7,0.7c-0.9,0.9-2,1.1-3.3,1.3C570.2,402.6,571.4,402.6,572.3,402.1"/>
	<path class="st51" d="M437.3,555.8c4.1-0.8,8.1-1.9,12.5-0.9c8.6,1.9,16.2,9.7,17.6,18.3c0.7,4.3,0.3,8.3-1.3,12.4
		c1-6.9,0-13.3-4.2-19c-4.3-5.8-9.7-9.5-17-10.1c-1.2-0.6-2.5-0.6-3.7,0c-0.7,0-1.5,0-2.2,0C437.9,556.9,437.2,557.1,437.3,555.8"/>
	<path class="st52" d="M426.6,572.5c0.1,14.2,7.2,21.5,21.1,22.5c-4.6,2.5-11.9,0.9-16.5-3.6C424.6,584.9,423.1,579.4,426.6,572.5"
		/>
	<path class="st54" d="M437.3,555.8c0.3,0.6,0.9,0.7,1.5,0.7c-1.6,1.1-3.7,0.9-5.3,2C434.3,556.9,435.9,556.5,437.3,555.8"/>
	<path class="st54" d="M441,556.5c1.2-1.1,2.5-1.1,3.7,0C443.5,556.5,442.3,556.5,441,556.5"/>
	<path class="st55" d="M306.4,345.6c7.1-3.7,15.3-0.8,19.8,3.4c5.4,5.1,7.9,14.8,4.7,20.7C329.4,350.9,324.6,346.1,306.4,345.6"/>
	<path class="st55" d="M297.5,358.8c1.1,11.9,5.9,17.7,16.4,19.7c-6.2,0.9-10.9-1-14.5-5.5C296.1,368.9,295.1,364.3,297.5,358.8"/>
	<path class="st50" d="M373.7,379.9c7-1.5,13,0.5,17.2,6.3c3.6,5,4.7,10.7,1.7,17.1C391.2,386,387,380.9,373.7,379.9"/>
	<path class="st56" d="M363.8,390.8c-2,7.7,3.1,16.4,11.2,19.3c-4.6-0.2-8.4-2.3-10.9-6.1C361.5,400.1,360.2,395.8,363.8,390.8"/>
	<path class="st57" d="M426.6,366.3c11.1-0.9,16.8,5.7,14.7,16.2C441.9,372.7,436.5,368.1,426.6,366.3"/>
	<path class="st58" d="M429.7,388.2c-6.7,0.6-11.3-3.8-10.9-10.9C421,382.9,423.5,387.5,429.7,388.2"/>
	<path class="st59" d="M277.5,410.8c8.4-1.5,13.9,3.4,13.3,11.9c-1.3-3.4-1.8-6.8-4.3-9.1C284,411.4,280.8,410.9,277.5,410.8"/>
	<path class="st60" d="M271.9,418.3c0.6,5.7,3.7,8.5,7.9,10.3C274.6,429,271.2,425.1,271.9,418.3"/>
	<path class="st61" d="M658.1,575.2c-4.1-9.1-5.5-10.4-12.3-11.6C653.2,562.4,658.6,567.2,658.1,575.2"/>
	<path class="st60" d="M645.2,581c-4.7-0.9-6.4-3.5-6-9.7C640,575.8,641.4,578.8,645.2,581"/>
	<path class="st62" d="M394.7,436.1c8.9-0.9,13.4,3.7,12.3,12.4C405.6,439.1,401.5,436.7,394.7,436.1"/>
	<path class="st59" d="M388.2,445.5c1.3,4.2,3.9,6.9,8.5,8.5C391.3,454,387.9,450.4,388.2,445.5"/>
	<path class="st63" d="M691.6,498.4c8.3-1,13.3,3.7,12.3,11.6C701.9,501.7,699.2,499.2,691.6,498.4"/>
	<path class="st59" d="M690.8,515.7c-4.5-1.3-6.1-3.7-5.7-8.5C686.3,510.9,688.1,513.7,690.8,515.7"/>
	<path class="st60" d="M775.4,410.7c8.7-1.1,13.5,4.3,11.5,13c0-3.3-0.2-6.6-2.6-9.2C781.9,411.9,778.8,411,775.4,410.7"/>
	<path class="st64" d="M769.1,418.5c0.9,6.1,1.6,7,7.9,10.2C770.7,428.6,767,423.8,769.1,418.5"/>
	<path class="st65" d="M379.9,725.1c-0.9-8.4-3.8-11.7-11.5-12.9C376.5,710.6,381,715.7,379.9,725.1"/>
	<path class="st61" d="M362.1,719.6c0.1,6.6,3.4,9.1,8.2,10.7c-3.7,0.3-6.1-1-7.8-3.7C361.1,724.4,360.2,722.3,362.1,719.6"/>
	<path class="st66" d="M522,744.7c-1.3-0.9-0.6-2.3-1-3.4c-1.6-4.9-4.8-6.9-11.6-7.2c5-3.2,12,0.9,12.5,7.3
		C522.1,742.5,522,743.6,522,744.7L522,744.7"/>
	<path class="st36" d="M505.2,740.9c-0.1,3.7,2.4,5.8,4.9,7.9C506,748.5,504.4,746,505.2,740.9"/>
	<path class="st67" d="M740.6,369c-1.4-8.5-3.2-10.4-10.8-11.5C737.3,356.1,741.8,361,740.6,369"/>
	<path class="st61" d="M730.3,373.4c-4.8-0.7-6.7-3.4-6.3-8.3c0.7,1.6,1.4,3.1,2,4.6C726.7,371.5,728.5,372,730.3,373.4"/>
	<path class="st68" d="M367.2,564c-1.1-7.3-4.1-10.7-11.4-10.7C362.2,550.7,369.4,556.9,367.2,564"/>
	<path class="st54" d="M358.2,568.9c-5.3,0-7.8-2.6-7.7-9C351.6,565,354.1,567.5,358.2,568.9"/>
	<path class="st36" d="M706.1,428.1c-0.8-6.9-2.2-10.6-11.8-10.5c2.6-2.1,5.2-1.4,7.6,0C705.7,419.7,706.7,422.4,706.1,428.1"/>
	<path class="st69" d="M689.6,425c1.9,4.1,4.2,6.8,8.5,8.1C692.7,433.2,689.9,430.6,689.6,425"/>
	<path class="st70" d="M532.5,637.5c1.8,0,3.5,0,5.3,0c0,0.6,0.5,1.9,0.1,1.6C536.2,637.7,534,639,532.5,637.5"/>
	<path class="st71" d="M530,644.4c0.4,0.9,0.6,1.5,0.8,2c0,0-0.4,0.3-0.4,0.3C529.6,646.3,529.3,645.7,530,644.4"/>
	<path class="st72" d="M693,568.1c-2.8-0.8-2.8-0.8-3.7-3.8C690.7,565.8,691.7,567.1,693,568.1"/>
	<path class="st70" d="M697.5,557.2c0,0.5,0.8,1.3-0.4,1.3c-1.3-0.1-2.6-0.5-4.1-0.8C694.5,556.8,696,557.4,697.5,557.2L697.5,557.2
		"/>
	<path class="st14" d="M312.6,406.5c0.2,1,0.5,2,0.8,3.2C311.3,409.1,312.5,407.7,312.6,406.5"/>
	<path class="st73" d="M489.4,360.8c0.2,1.8,1.3,3.2,2.7,5.6C489.3,364.7,488.8,363,489.4,360.8"/>
	<path class="st74" d="M685.9,712.4c0.6,3.8,0.6,3.8,3.5,6.3C685.7,718.2,684.2,715.6,685.9,712.4"/>
	<path class="st75" d="M336.1,772.1c-2.2-0.9-3.2-2.6-2.8-4.9C334,768.9,335.2,770.4,336.1,772.1"/>
	<path class="st74" d="M711.9,461.9c0.1,2.2,0.8,4.1,2.1,5.7C711.8,466.3,710.2,464.7,711.9,461.9"/>
	<path class="st37" d="M496.9,799.5c-0.2,2.3,1.4,3.9,2.8,5.6C497,804.1,496.1,802.3,496.9,799.5"/>
	<path class="st7" d="M565.7,542.2c-5.9,0-10-4.2-10-10.2c0-5.8,4.2-10,9.8-10c6,0,10.6,4.5,10.5,10.3
		C575.9,538.3,571.8,542.3,565.7,542.2"/>
	<path class="st76" d="M557.6,531.8c0.8,3.7,3.3,5.9,6.3,7.7C559.8,539.9,557.2,536.8,557.6,531.8"/>
</g>
<g>
	<defs>
		<rect id="SVGID_3_" width="1080" height="1081"/>
	</defs>
	<clipPath id="SVGID_4_">
		<use xlink:href="#SVGID_3_"  style="overflow:visible;"/>
	</clipPath>
	<path class="st77" d="M373.9,411.8c6.2,0.2,12.4-1.2,18.7-0.7c12.1,0.8,24.1,1.8,34.9,8.2c10.6,6.2,15.7,17.5,13.1,28.8
		c-1.4,6-3.8,7.7-10.3,8c-8.8,0.4-17.4-1.1-26.1-1.7c-12.7-0.9-25.3-1.8-38-0.7c-13.8,1.2-27.3,3.6-40.6,7.7
		c-6.9,2.2-13.4,5.3-20,8.3c-16.2,1.2-32.3,3.5-48.5,4.9c-1.4,0.1-2.7,0.3-4-0.4c-1.6-1-0.7-2.1-0.1-3.1c1.4-2.2,2.9-4.3,4.5-6.3
		c4.7-6.2,10.2-11.7,16.2-16.6c4.9-4.3,10.5-7.7,15.8-11.5c6.4-4.3,13.5-7.2,20.5-10.5c5.1-2.6,10.6-4,15.8-6.1
		c5.4-1.9,11.1-2.9,16.7-4.5c5.3-1,10.6-2.3,16-2.7C363.7,411.8,368.7,410.6,373.9,411.8"/>
	<path class="st78" d="M205.2,582c3.4,5,6.7,10.2,10.4,15.1c16.3,21.3,38,34.5,63.8,41.2c20.6,5.4,41.6,6.3,62.7,4.6
		c5.6-0.5,11.1-1.1,16.7-1.4c-7.3,2.4-14.9,3.8-22.4,5c-15,2.5-30,2.7-45.1,2.2c-38.4-1.3-70.4-16.1-95.1-45.9
		c-2.5-3.1-5.2-6-7.3-9.5c-0.8-1.3-0.1-2.2,0.9-2.8c4.2-3.1,8.8-5.7,13.2-8.5C203.5,581.5,204.4,581.3,205.2,582"/>
	<path class="st79" d="M258.4,465c-2,2.8-4,5.5-6,8.3c0.1,0.2,0.3,0.5,0.2,0.7c-2.8,5.6-5.6,11.1-8.9,16.5c-0.2,0.3-0.7,0.2-1,0.1
		c-1.7-2.1-1.2-4.5-0.9-6.8c1.6-12.5,2.4-25,4-37.5c0.2-1.7,0.6-3.6-1.9-4c-3.7-1.5-7.4-0.2-11,0.2c-5.8,0.6-11.6,1.1-17.4,1.8
		c-1.7,0.2-3.5,0.5-4.9-0.9c3-6.2,6.5-12.1,10.9-17.4c5.3-1.7,10.8-1.7,16.2-2.4c8.4-1.1,16.9-1.7,25.3-2.7c1.8-0.2,3.7-0.7,5.2,1
		c0.5,2.2-1.3,2.8-2.5,3.6c-2.1,1.3-3,3.1-3.2,5.5c-1.1,9.4-2.9,18.7-2.9,28.2C259.4,461.2,258.3,463,258.4,465"/>
	<path class="st80" d="M243.4,490.5c2.2-6.2,5.6-11.7,9-17.2c5.2,0.9,10.3-0.5,15.4-0.9c5.8-0.4,11.5-1.8,17.3-2
		c5.7-0.1,11.3-1.9,17-1.6c1.2,0.1,2.5-0.4,3.5,0.8c-7.3,4.9-14.6,9.7-20.5,16.4c-3,3.4-5.8,7-8.7,10.5c-2.2,1.5-4.7,1.4-7.2,1.6
		c-8.6,0.8-17.2,1.7-25.8,2.6c-0.9,0.1-1.7,0.2-2.6-0.1C239.3,497.8,240.4,493.4,243.4,490.5"/>
	<path class="st81" d="M406.4,458.1c16.3,0.3,30.8,2.9,43.2,12.4c5.5,4.2,8.2,10.3,6.5,17.5c-1.2,5.2-5.6,8.5-10.8,8.5
		c-2.2,0-4.5,0-6.7-0.4c-7.7-1.2-12.3-5.9-13.5-13.5c-1.6-10.6-7.5-17.9-16.6-23C408.1,459.5,407.7,459.1,406.4,458.1"/>
	<path class="st82" d="M268.2,422.3c-3.1-1.9-6.1,0.1-9.1,0.3c-6.8,0.4-13.5,1.4-20.3,2c-5.8,0.5-11.5,2.2-17.4,1.4
		c3.9-5.8,8.4-11.1,13.8-15.6c1-0.6,2-1,3.1-1.1c19.5-1.5,38.9-4,58.3-6c1.2-0.1,2.5-0.3,3.7,0.3c0.3,0.7,0.7,1.4,1,2.1
		c-2.2,2.8-5.7,3.2-8.6,4.7c-5.8,2.6-11.3,5.6-16.8,8.7C273.2,419.8,271.3,422.6,268.2,422.3"/>
	<path class="st83" d="M165.5,552.7c-4.6-8.7-8.3-17.9-12.2-26.9c7.3-4.9,14.7-9.9,22.3-14.4c1-0.6,2-1.6,3.4-0.6
		c4.2,8.3,6.3,17.4,8.9,26.3c-4,4.1-9.3,6.4-13.9,9.8C171.2,548.8,168.2,550.6,165.5,552.7"/>
	<path class="st84" d="M300.3,403.5c-5.1,1.5-10.5,1.5-15.7,2.2c-8.7,1.1-17.4,2.1-26.1,2.8c-7.8,0.6-15.5,2.2-23.3,1.7
		c10.5-10.3,22.9-16.8,37.5-18.8c4.4-0.6,8.6-0.6,12.9,0C292.4,392.4,298.5,397.3,300.3,403.5"/>
	<path class="st85" d="M165.5,552.7c0-0.9,0.4-1.8,1.2-2.2c7.2-4.3,13.7-9.7,21.2-13.5c2.8,8.7,5.7,17.3,8.5,26
		c0.2,0.5,0.1,1.1-0.2,1.3c-5.9,4.3-11.8,8.9-18.6,11.7C172.8,568.6,168.8,560.9,165.5,552.7"/>
	<path class="st86" d="M240.4,500.3c5.2-1.6,10.7-1.4,16.1-2.1c6.6-0.9,13.3-1.1,19.9-1.7c-4.2,6.6-7.6,13.7-10.5,21
		c-1.4,1.4-3.2,2.1-5,2.1c-7.3,0.1-14.4,2.2-21.7,1.8c-1.1-0.1-2.2,0-3.2-0.7c-1.4-2-0.4-4.1-0.2-6.1c0.4-3.8,1.1-7.6,2.2-11.2
		C238.4,502.2,238.5,500.4,240.4,500.3"/>
	<path class="st87" d="M388.2,459.7c4.1-0.1,8,0.9,11.9,2.4c0.8,1.1,0.8,2.3,0.7,3.6c-1.4,12.5-2.5,24.9-4,37.4
		c-0.1,1.1-0.2,2.2-1.1,3.1c-4.3,0.2-8.7,0.8-12.8-1.2c-0.9-1.3-1.1-2.8-0.9-4.3c1.5-12.2,2.4-24.4,4.1-36.6
		C386,462.5,385.6,460.2,388.2,459.7"/>
	<path class="st88" d="M388.2,459.7c-2,3.7-1.7,7.9-2.2,11.8c-1.4,11.1-2.2,22.3-3.3,33.5c-4.2-1.5-8.5-3-12.7-4.6
		c-1.2-4.6,0.2-9.2,0.7-13.7c0.9-8.3,1.5-16.6,2.7-24.9c0.2-1.2,0.2-2.5,1.2-3.5C379.1,458.3,383.7,458.6,388.2,459.7"/>
	<path class="st89" d="M179,510.8c-7.5,3.4-13.7,8.7-20.7,12.8c-1.6,0.9-2.9,2.4-5,2.2c-3-5.3-5.9-10.5-8.9-15.8
		c1.2-2.1,3.4-2.7,5.2-4c4.7-3.2,9.5-6.2,14.2-9.4c1.5-1.1,3.1-2.6,5.3-1.6C174,499.3,177.4,504.5,179,510.8"/>
	<path class="st90" d="M374.5,458.4c-0.6,8.9-1.5,17.8-2.7,26.6c-0.6,3.8-0.7,7.6-1,11.5c-0.1,1.4-0.1,2.7-0.9,4
		c-4.5-1.1-8.9-2.1-13.4-3.2c-0.9-1.9-0.4-3.9-0.1-5.9c1.2-9,2-18,2.8-27.1c0.2-1.9,0.2-3.8,1.8-5.1
		C365.5,458.8,370,457.8,374.5,458.4"/>
	<path class="st91" d="M210.5,443.3c9.2-0.5,18.4-1.7,27.6-2.8c2.1-0.3,4.5-1.2,6.1,1.3c0.5,1.7-0.9,2.4-1.8,3.4
		c-3.6,4-7,8.2-9.9,12.8c-0.9,1.1-1.7,2.3-3.3,2.4c-5.6,0.5-11.1,0.7-16.7,1.6c-3.3,0.6-6.9,1.3-10.1-0.7
		C204.7,455.1,207.2,449,210.5,443.3"/>
	<path class="st92" d="M292.1,409.5c3.1-1.3,6.1-2.6,9.2-3.9c3.2-1,6.3-2,9.5-3c1.5,1.4,0.9,3.2,0.8,4.9c-0.6,6.4-1.7,12.8-1.5,19.3
		c-5.2,2.6-10.3,5.1-15.4,7.7c-1.6,0.8-3.2,1.8-4.8,2.8c-0.8-0.7-1.1-1.7-0.9-2.7C290.2,426.2,290,417.7,292.1,409.5"/>
	<path class="st93" d="M276.4,535.5c-1.8,7.6-4,15.1-3.8,23.1c0.2,9.8,2,19.3,5.2,28.5c0.3,0.9,1.2,1.7,0.4,3.1
		c-4.6-6.8-7.7-14-9.7-21.7c-5.6-21.6-2.6-41.9,9.4-60.8c2.2,2.5,1.2,5.5,0.9,8.2C278.1,522.5,277.6,529,276.4,535.5"/>
	<path class="st94" d="M304.9,623.2c5,1.7,10,3.6,15.1,5c10,2.7,20.2,4.4,30.7,5c6.6,0.3,13.1,0.6,19.7,0.6c3.1,0,6.1-1.1,9.2-0.7
		c1,0.1,1.9,0.2,0.6,1.4c-5.3,0.4-10.3,2.4-15.5,3c-7.2,1-14.5,1.9-21.8,1.6c-5-1.1-10.1,0-15.1-1c-2.5-0.5-5.1-0.7-7.7-1.2
		c-5.9-1.6-12-2.2-17.7-4.6c-2.5-1.3-5.2-2.2-7.7-3.3c-1.4-0.6-3.1-1-3.1-3.1c2.9-3.2,7-1.9,10.5-2.7
		C303.1,623,304.1,623.2,304.9,623.2"/>
	<path class="st95" d="M177.5,576c5.3-3.5,10.5-7,15.7-10.6c1.1-0.7,2.1-1.7,3.1-2.5c2.9,6.3,5.9,12.7,8.8,19
		c-5.7,2.7-10.8,6.4-16,9.9c-0.3,0.2-0.3,0.9-0.4,1.4C184.4,587.9,180.7,582.2,177.5,576"/>
	<path class="st96" d="M202.5,461.3c8.2,0.4,16.2-1.5,24.3-2.1c1.2-0.1,2.2,0.1,3.2,0.6c0.5,0.9,0.1,1.7-0.3,2.5
		c-2.4,4.1-4.3,8.4-6.5,12.6c-0.6,1.2-1.3,2.4-2.8,2.8c-6.1,0.6-12.1,1.2-18.2,1.8c-1.7,0.2-3.5,0.5-5-0.9
		C198.5,472.6,200.2,466.9,202.5,461.3"/>
	<path class="st97" d="M169.2,495c-6.7,2.9-12.1,7.8-18.4,11.4c-2.1,1.2-4.2,2.4-6.3,3.6c-1.6-1.7-3.2-3.4-4.8-5.1
		c-4.6-4.9-3.6-11.4,2.3-14.7C149.7,486,161.4,488.1,169.2,495"/>
	<path class="st98" d="M236,520.5c10-0.2,20-1.2,29.9-3c-1.3,5-2.5,10-3.8,15c-2.1,2.8-5.4,2.3-8.2,2.5c-3.8,0.2-7.6,0.7-11.4,1.2
		c-3.1,0.3-5.3,1.3-6.8,4c-0.6-0.2-1.1-0.7-1.2-1.4C233.8,532.6,233.5,526.4,236,520.5"/>
	<path class="st99" d="M310.1,426.8c-2.5-0.7-1.4-2.5-1.3-4c0.6-6.7,1.3-13.5,2-20.2c5.3-2.3,11-2.9,16.6-4.1c1,0.4,1.5,1.3,1.4,2.4
		c-0.5,6.4-0.9,12.8-2.4,19c-0.1,0.4-0.4,0.6-0.6,0.9C320.6,422.8,315.4,424.8,310.1,426.8"/>
	<path class="st100" d="M287.6,675c-7.6-0.7-14.7-3.3-21.8-6c-19-7.4-35.6-18.6-50.1-33c-0.1-1.3,0.6-1.3,1.5-0.8l0-0.1
		c10.8,7.5,20.7,16.3,33.1,21.2c7.2,2.9,14.6,5,22.1,6.4c4.2,0.9,8.5,1.6,12.8,2.3c1.4,0.2,3,0.4,4.1,1.6c0.5,2,0.2,4,0,5.9
		C289.2,673.7,289.3,675.1,287.6,675"/>
	<path class="st101" d="M383.5,693.8c-7.6,2.7-15.5,3.7-23.4,5.2c-1.4,0.3-2.9,0.4-4.4,0.6c-1-0.5-1.5-1.3-1.3-2.4
		c0.4-2.8,0-5.7,0.8-8.4c1.3-2.2,3.8-2.3,5.8-3.2c7.3-1.9,14.6-4.3,22-6c0.9-0.1,1.7,0,2.4,0.7C386.7,685.1,385.2,689.4,383.5,693.8
		"/>
	<path class="st102" d="M323.6,641.1c-29.6,0-57.5-6.1-82.4-23.2c-0.9-1.9,0.7-2.1,1.8-2.4c1.9-0.6,3.9-0.9,5.8-1.2
		c0.4,0,0.8,0,1.2,0.1c5.8,3,10.8,7.4,17,9.7c6.1,2.6,12.2,5.6,18.6,7.5c4.9,1.8,9.9,3.2,15,4.5c5.3,1.3,10.8,2.1,16.2,2.9
		c1.3,0.5,2.6,0.3,3.9,0.5C321.9,639.7,323.3,639.4,323.6,641.1"/>
	<path class="st103" d="M324.4,497.3c-4.5,1.3-9,2.5-13.6,3.8c-1.6-0.7-1.7-2.1-1.5-3.5c1-6.5,1.1-13.1,2.1-19.7
		c0.2-1.5,0.8-2.9,1.5-4.2c3.7-2.5,7.8-4.4,12.1-5.8c1.7,1,1.3,2.6,1,4c-0.7,5.1-0.7,10.2-1.6,15.2
		C323.8,490.6,323.8,494,324.4,497.3"/>
	<path class="st104" d="M260.6,546.7c0.2,5,0.5,10,0.7,15c-3,2-6.4,1.7-9.7,2c-3.9,0.4-7.8,1.6-11.8,0.7c-3.4-4.1-3.9-9-4.1-14.1
		c0.1-0.7,0.4-1.3,1-1.7c7.3-1.7,14.7-1.9,22.1-2.6C259.6,546,260.1,546.3,260.6,546.7"/>
	<path class="st105" d="M260.6,546.7c-8,0.8-15.9,2.2-23.9,2.3c-2.5-2.8-2.5-5.8-0.8-9c-0.6-3.5,0.9-4.1,4.3-4.7
		c7.2-1.4,14.7-0.4,21.8-2.8C261.6,537.3,261.1,542,260.6,546.7"/>
	<path class="st106" d="M361.1,459.1c-1,9.3-2,18.6-3,27.9c-0.4,3.4-1,6.8-1.5,10.2c-3.1,0.4-6-0.8-9-0.8c-1.4-4.2,0.3-8.3,0.6-12.4
		c0.5-6.7,1.1-13.3,2-19.9c0.2-1.2,0.2-2.5,1.2-3.4C354.5,459.6,357.8,459.4,361.1,459.1"/>
	<path class="st107" d="M395.5,506.1c0.4-9.2,1.8-18.3,2.7-27.4c0.5-5.6,1.1-11.1,1.8-16.6c3.2,0.9,6.5,1.8,8.9,4.4
		c-1.6,6.1-1.7,12.3-2.3,18.5c-0.7,6.1-1.7,12.1-2,18.2C401.9,505.2,398.8,506,395.5,506.1"/>
	<path class="st92" d="M193.3,506.3c-0.4-5.6,0.9-11,1.6-16.5c2.7-2,6-1.2,8.9-1.5c4.1-0.4,8.2-2,12.4-0.4c0.9,0.7,1.1,1.7,0.8,2.6
		c-1.1,4.6-2.3,9.3-3.5,13.9c-0.2,0.7-0.7,1.3-1.5,1.5c-4.6-0.1-9.2,0.7-13.7,1.2C196.6,507.2,194.8,507.6,193.3,506.3"/>
	<path class="st99" d="M193.3,506.3c4.2,0,8.4-0.8,12.5-1.3c2-0.2,4.2-0.9,6.1,0.6c1.1,1.1,1.1,2.5,0.9,3.8
		c-1.2,8.1-1.3,16.3-1.2,24.5c0,1.5,0.1,3-0.8,4.3c-1.9,1-1.6-0.8-2-1.6c-0.3-3-0.1-6-0.1-9c0-3-1.5-4.2-4.2-3.6
		c-3.6,0.7-7.6-0.3-10.6,2.8C192.6,519.9,193.3,513.1,193.3,506.3"/>
	<path class="st108" d="M209.7,536.3c0,0.8-0.1,1.7,0.7,2.3c1.2,1.1,1.2,2.7,1.4,4.1c0.7,4.4,1.1,8.9,2.2,13.2c0.2,1,0.3,2-0.2,2.9
		c-1,1.3-2.5,1.7-3.9,1.7c-3.1-0.1-6.1,0.9-9.2,0.7c-2.7-7-4.5-14.2-5.2-21.7c-0.7-1.4,0.1-2.3,1.3-2.5
		C201,536.1,205.3,535,209.7,536.3"/>
	<path class="st109" d="M325.8,420.8c0.6-6.3,1.2-12.5,1.9-18.8c0.2-1.3,0.3-2.4-0.4-3.6c5.2-0.8,10.4-1.3,15.7-0.8
		c1.3,1.3,1.2,3,1,4.6c-0.5,4.7-0.6,9.4-1.8,14.1C337,418.4,331.3,419.2,325.8,420.8"/>
	<path class="st110" d="M331.1,701.1c-18.5-1.5-35.2-7.2-48.1-21.7c3.6,1,7.1,2.1,10.7,3.1c1.7,1.9,4.1,2.4,6.3,3.2
		c7.1,2.4,14.3,4.3,21.8,4.8c3.1,0.9,6.4,0.1,9.5,1.3C333.5,694.9,333.4,697.3,331.1,701.1"/>
	<path class="st111" d="M351.3,460.6c-0.9,12-1.8,24-3.7,35.8c-0.8,0-1.5,0-2.3,0c-0.5-0.2-1-0.2-1.5-0.3c-5.8-0.2-6.1-0.2-5.5-5.8
		c1-9.3,1.4-18.6,3.1-27.8C344.7,461.5,347.9,460.6,351.3,460.6"/>
	<path class="st112" d="M239.7,564c7.2-0.8,14.4-1.5,21.6-2.3c1,5,2.1,10,3.1,15c-4.5,2-9.4,1.5-14,2.5c-1.4,0.3-2.9,0.3-4.4,0.7
		c-2.7-0.1-2.8-2.6-3.7-4.3c-0.9-2.6-1.8-5.2-2.6-7.8C239.5,566.6,238.7,565.3,239.7,564"/>
	<path class="st113" d="M298.9,507.1c-4.8,3.3-8.9,7.5-12.8,11.9c-2-0.2-1.8-1.9-1.6-3.1c0.7-7,0.8-14,2.4-20.9
		c3.9-4.9,8.2-9.3,13.4-12.9c1,0.9,1.2,2.2,1.1,3.4c-0.6,6.7-1,13.5-1.8,20.2C299.5,506.3,299.2,506.7,298.9,507.1"/>
	<path class="st114" d="M298.9,507.1c-0.8-5.9,0.8-11.7,1-17.6c0.1-2.4,0.3-4.9,0.4-7.3c3.8-3.5,8.1-6.2,12.7-8.4
		c-0.8,7.8-1.6,15.6-2.6,23.4c-0.2,1.4-0.2,2.7,0.4,3.9C306.9,503.1,302.9,505.1,298.9,507.1"/>
	<path class="st115" d="M404.6,503.3c-2.2-3.7,0-7.5,0.1-11.2c0.2-7,2-13.9,2.1-21c0-1.8-0.3-3.9,2.1-4.6
		C421,476.9,418.7,496,404.6,503.3"/>
	<path class="st116" d="M341.4,462.5c1.5,3.1,0,6.3-0.1,9.4c-0.4,6.9-1.2,13.7-2.1,20.5c-0.4,2.9,0.5,3.8,3.2,3.4
		c0.9-0.1,2-0.2,2.8,0.6c-5,0-10,0.1-14.9,0.1c-0.8-2.2-0.4-4.4-0.2-6.6c0.7-7.1,1.6-14.3,2.3-21.4c0.2-1.5,0.7-2.9,1.6-4.1
		C336.5,463.8,339,463.2,341.4,462.5"/>
	<path class="st117" d="M342.4,416.3c-1.8-3.1,0.1-6.3,0.2-9.4c0.2-3.1,0.3-6.2,0.5-9.3c5.4,0.3,10.8,0.5,15.8,2.7
		c1.2,1.5,1.2,3.3,0.8,5c-0.6,2.8-0.1,5.7-0.9,8.5C353.3,414.7,347.8,415.5,342.4,416.3"/>
	<path class="st118" d="M245.7,579.7c0.1-0.8,0.5-1.5,1.4-1.4c5.8,0.1,11.5-2,17.4-1.6c1.8,4.5,3.6,9,5.3,13.5c-0.7,0.9-1.7,1-2.7,1
		c-4.6-0.1-9.1,1.3-13.7,1.7C248.9,589.7,246.4,585.2,245.7,579.7"/>
	<path class="st119" d="M216.5,488.3c-7.3-0.3-14.3,2-21.6,1.5c0.8-3.7,1.5-7.5,2.3-11.2c6.4-0.5,12.8-0.9,19.1-1.7
		c1.7-0.2,3.1-0.1,4.7,0.2C220.8,481.3,219.9,485.3,216.5,488.3"/>
	<path class="st120" d="M334.1,464.4c-1.1,10-2.7,19.9-3.1,30c0,0.7-0.5,1.4-0.7,2.1c-1.9,1-3.9,0.8-5.9,0.8
		c-3.3-2.5-1.5-5.9-1.2-8.8c0.7-6.8,1.9-13.6,1.9-20.5C327.9,466.4,331.1,465.5,334.1,464.4"/>
	<path class="st121" d="M383.5,693.8c-0.4-4.6,2-8.9,1.5-13.5c0.7-1.8,2.5-1.9,4-2.2c3.9-0.9,7.7-1.6,11.6-2.2c1-0.2,2.1-0.2,3,0.4
		c1,4.5,0,8.7-1.4,12.9C396.1,691.1,389.9,692.8,383.5,693.8"/>
	<path class="st80" d="M331.1,701.1c0-3,1.8-5.9,0-8.9c3.4-2.2,7.4-1.4,11.1-2.4c3.1-0.6,6.3-1.1,9.4-1.7c1.4-0.3,2.9-0.9,4.2,0.3
		c0.4,3.7-0.8,7.4,0,11.1C347.6,700.8,339.4,701.7,331.1,701.1"/>
	<path class="st122" d="M289.1,666.7c-5.8-0.9-11.6-1.6-17.2-3.1c-1.2-1.9-0.5-3.6,0.7-5.2c10.2,0.7,20.5,1,30.7,0.1
		c1,1,0.9,2.3,0.6,3.5c-0.6,2.9,0.8,3.7,3.4,3.7c1.8,0,3.7-0.5,5.1,1.2c-1.3,2.3-3.5,1.5-5.4,1.7c-3.2,0.1-6.3,0.1-9.5,0
		C294.7,668.2,291.7,668.4,289.1,666.7"/>
	<path class="st123" d="M431.4,636.9c3.3,0,6.7-0.6,9.9,0.6c-2.7,2.8-2.5,6.5-2.8,10c-0.2,2.1-0.1,4.2-1.8,5.8
		c-4.4,1.1-9,0.8-13.5,1.4c-1.2-1.2-1.1-2.7-0.9-4.2c0.2-1.5,0.4-3,0.5-4.4C423.5,637.8,423.5,637.8,431.4,636.9"/>
	<path class="st124" d="M286.9,495.1c0.5,1.8,0.5,3.5,0.2,5.4c-0.9,5.4-1.2,10.8-1.7,16.2c-0.1,0.9-0.1,1.8,0.8,2.4
		c-3.9,5.1-6.9,10.7-9.8,16.5c-1.7-3.3,0.2-6.5,0.3-9.7c0.2-6,1.7-12,1.2-18.1C280.1,502.9,283.4,498.9,286.9,495.1"/>
	<path class="st125" d="M355.8,688.5c-4.5,0.7-9,1.5-13.5,2.2c-2.1-3.7-0.7-7.2,0.6-10.7c6.5-1.9,12.9-3.9,19.6-5
		c0.2,3.9,0.8,7.8-1.5,11.3C359.3,687,357.6,687.7,355.8,688.5"/>
	<path class="st126" d="M272.7,658.5c-0.2,1.7-0.5,3.5-0.7,5.2c-16.4-2.8-31.2-9.2-44.1-19.7c-3.5-2.9-7.6-5.1-10.6-8.7
		c4.8,2.8,9.6,5.6,14.4,8.5c12.3,7.3,25.4,12.4,39.6,14.3C271.7,658,272.2,658.3,272.7,658.5"/>
	<path class="st116" d="M361.1,686.3c1.2-3.7,0-7.7,1.5-11.3c6.1-2.3,12.4-3.4,18.7-4.4c1.3,1.5,1,3.3,0.9,4.9
		c-0.1,1.6,0.1,3.2,0.6,4.7C375.7,682.7,368.4,684.7,361.1,686.3"/>
	<path class="st127" d="M200.6,561.1c2-1.5,4.3-1.7,6.6-1.6c2.1,0.1,4.2-0.1,6.2-0.8c1,0.5,1.5,1.4,1.7,2.3c0.8,4.7,4,8.8,3.7,13.8
		c-3.8,2.2-7.8,2.7-12.1,1.9C204,571.8,202,566.6,200.6,561.1"/>
	<path class="st128" d="M209.7,536.3c-3.8,0.4-7.5,0.7-11.3,1.1c-1.3,0.1-2.8,0.1-3,2c-1.3-4.1-1.6-8.4-1.5-12.7
		c0-2.3,1.1-3.3,3.4-3.3c3,0,5.9-0.4,8.9-0.7c2.5-0.2,3.7,0.8,3.6,3.4C209.6,529.5,209.7,532.9,209.7,536.3"/>
	<path class="st129" d="M402.3,689.2c-0.2-4.3,0.7-8.4,1.5-12.6c0.6-1.6,2-1.6,3.4-1.9c3.3-0.7,6.7-0.6,10-1.1
		c0.9-0.1,1.8,0,2.6,0.4c2.8,4.1,1,7.9-0.9,11.6C413.3,687,407.9,688.6,402.3,689.2"/>
	<path class="st91" d="M343,680c0.5,3.6-1.2,7.1-0.7,10.7c-3.7,0.9-7.4,1.4-11.2,1.5c-3.3-0.1-6.6,0.4-9.7-0.8
		c-1.7-2.7-0.9-5.1,0.8-7.4C329.1,682.7,336,681.3,343,680"/>
	<path class="st130" d="M337.8,530.1c-2.6,0.4-5-0.5-7.5-0.8c-1-1-0.9-2.2-0.8-3.5c0.7-5.9,1.3-11.8,2-17.7c0.1-1.4,0.4-2.7,1.8-3.4
		c2.5,0.1,5.1-0.6,7.5,0.7c1.3,4.1-0.1,8.1-0.4,12.1c-0.2,2.9-0.8,5.7-0.8,8.5C339.6,527.8,339.2,529.2,337.8,530.1"/>
	<path class="st131" d="M312.4,666.8c-2.1,0-4.2-0.2-6.3,0c-3.6,0.4-3.8-1.6-3.4-4.2c0.2-1.3,0.4-2.6,0.7-4c7.2-0.5,14.5-1,21.7-1.5
		c0.8,0.8,0.9,1.8,0.6,2.7c-0.6,2.1-0.3,4.1,0.2,6.1c-2.1,1.7-4.7,1.5-7.1,1.9C316.6,667.7,314.3,668.4,312.4,666.8"/>
	<path class="st132" d="M226.2,605.3c-4.9-5-9.5-10.3-12.9-16.5c3.5-2.3,7.4-2.1,11.3-1.6c2.9,1.2,3.8,4.3,5.8,6.4
		c1.2,1.8,2.6,3.6,4,5.3c0.8,1.1,1.8,2.1,1,3.6C232.6,604.8,229.1,603.9,226.2,605.3"/>
	<path class="st85" d="M337.8,530.1c0.7-6.4,1.6-12.7,2.2-19.1c0.2-1.9,0.3-3.7,0.8-5.5c3,0.3,5.8,1.2,8.2,3
		c-0.5,6.8,0.1,13.8-2.9,20.3C343.5,530.2,340.7,530.4,337.8,530.1"/>
	<path class="st133" d="M436.7,653.2c0.5-4.2,1.1-8.5,1.4-12.7c0.2-2.3,1.2-3.1,3.2-3c3,0,6-0.2,8.8,0.9c2,5.2,1.4,10.1-1.5,14.8
		C444.7,653.1,440.7,653.1,436.7,653.2"/>
	<path class="st97" d="M382.8,680.2c-1.4-0.2-2.3-0.7-1.8-2.4c0.7-2.4,0.2-4.9,0.3-7.3c6.1-1.6,12.4-2.4,18.7-3
		c1.8,2.8,1.1,5.9,0.8,8.9c-5.1,1.8-10.7,1.7-15.7,3.8C384.3,680.2,383.5,680.2,382.8,680.2"/>
	<path class="st96" d="M414.2,655.4c-3.5,0-7,0-10.5,0.1c-1.3-0.6-1.3-1.8-1.1-2.9c0.8-4.5,0.8-9.1,1.9-13.5c3.7-0.5,7.5-1,11.2-1.5
		c0.7,0.6,1,1.5,1,2.3C416.2,645.1,416.3,650.4,414.2,655.4"/>
	<path class="st134" d="M404.5,639.1c0.6,3.6-0.1,7.1-0.8,10.6c-0.3,1.9-0.7,3.9,0,5.8c-4.1,0.1-8.2-0.7-12.1-2
		c-0.6-4.5-0.5-8.9,2.3-12.8C397.5,640.1,401,639.6,404.5,639.1"/>
	<path class="st127" d="M419.5,674.3c-0.8,0-1.5,0-2.3-0.1c-1.8-2.9-1.4-5.6,0.8-8.2c7.6-0.2,15.2,0.6,22.5,2.7
		c0.6,2.1,0.5,4-0.9,5.7c-1.9,1.1-4.1,0.7-6.1,0.7C428.9,675.1,424.1,676.3,419.5,674.3"/>
	<path class="st135" d="M253.2,592.5c5.4-2.1,11-2.3,16.6-2.3c2.2,2.5,3.3,5.5,5.1,8.3c0,2-1.6,1.6-2.6,1.7c-4,0.5-8,1.2-12,1.7
		c-3-0.4-4.1-3-5.6-5.1C254.1,595.4,252,594.5,253.2,592.5"/>
	<path class="st136" d="M484.7,651.6c10.2,6.1,19.1,13.8,26.9,22.7c0.6,0.7,1.7,1.1,1.2,2.7c-8.9-6.9-18.6-12.3-28.9-16.5
		C482.4,657.4,483.2,654.5,484.7,651.6"/>
	<path class="st127" d="M168.4,469.6c-4.2-7.8-2-14.3,5.4-15.5c4.3-0.7,7.8,1.4,10.4,5c-3.8,4.3-8.8,7.1-13.3,10.5
		C170.1,470,169.2,470.2,168.4,469.6"/>
	<path class="st137" d="M226.2,605.3c1-2.5,3.4-1.9,5.2-2.2c1.3-0.2,2.7-0.1,3.9-0.8c1.3-0.4,1.9,0.6,2.7,1.2
		c2.9,3.2,6.4,5.8,9.6,8.7c0.8,0.8,2.3,1.2,1.9,2.8c-2.2,0.5-4.3,1.1-6.5,1.5c-1,0.2-1.7,0.4-1.8,1.5
		C235.8,614.3,230.5,610.3,226.2,605.3"/>
	<path class="st138" d="M259.9,601.5c3.8-1.9,8-1.4,12-2.3c1-0.2,2.2,0.3,3-0.8c2.5,3,5,6,7.5,9c-0.3,2.2-2.2,2.1-3.6,2.4
		c-3.1,0.5-6.1,1-9.2,1.2C264.5,609.7,261.6,606.3,259.9,601.5"/>
	<path class="st119" d="M414.2,655.4c-0.3-6,1.8-11.8,1.5-17.8c5.2-0.1,10.4-1.2,15.7-0.8c-0.3,0.2-0.7,0.6-0.9,0.5
		c-4.8-1-6.1,1.6-6.3,5.8c-0.2,3.8-0.6,7.6-0.9,11.4C420.2,654.6,417.3,655.8,414.2,655.4"/>
	<path class="st139" d="M268.8,610.5c2.9-1.1,6.1-1.1,9.1-1.5c1.6-0.2,3.2-0.4,4.5-1.5c3.9,2.9,6.8,6.8,11.2,9.1
		c0,2.1-1.6,2.2-3,2.4c-3.1,0.3-6.1,0.8-9.1,1.6c-4.8-0.8-7.7-4.6-11.5-7.1C269.3,612.5,268.5,611.8,268.8,610.5"/>
	<path class="st140" d="M225.4,588c-4.1-0.4-8.1,0.5-12.1,0.8c-2.7-3.7-5-7.7-6.6-12c3.9-1.2,8.1-0.8,12-2.3
		c0.7,0.3,1.1,0.9,1.4,1.5C221.6,580.1,224.8,583.5,225.4,588"/>
	<path class="st141" d="M325.1,528.6c-2-0.2-4-0.4-6-0.6c-0.6-0.7-1.1-1.5-1-2.3c0.7-6.2,0.6-12.5,2.5-18.6c2.3-1.5,5-1.4,7.5-2.1
		c1.4,1.4,1.2,3.2,1,4.9c-0.5,4.9-1.1,9.8-1.6,14.7C327.3,526.2,326.8,527.8,325.1,528.6"/>
	<path class="st142" d="M448.7,653.1c1.1-4.9,1.7-9.8,1.5-14.8c4.2,0.4,8.3,1.1,12.2,2.8c-0.9,4.2-0.9,8.7-2.4,12.8
		C456.2,653.6,452.5,653.4,448.7,653.1"/>
	<path class="st143" d="M418,666.1c-0.6,2.7-0.9,5.4-0.8,8.2c-3.2,1.3-6.7,0.6-10,1.4c-1.2,0.3-2.4,0.2-3.5,0.9c-1,0-2,0-3-0.1
		c-1.6-2.9-0.4-5.9-0.8-8.9C406,667.1,412,666.6,418,666.1"/>
	<path class="st144" d="M394,640.6c-0.8,4.3-1.5,8.5-2.3,12.8c-6.9-1.2-13-4.2-20.1-7.7C379.6,643.4,386.8,641.9,394,640.6"/>
	<path class="st87" d="M168.4,469.6c5.2-2.1,8.9-6.3,13.5-9.3c0.7-0.5,1.3-1.2,2.2-1.2c2.1,2.1,3,4.7,3.7,7.5
		c-3.8,3.2-7.8,6.1-11.9,8.9c-0.9,0.6-1.8,1.4-3,0.9C170.8,474.5,169.2,472.2,168.4,469.6"/>
	<path class="st145" d="M484.7,651.6c0.4,3-0.9,5.9-0.8,8.9c-4.5-1.5-9-3-13.5-4.6c-0.6-3.9-1.5-7.9,1.6-11.3
		C476.6,646.4,480.8,648.7,484.7,651.6"/>
	<path class="st92" d="M320.6,507c0.6,4.8-0.6,9.5-1,14.3c-0.2,2.2-0.4,4.4-0.5,6.6c-2.5,0.2-5,0.5-7.5,0.7
		c-0.2-0.2-0.5-0.4-0.5-0.6c0.1-6.1,0.3-12.1,2-18C315.4,508.7,317.9,507.5,320.6,507"/>
	<path class="st146" d="M419.5,674.3c4.7,0,9.5,0,14.2,0c1.4,3.1,0.6,6.1-0.7,9c-4.7,1.2-9.4,1.9-14.2,2.3
		C418.7,681.8,421.2,678.2,419.5,674.3"/>
	<path class="st147" d="M305.7,530.3c-3.6,1.8-7.3,3.7-10.6,6.1c-1.8-2.2-1-4.7-0.8-7c0.1-1.5,0.6-2.9,0.7-4.3
		c2.8-4.2,6.3-7.6,10.5-10.3c1.5,1.7,1.1,3.8,0.9,5.6C306,523.7,305.9,527,305.7,530.3"/>
	<path class="st148" d="M358.8,413.9c-1.5-3.1-0.4-6.3,0-9.4c0.2-1.3,0.1-2.7,0.1-4.1c6.5,1.8,12.5,4.3,15.1,11.4
		C368.9,413,363.7,412.2,358.8,413.9"/>
	<path class="st100" d="M188.6,471.8c0.8,8.1-1.7,15.5-4.7,23.6c-1.7-5.7-4.1-10.4-7.2-14.6c-0.1-0.2-0.2-0.6-0.1-0.7
		C180.1,476.6,183.5,472.9,188.6,471.8"/>
	<path class="st148" d="M472,644.7c-1.7,3.6-0.2,7.6-1.6,11.3c-3.5-0.7-7-1.4-10.5-2.1c0-4.4-0.3-8.9,2.4-12.8
		C465.8,641.8,468.9,643.2,472,644.7"/>
	<path class="st149" d="M322.1,684.1c0,2.5-1.2,4.9-0.8,7.4c-9.2-0.7-17.9-2.9-26.3-6.6c-1.2-0.5-1.4-1.2-1.4-2.3
		C303,684.8,312.5,684.9,322.1,684.1"/>
	<path class="st143" d="M319.1,666.8c2.2-0.7,4.7-0.4,6.8-1.5c1.8-1.5,3.8-2.1,6-0.9c0.6,3.9,0.1,7.6-1.6,11.2
		c-4.2,0.5-8.4,1.3-12.7,1.1C317,673.2,316.4,669.7,319.1,666.8"/>
	<path class="st150" d="M439.7,674.2c0-1.8-0.3-3.7,0.8-5.4c12.2,2.4,23.4,7.5,34,13.8c0.5,0.3,0.8,0.9,1.2,1.4
		c-1.6,1.1-3.1,0.1-4.5-0.5c-3.8-1.6-7.6-2.9-11.6-3.9c-4.3-1.6-8.8-2.3-13.2-3.2C444.2,675.5,441.3,676.9,439.7,674.2"/>
	<path class="st151" d="M305.7,530.3c-2.3-2.1-0.9-4.9-0.6-7.1c0.3-2.8,0.4-5.7,0.5-8.5c2.3-1.9,4.7-3.6,7.5-4.6
		c0.4,6.3-0.7,12.4-1.5,18.6C309.8,529.7,307.7,529.9,305.7,530.3"/>
	<path class="st152" d="M330.3,675.5c0-3.7,0.5-7.4,1.5-11c2.4-2.9,5.7-2.4,8.9-2.4c2.2,0.4,2.4,2.2,2.5,3.9c0.1,2.6,0,5.1-1.7,7.3
		C337.9,674.7,334.1,674.8,330.3,675.5"/>
	<path class="st92" d="M341.6,673.4c0.3-2.2,0.7-4.3,0.7-6.5c0-1.4,0.6-3.2-1.5-3.9c-0.2-0.5-0.1-0.8,0.3-1.1
		c4.2-0.9,8.3-2.9,12.7-1.2c1.5,3.6,0.9,7.1-1,10.4C349.1,671.9,345.4,673.1,341.6,673.4"/>
	<path class="st153" d="M280.9,620.1c2.7-2.1,6.1-1.7,9.2-2.1c1.3-0.2,2.8,0.1,3.5-1.5c3.8,2.2,7.5,4.4,11.3,6.6
		c-2.4,1.2-5.1,1.4-7.7,1.6c-1.9,0.1-3.7,0.3-5.1,1.6c-1.8,0.9-3.1-0.5-4.6-1C285.4,623.5,282,623.2,280.9,620.1"/>
	<path class="st154" d="M346.1,528.8c1.5-6.7,0.6-13.7,2.9-20.3c4.4,1.9,6.4,5.3,6,10.1C354.7,523.3,351.4,527.1,346.1,528.8"/>
	<path class="st155" d="M352.8,671c0.1-3.4,1.2-6.8,0.8-10.3c0.9-1.1,2.2-1.2,3.4-1.6c3.2-0.1,6.5-1.2,9.7,0.1
		c1.1,2.5,1.3,5-0.3,7.3C362.1,669.1,357.4,669.8,352.8,671"/>
	<path class="st156" d="M340.9,662.3c0,0.2,0,0.5-0.1,0.7c-3.1,0-6.1,0.4-9,1.6c-2,0.2-4,0.5-5.9,0.7c-1.6-0.1-2.1-0.8-1.7-2.4
		c0.5-1.9,0.6-3.8,0.9-5.8c3.9-0.8,7.9-1,11.9-0.8c1.8-0.8,2.8-0.1,3.2,1.7C340.5,659.3,340.8,660.8,340.9,662.3"/>
	<path class="st88" d="M319.1,666.8c-1.4,3.1-0.5,6.6-1.5,9.8c-3.7,1.1-7.5,0.5-11.3,0.5c-1.6-3.3-0.6-6.5,0.8-9.6
		c1.7-0.4,3.7,0.6,5.3-0.8C314.6,666.8,316.9,666.8,319.1,666.8"/>
	<path class="st89" d="M325.1,528.6c2.2-3.4,1.5-7.4,2-11.1c0.6-4.1,1.4-8.3,0.9-12.5c1.7-0.1,3.5-0.1,5.2-0.2
		c-1.4,5.7-1.3,11.5-2.2,17.2c-0.4,2.4-0.5,4.9-0.8,7.4C328.6,529.1,326.9,528.9,325.1,528.6"/>
	<path class="st157" d="M439.7,674.2c2,1.6,4.8-0.2,6.8,1.5c-0.1,2.6-0.1,5.2-1.6,7.4c-4,0-8,0.1-12,0.2c-0.4-3.1,0.5-6,0.7-9
		C435.7,674.3,437.7,674.2,439.7,674.2"/>
	<path class="st158" d="M366.3,666.7c0-2.5,0-4.9,0-7.4c2.5-2.2,5.8-0.4,8.5-1.7c3.7-0.5,7.4,0.3,11.1,0.7c0.7,0.1,1.5,0.1,2.2,0.2
		C380.9,661.9,374,665.4,366.3,666.7"/>
	<path class="st159" d="M343.2,638.2c11.7-0.6,23.4-1.5,34.8-4.3c0.8-0.2,1.7-0.4,2.4,0.5c-12.4,4-25,6.7-38,7c-1.5,0-3-0.1-4.5-0.1
		c-1.1-2-0.8-3.3,1.8-3.3C340.8,637.9,342,637.6,343.2,638.2"/>
	<path class="st87" d="M307.1,667.5c0.5,3.3-0.8,6.4-0.8,9.6c-3.3,0.4-6.5-0.2-9.7-0.7c-1.8-3.1-1.4-6.1,0.8-8.9
		C300.6,667.5,303.9,667.5,307.1,667.5"/>
	<path class="st135" d="M445,683.1c0.1-2.6-0.3-5.3,1.6-7.4c4.6,0.4,9.1,1.2,13.4,3.1c1.1,2,1.5,3.9-1.5,4.5
		C453.9,683.2,449.4,683.2,445,683.1"/>
	<path class="st160" d="M188.6,471.8c-4.2,2.7-8.3,5.6-11.9,9c-1.6-1.2-2.7-2.9-3.8-4.5c4-2.9,8-5.7,12-8.6c0.9-0.7,1.8-1.3,3-1.2
		C188,468.3,189,469.9,188.6,471.8"/>
	<path class="st161" d="M343.2,638.2c-2,0.7-5.6-1.7-5.3,3c-4.8,0-9.5,0-14.3-0.1c-2-1.7-4.8,0.4-6.7-1.4c0.7-1.5-1-5,3.1-3.8
		C327.7,636.7,335.4,637.4,343.2,638.2"/>
	<path class="st162" d="M340.9,662.3c-2.1-0.3-1.5-2-1.5-3.2c0-1.7-0.2-3-2.3-2.8c3.9-1.5,8-0.5,12-0.7c2.1-0.6,4.1-1,4.6,2
		c0.3,1.6,2.2,1.4,2.9,2.5c-0.8,1-2,0.6-3,0.8C349.3,661.3,345.1,661.8,340.9,662.3"/>
	<path class="st163" d="M356.6,660c-1.9-0.3-4.7,1.1-4.1-3.2c0.4-2.2-2.3-0.9-3.5-1.4c3.1-1.4,6.4-0.9,9.5-0.5
		c3.8,0.4,7.7,0.4,11.5,0.6c0.6,2.5,3.3,1.6,4.6,2.9c-2.6,1.5-5.6,0.3-8.3,0.8C363.1,660.3,359.8,659.9,356.6,660"/>
	<path class="st164" d="M295.1,525c1.7,3.8-1,7.6,0,11.4c-3,3.2-6.4,6.1-8.3,10.3c-0.3,0.3-0.5,0.3-0.8,0
		C287.2,538.7,290.1,531.4,295.1,525"/>
	<path class="st165" d="M297.4,667.5c-0.7,2.9-0.9,5.9-0.8,8.9c-3.1,0.2-6.1-0.3-9-1.4c1.9-2.5-0.2-5.8,1.6-8.3
		C291.9,666.2,294.6,667.5,297.4,667.5"/>
	<path class="st166" d="M458.4,683.2c2.1-1,1.4-2.9,1.5-4.5c5.5,0.9,10.4,3.9,15.8,5.2c1,0.9,3.2,0.3,3.2,2.8
		c-4.3-0.8-8.7-1.4-12.9-2.5C463.5,683.7,460.8,684.8,458.4,683.2"/>
	<path class="st167" d="M374.6,658.5c-1,0-1.9-0.1-2.9,0c-2.5,0.1-2.7-1-1.7-2.9c5.3,0.9,10.8,0.6,15.8,2.8
		C382.1,658.4,378.3,658.5,374.6,658.5"/>
	<path class="st168" d="M217.2,635.2c-0.6,0.1-1.2,0.2-1.5,0.8c-1.7-1.1-3-2.6-4.5-4.5C214,632.1,215.6,633.7,217.2,635.2"/>
	<path class="st169" d="M286.1,546.8c0.3,0,0.5,0,0.8,0c-0.3,0.8-0.6,1.5-1,2.3C285,548.2,285.4,547.4,286.1,546.8"/>
	<path class="st91" d="M268.2,422.3c2.6-1.1,4.6-3.3,7.5-3.8c1.7,2,1.4,4.6,1,6.8c-1.3,7.7-1.4,15.5-2.5,23.2
		c-2.6,2.5-5.1,4.9-7.7,7.3c-3,2.8-5.5,6-8,9.1c-1.9-2.1,0.1-4.3,0.1-6.4c-0.3-10.2,2.3-20.2,2.9-30.3c0.1-1.5,1.2-2,2.2-2.7
		C265.2,424.5,266.7,423.4,268.2,422.3"/>
	<path class="st155" d="M274.2,448.5c-1.4-1.8-0.7-3.8-0.6-5.7c0.5-8.1,2.5-16.1,2.1-24.3c5.1-3.8,11-6.1,16.5-9
		c0.2,1.4,0.5,2.7,0.3,4.3c-1.1,7.8-1.7,15.6-2.5,23.4C284.6,441,279.4,444.8,274.2,448.5"/>
	<path class="st82" d="M225.4,588c-2.3-3.8-4.5-7.7-6-12c1.8-19.6,4.1-39.2,6.2-58.7c2-19.3,3.9-38.7,6.1-58
		c0.1-0.6,0.1-1.2,0.5-1.8c2-4.9,5.8-8.4,9.1-12.4c0.9-1.1,1.9-2.2,2.9-3.3c2-1.6,3.3-1.7,3,1.5c-0.6,5.5-1.1,11-1.6,16.6
		c-0.7,6.2-1.6,12.5-2,18.7c-0.2,3-1.3,5.8-0.8,8.8c0.2,1.1-0.3,2.3,0.8,3.1c-1.1,3.2-2.6,6.3-3,9.8c-2.4,4.6-2.7,9.8-3.7,14.8
		c-0.3,1.8-0.5,3.6-0.8,5.4c0.1,5.3-1.3,10.6-0.8,16c0.1,1.2-0.4,2.5,0.7,3.5c0.1,3-0.3,6.1,0.8,9c0,0.5,0,1,0,1.5
		c-1.9,3.1-1.3,6.8-1.7,10.2c-1.1,10-2.2,20-3.2,30c-0.1,1.4-0.3,2.8-1.8,3.4C227.6,592.7,226.9,590,225.4,588"/>
	<path class="st170" d="M232.2,457.5c0.5,1.8,0.4,3.5,0.2,5.4c-0.8,8.3-2.1,16.5-2.6,24.8c-0.4,7-1.6,14-2.4,21.1
		c-0.7,6.4-1.4,12.8-2.1,19.2c-0.9,8.4-1.9,16.7-2.7,25.1c-0.6,6-1.2,12.1-1.7,18.1c-0.1,1.8,0,3.5-1.6,4.8
		c-0.6-0.3-0.7-0.9-0.8-1.5c-2.2-5.1-3.7-10.4-5.2-15.7c-1.3-6.7-2.7-13.4-3-20.2c-0.2-11,0.1-22,1.5-33c1.5-5.8,3-11.5,4.5-17.3
		c1.5-3.7,3-7.5,4.5-11.2c3-5.7,6-11.5,9-17.2C230.7,459,231.4,458.3,232.2,457.5"/>
	<path class="st99" d="M287.7,624.7c1.5,0.6,2.9,1.1,4.4,1.7c3.1,2.5,7.3,2.8,10.6,5c1.5,3.8,1,5.1-2.3,5.4
		c-5.2-0.7-10.2-2.2-15-4.5C284.4,627.9,285,625.9,287.7,624.7"/>
	<path class="st171" d="M300.4,636.7c3.5-0.6,1.8-3.5,2.3-5.4c5.8,1.5,11.5,3.1,17.3,4.6c-0.9,0.1-2.1-0.3-2,1.4
		c0.1,0.9,0.2,2.1-1.1,2.4C311.2,639.4,305.7,638.7,300.4,636.7"/>
	<path class="st172" d="M249.4,615c-3.8-3.9-8.8-6.7-12-11.2c2-7.9,2.1-16,3.4-24c0.3-1.8-0.4-4.2,2.6-4.5c0.4,1.7,1,3.2,2.3,4.5
		c2.1,4.5,4.3,9,7.5,12.8c0,1.7,1.7,2.3,2.2,3.7c-1.3,4.7-1.6,9.5-2,14.2c-0.2,1.9,0.3,4.8-3.2,4.5C249.9,615,249.7,615,249.4,615"
		/>
	<path class="st96" d="M250.2,615c2.4-0.9,2.3-3.1,2.2-4.9c-0.2-3.5,0.9-6.8,1-10.3c0-1.3,0.1-3.1,2-3.5c1.2,2,2.6,3.9,4.5,5.3
		c2.7,3.3,5.1,6.8,8.9,9c0.5,0.8,1,1.5,1.5,2.3c0,3.3-0.9,6.6-1.2,9.8c-0.1,1.3-0.3,2.9-2.4,2.1C260.5,622.6,255.2,619,250.2,615"/>
	<path class="st173" d="M266.7,624.7c2.9-2,1-5.4,2.1-8c0.5-1.3,0.3-2.9,1.5-4c3.5,2.4,7.1,4.9,10.6,7.3c2.3,1.5,4.5,3,6.8,4.6
		c-2.9,1.9-0.9,5.3-2.3,7.6C278.7,630.7,272.7,627.8,266.7,624.7"/>
	<path class="st174" d="M243.4,575.3c-0.8,0.4-1.4,1-1.4,2c0.1,7.5-2.2,14.9-2.3,22.4c0,1.7,0,3.6-2.3,4.1c-0.7-0.5-1.4-1-2.2-1.5
		c-1.1-3.2-4.4-4.9-5.3-8.2c1.5-5.8,1.5-11.7,2.2-17.6c0.9-7.7,1.5-15.5,2.4-23.3c0.1-1.2,0.6-2.5,2.2-2.7c0,4.7,1.8,9.1,3,13.5
		C240.9,567.8,242.2,571.5,243.4,575.3"/>
</g>
<g>
	<defs>
		<rect id="SVGID_5_" width="1080" height="1081"/>
	</defs>
	<clipPath id="SVGID_6_">
		<use xlink:href="#SVGID_5_"  style="overflow:visible;"/>
	</clipPath>
	<path class="st175" d="M608.9,606.9c-1.9,0.2-2.4-1.3-3.1-2.6c-4.7-8.7-9.4-17.4-14.1-26.2c-1.3-0.5-1.9-1.5-2.6-3.2
		c0,8.2,0,16,0,23.8c0,2,0.6,3.9,1.1,5.9c0.4,1.4,0.1,2.7-1.5,2.8c-4.8,0.3-9.6,1.3-14.4-0.6c-1.4-0.1-2.7-0.2-4.2-0.3
		c1.8-3.6,2.1-7.2,2.1-11c-0.1-15.2,0-30.5,0-45.7c0-3.5-0.3-7-2-10.8c5.9,0,11.4,0,16.9,0c1.2,0,1.5,1.2,2,2
		c5.8,8.9,10.1,18.6,15.4,27.8c0.6,1,1.2,2.1,2.1,3.1c0-10.9,1.7-21.8-1-32.7h19c-0.2,1-0.4,2-0.5,2.9c0,0.2,0.1,0.5,0.1,0.7
		c0.8,3-0.6,5.9-0.6,8.9c0.1,14.2,0,28.4,0.1,42.6c0,3.6,0.6,7.2,1.6,10.6c0.1,0.5,0,0.9-0.1,1.4c-0.9,1.5-2.5,1.4-3.9,1.4
		c-3.4,0-6.9,0.1-10.3-0.1C610.1,607.6,609.5,607.2,608.9,606.9"/>
	<path class="st175" d="M551.8,606.9c-1.3-0.1-2.7-0.2-4.3-0.3c0.7-2.4,1.7-4.6,1.7-7c0.4-2.7,0-5.4,0.2-8.2
		c0.1-2.6-1.4-3.7-3.6-3.8c-3.7-0.3-7.4-0.2-11.2,0c-2.2,0.1-2.6,1.3-2.2,3.3c0.6,2.9,1.7,5.7,3,8.4c0.7,1.9,1.7,3.6,2.6,5.3
		c0.8,1.5,0.6,2.9-1.3,2.9c-5,0.2-10.1,1.2-15-0.7c-1.2-0.2-2.6,0.2-3.2-1.8c-4.4-14.5-6.8-29-1.2-43.6c5.4-14,15.3-22.6,30.8-23.4
		c6.5-0.3,12.8,0.7,17.1,6.3c1.4,2,1.3,4.2,1.3,6.5c0,14.9,0,29.9,0,44.8c0,2.9-0.1,5.7,0.6,8.5c0.4,1.7,0,3.2-1.9,3.4
		C560.9,607.9,556.3,608.9,551.8,606.9"/>
	<path class="st175" d="M407.2,606.9c-1.1-0.3-2.4,0.3-3-1.5c-4.9-15.9-7.3-31.9,0.4-47.7c7.5-15.4,23.9-23.1,38.7-18.5
		c3,1,5.7,2.4,7.6,5.1c1.4,1.9,1.1,4,1.1,6.1c0,15,0,29.9,0,44.9c0,3-0.1,6,0.9,8.9c0.4,1.4,0.6,3-1.3,3.2
		c-4.8,0.5-9.6,1.3-14.3-0.7c-1.3-0.1-2.7-0.1-4.3-0.2c2.6-5.4,2-11,1.9-16.6c-0.6-1.8-2.1-2.4-3.8-2.4c-3.5-0.1-7,0-10.5,0
		c-2.4,0-3,1.2-2.5,3.4c1,4.5,2.7,8.8,5,12.8c1.6,2.9,1.2,3.8-2,3.9c-4.2,0.2-8.5,0.5-12.7-0.2C407.9,607.3,407.6,607.1,407.2,606.9
		"/>
	<path class="st175" d="M863.2,606.9c-1.3-0.1-2.7-0.1-4.3-0.2c2.7-5.5,2-11.3,1.9-17.1c-0.2-0.3-0.4-0.6-0.6-0.9
		c-0.6-1.3-1.9-1.1-3-1.1c-3.5-0.1-7,0.1-10.5-0.1c-2.7-0.1-3.3,1.1-2.7,3.4c0.7,3,1.7,6,3.1,8.8c0.6,2.5,3.2,4.2,2.5,7.1
		c-4.8,2-9.7,0.7-14.6,0.8c-0.7-0.1-1.3-0.4-1.9-0.8c-1.2-0.2-2.4,0.1-2.9-1.6c-4.4-14.8-6.9-29.7-0.9-44.7
		c6.4-16.1,21.1-24.8,36.9-22.1c4,0.7,7.7,2.1,10.3,5.4c1.3,1.9,1.2,4,1.2,6.1c0,14.1,0,28.2,0,42.3c0,3.9-0.1,7.7,1,11.5
		c0.4,1.5,0.8,3.4-1.3,3.6C872.7,608,867.9,608.9,863.2,606.9"/>
	<path class="st175" d="M747.9,544.9c-0.1-1.9-0.8-3.6-1.7-5.8c11.4,0.2,22.4-0.6,33.4,0.4c6.5,0.7,11.8,4.4,15.9,9.5
		c7.3,9.2,4.9,22.7-5.4,28.8c-5.2,3-4,3.2-2.5,7.2c2.7,7.1,5,14.4,9.6,20.5c0.2,0.2,0.4,0.3,0.6,0.5c0.2,0.8-0.2,1.3-0.9,1.4
		c-5.9,0.6-11.8,1.5-17.7-0.5c-2.3,0.1-3.8,0.1-3.4-3.4c0.3-2.6-1.4-5.4-2.4-8.1c-1.9-5.3-3.8-10.5-5.7-15.7
		c-1.6-1.2-2.1-2.9-2.6-4.6c0.1,6.8,0,13.8,0.1,20.8c0,3,0,6,1,8.9c0.5,1.4,0.3,2.7-1.4,2.8c-4.8,0.3-9.6,1.3-14.3-0.6
		c-1.3-0.1-2.6-0.1-4.2-0.2c0.3-1,0.5-2,0.8-2.9c-0.5-1.3-0.4-2.6,0-3.9c0.4-13.1,0.2-26.2,0.1-39.3
		C747.3,555.3,747.8,550.1,747.9,544.9"/>
	<path class="st175" d="M632.9,606.9c-1.4-0.1-2.7-0.2-3.2-0.2c1.4-22.5,1.2-44.8,0-67.6c8.7,0.3,18.4-0.8,28,0.7
		c7.9,1.2,13.9,5.8,18.6,12.2c5.3,6.4,6.7,14.1,6.5,22.1c-0.2,6.9-1.8,13.5-5.4,19.6c-5.1,8.6-13,13-22.6,14
		c-6.4,0.7-12.9,0.2-19.4,0.1C634.4,607.7,633.5,607.6,632.9,606.9"/>
	<path class="st175" d="M704.1,604.3c-23.1-13.2-22.1-46.8-4.2-59.9c12.6-9.2,32.4-8.5,44.1,1.8c1.2,2.2,0,4-0.7,5.9
		c-0.9,2.4-1.3,5-2.7,7.2c-2.4,0.9-3.2-1.5-4.7-2.4c-7.1-5.5-15-6.3-22.7-2.1c-9.5,5.2-10.2,14.4-9.1,23.9c0.1-1.5,0.4-3.1,1-4.6
		c0.4-1,1-2,1.5-3c0.4-0.7,0.8-1.3,1.2-2c5.5-7.1,14.6-9.6,22.1-6.1c1.7,0.8,3.3,1.7,3.8,3.8c0,4.8,1.3,9.7-0.8,14.4
		c-1.2,0.7-2.2,0.1-3.2-0.4c-6.1-3-12.5-2.8-18.9-1.1c-0.5,0.2-1,0.4-1.4,0.7c-1.4,1-2,2.4-1.9,4.1c0,2.7,1.8,4.1,3.8,5.3
		c8.3,5,17.7,4.5,25-1.4c3.8-3.1,4.3-2.9,5.9,1.8c0.6,1.4,1,2.8,1.6,4.2c1.8,4.8,1.4,6.5-3,9C728.8,610.1,716.5,611.1,704.1,604.3"
		/>
	<path class="st175" d="M480.8,606.9c-2.2,0.3-2.8-1.1-3.4-3c-5-16.3-10.1-32.5-15.1-48.7c-1.7-5.5-3.7-10.8-7.4-16.1
		c7.9,0,15.1,0,22.4,0c2.3,0,0.4,1.3,0.5,2c0.6,13,6.1,24.7,9.6,37c0.3,1,0.7,2.3,2.3,1.7c6.6-13.3,8.5-26.7,0.6-40.7
		c4.9,0,9.7,0,14.5,0c2.1,0,2.6,2.1,3.9,3.2c3.7,4.2,3.9,9.4,3.7,14.5c-0.4,9.6-3.3,18.6-7.3,27.3c-2.9,6.2-6.1,12.3-9.6,18.2
		C491.8,608.1,487.4,609.5,480.8,606.9"/>
	<path class="st175" d="M368.5,593.2c5.9,0,11.9,0.1,17.8,0c3.4-0.1,6.4-1.5,9.6-3.3c0.1,1.6,0.2,2.9,0.2,4.2
		c2,3.6,1.2,7.5,0.7,11.3c-0.2,1.8-1.8,2.2-3.4,2.4c-2.5,0.3-5,0.1-7.5,0.1c-9.6,0-19.2,0-28.8,0c-1.9,0-3.8,0.2-5.4-1.1
		c-1.2-0.1-2.5-0.1-4.1-0.2c2.3-4.3,1.9-8.9,1.9-13.4c0-14.3,0-28.7,0-43c0-3.6,0.1-7.2-2.1-11.2c6.6,0,12.6-0.1,18.6,0.1
		c2.3,0.1,0,1.7,0.4,2.4c0.7,2.6-0.1,5.2-0.1,7.8c0,12.6,0,25.2,0,37.7C366.5,589.3,366.1,591.7,368.5,593.2"/>
	<path class="st175" d="M806.2,606.9c-1.4-0.1-2.7-0.1-4.3-0.2c1.9-3.9,2.1-8,2.1-12.1c-0.1-14.3,0-28.7,0-43c0-4.1-0.1-8.2-2-12.4
		c6.3,0,12.2,0,18.2,0c1.9,0,1,1.1,0.8,2c0,8.5-0.1,17,0,25.4c0,9.5,0,19,0,28.5c0,3.1,0.1,6.2,1,9.3c0.5,1.6,0.3,3.3-1.7,3.4
		C815.5,607.9,810.7,608.9,806.2,606.9"/>
	<path class="st175" d="M669,641c0,6.8-0.2,13.4,0.1,19.9c0.1,3.3-1.7,3-3.7,2.8c-1.9-0.2-4.6,1.3-4.5-2.8c0.2-9.9,0-19.7,0.1-29.6
		c0-1.5-1.2-4.1,1.2-4.4c2.6-0.3,5.6-1.4,7.8,1.7c4.2,5.9,8.7,11.5,13.1,17.3c0.7,0.9,1.4,1.7,2.8,3.6c0-6.7,0-12.3,0-18
		c0-4.4,2.9-6.3,7-4.7c1,0.4,0.9,1,0.9,1.8c0,11.1,0,22.2,0,33.3c0,0.8,0.2,2-1.2,1.8c-2.4-0.3-5.1,1.1-7.2-1.7
		c-4.4-6.1-9-12-13.5-17.9C671.2,643.1,670.7,641.7,669,641"/>
	<path class="st175" d="M778.9,650.7c2.8,4.1,5.6,8.2,8.4,12.4c-6.5,1.8-8.8,1.1-12.3-4.1c-1-1.6-2.3-3-3.1-4.7
		c-1.5-3.3-4.2-2.4-6.7-2.4c-1.2,0-1.3,0.9-1.3,1.8c0,1.9-0.2,3.8,0,5.6c0.5,3.5-0.6,4.7-4.4,4.6c-3-0.1-4-0.7-3.9-3.9
		c0.2-10.1,0.1-20.2,0-30.3c0-2.2,0.5-3.1,2.9-3c5.2,0.2,10.5,0,15.7,0.2c6.6,0.3,10.5,3.4,11.9,8.9c1.5,6-0.6,10.7-6.2,14.2
		C779.7,650.2,779.4,650.4,778.9,650.7"/>
	<path class="st175" d="M616.3,645.2c0-5.2,0.1-10.5,0-15.7c-0.1-2.1,0.5-2.8,2.7-2.8c7.6,0.1,15.2,0.2,22.9,0
		c3-0.1,2.5,1.8,2.3,3.4c-0.1,1.5,1.2,4-2.3,3.8c-5-0.2-10,0.1-15-0.1c-3.5-0.2-2.5,2.2-2.6,4c-0.1,1.8-0.6,3.8,2.6,3.6
		c4.1-0.2,8.2,0.1,12.4-0.1c3.6-0.2,2.5,2.2,2.6,4c0.1,1.9,0.3,3.7-2.7,3.5c-4.1-0.3-8.2,0.1-12.4-0.1c-3.3-0.2-2.5,2-2.4,3.7
		c0.1,1.7-1.1,4.2,2.5,4.1c4.9-0.2,9.8,0.2,14.6-0.1c3.1-0.2,3.1,1.5,3,3.7c-0.1,1.9,0.7,3.9-2.7,3.8c-7.6-0.3-15.2-0.1-22.9,0
		c-1.9,0-2.6-0.5-2.5-2.5C616.4,655.9,616.3,650.6,616.3,645.2"/>
	<path class="st175" d="M839.4,663.7c-1.5,0-2.4-0.1-3.2,0c-4.2,0.9-6.5-0.9-7.4-5c-0.5-2.5-1.9-3.8-4.7-3.4c-1.2,0.2-2.5,0.2-3.7,0
		c-5.6-0.7-10.4-0.2-11.4,6.8c-0.2,1.1-1,1.6-2.2,1.5c-2.1-0.1-4.2,0-6.7,0c5.2-12.2,10.2-24.2,15.3-36c1.2-2.7,3.8-0.9,5.7-1.3
		c1.5-0.3,2.5,0.2,3.1,1.8C829.2,639.9,834.2,651.6,839.4,663.7"/>
	<path class="st175" d="M586.5,626.1c3.8-0.2,7.7,1.2,11.3,3.6c1.9,1.3,2.1,2.3,0.5,4.3c-2.1,2.6-3.8,4.2-6.9,1.3
		c-1-0.9-2.7-1.3-4.1-1.5c-5.2-0.8-9.4,1.7-11.4,6.4c-2.2,5-0.8,11,3.1,14.3c3.7,3.1,9.1,3.2,13.6,0.1c1.7-1.1,2.7-2.5,4.8-0.2
		c3.3,3.7,3.5,3.8-0.9,6.7c-7,4.6-16.3,4.3-22.8-0.7c-6.6-5-9-13.7-6.2-21.8C570.1,630.8,577.2,626.1,586.5,626.1"/>
	<path class="st176" d="M725,626.7c4.2,0,8.5,0.2,12.7,0c3.7-0.2,2.3,2.4,2.5,4c0.1,1.8,0.7,4.1-2.5,3.5c-0.1,0-0.3,0-0.4,0
		c-2.7,0.3-6.3-1.2-7.8,0.7c-1.3,1.8-0.5,5.3-0.5,8c0,6.1-0.1,12.2,0,18.4c0,2-0.6,2.5-2.5,2.5c-5.7,0.1-5.7,0.2-5.7-5.7
		c0-7-0.1-14,0.1-21c0-2.3-0.6-3.2-2.9-2.9c-1.5,0.2-3-0.1-4.5,0.1c-3,0.4-4.1-0.6-4.1-3.8c0-3.2,0.9-4.1,4-3.8
		C717.3,626.9,721.1,626.7,725,626.7"/>
	<path class="st177" d="M854.5,645.1c0-5.1,0.2-10.3-0.1-15.4c-0.2-4.3,2.8-2.7,4.8-3c2.4-0.4,3.5,0.3,3.5,3.1
		c-0.2,7.9,0,15.7-0.1,23.6c0,2.4,0.7,3,3,2.9c4.4-0.2,8.8,0.1,13.1-0.1c3.6-0.2,2.4,2.3,2.5,4c0.1,1.7,0.8,3.7-2.5,3.6
		c-7.2-0.2-14.5-0.1-21.7,0c-2.1,0-2.5-0.7-2.5-2.6C854.5,655.8,854.5,650.4,854.5,645.1"/>
	<path class="st178" d="M632.9,606.9c7.8-0.5,15.8,0.7,23.6-0.6c13.5-2.3,22.5-12.1,24.6-25.7c1.6-10.1-0.1-19.6-4.8-28.6
		c1.3,0.2,1.8,1.3,2.5,2.1c9.6,12.8,7.8,36.6-3.5,47.7c-5.1,5.1-11.5,7.5-18.5,7.8c-7.3,0.3-14.7,0-22,0.2
		C632,609.8,632,608.7,632.9,606.9"/>
	<path class="st178" d="M480.8,606.9c0.1,0,0.3-0.1,0.4-0.1c8.2,1.7,12.4-2.4,15.9-9.4c5.2-10.6,10.9-21,13.2-32.8
		c1.5-7.6,1.5-15.1-1.8-22.3c4.9,3.2,5.5,8.4,6,13.4c0.8,8.7-1.5,16.8-4.6,24.8c-3.6,9.5-8.6,18.3-13.8,27c-0.9,1.5-2,2.4-3.9,2.2
		c-2.5-0.2-5-0.2-7.5,0C482.3,610,481.1,609.1,480.8,606.9"/>
	<path class="st179" d="M863.2,606.9h15.6c-2.1-4.4-2.1-8.6-2.1-12.9c0-16.7,0-33.4,0-50.1c2.8,1.4,3.6,3.7,3.6,6.8
		c-0.1,16.2-0.1,32.4,0,48.6c0,2.4-0.3,4.8,0.6,7c1.2,2.8,0.6,3.7-2.5,3.5c-4.3-0.2-8.7-0.2-13.1,0
		C862.7,609.9,862.4,609,863.2,606.9"/>
	<path class="st180" d="M806.2,606.9h15.3c-3.1-8-1.6-15.9-1.8-23.8c-0.2-11.5-0.1-22.9-0.1-34.4c0-2.6,0-5.2,1.2-7.6
		c0.4,0.9,1.2,1.1,2.2,1.1c1.5-0.1,1.6,0.7,1.2,1.9c-1.4,4.2-1.4,8.6-1.4,12.9c0,13.5,0,26.9,0,40.4c0,3.5,0.1,7,1.4,10.3
		c0.8,2-0.2,2.1-1.7,2.1c-4.9,0-9.7-0.1-14.6,0C805.2,609.9,805.7,608.5,806.2,606.9"/>
	<path class="st180" d="M437.2,606.9h14.1c-1.2-21-0.5-41.8-0.5-62.5c2.6,0.9,3.1,2.8,3.1,5.3c-0.1,14.1,0,28.2,0,42.3
		c0,5.8-0.5,11.7,2,17.7c-6.1,0-11.9,0-17.6,0C435.4,609.7,437.3,607.9,437.2,606.9"/>
	<path class="st181" d="M551.8,606.9h14.1c-1.3-21-0.5-41.8-0.5-62.5c2.5,1.1,3.1,3.1,3.1,5.8c-0.1,14.6-0.1,29.2,0,43.8
		c0,5.2-0.5,10.5,2.1,15.8c-6.2,0-12,0-17.7,0C549.6,609.8,551.7,608,551.8,606.9"/>
	<path class="st182" d="M797.2,605.5c-3.3-2.4-4.8-6-6.3-9.5c-2-4.7-3.8-9.5-5.6-14.2c-0.5-1.3-0.8-2.2,1.1-3.1
		c12-5.9,15.4-16.5,9.5-28.6c-0.2-0.3-0.2-0.7-0.3-1.1c9.6,7.2,8.3,24.2-2.5,31.1c-4.9,3.1-5,3.1-2.8,8.6
		C792.4,594.3,794.8,599.9,797.2,605.5"/>
	<path class="st183" d="M351.8,606.9c13.6,0,27.1-0.2,40.7,0c3,0,3.8-0.9,3.6-3.8c-0.2-3,0-6,0-8.9c1.8-0.7,3.2-1.1,3.1,1.9
		c-0.2,3.6-0.2,7.2,0,10.8c0.1,2.3-0.8,3-3,3c-14.1-0.1-28.1-0.1-42.2,0C351.3,609.8,350.9,609,351.8,606.9"/>
	<path class="st184" d="M704.1,604.3c9.3,3.9,18.8,4.5,28.5,1.7c3.8-1.1,7.4-2.6,10.1-5.5c3.4-3.7-1.4-6.7-1.4-10.2
		c1.7-2.1,2.9-0.8,3.5,0.8c1.2,2.9,2.3,5.7,2.7,8.8c-0.5,1.2,0.4,2.9-1.4,3.6c-11,8.4-27.6,9.6-39.6,2.8
		C705.6,605.9,704.5,605.6,704.1,604.3"/>
	<path class="st185" d="M368.5,593.2c-2.1,0.5-3.2,0-3.2-2.5c0.1-14.4,0-28.9,0.1-43.3c0-2,0.2-3.9,1.2-5.7c3,0.3,4,1.4,2.7,4.6
		c-0.9,2.3-0.8,5.1-0.8,7.7C368.4,567,368.5,580.1,368.5,593.2"/>
	<path class="st181" d="M750.6,606.9h15c-3-11.9-0.7-23.7-1.3-35.5c1.8,2.6,2.7,5.4,3.6,8.3c-0.8,9.9-1.3,19.7,1,30
		c-5.8,0-11.7,0.1-17.6-0.1C748.9,609.6,750.6,607.9,750.6,606.9"/>
	<path class="st181" d="M574.4,606.9h15.2c-3.2-11.6-0.7-23.1-1-34.7c1,2,2.1,4,3.1,5.9c-1.3,5.6-0.3,11.4-0.5,17
		c-0.2,4.7-0.3,9.5,2.2,14.6c-6.5,0-12.3,0.1-18.2-0.1C572.7,609.6,574.4,607.9,574.4,606.9"/>
	<path class="st186" d="M408,606.9H424c-2-3.6-4.1-6.7-5.4-10.1c-3.8-10.2-3.8-10.2,7-10.2c2,0,4,0.2,6,0c2.8-0.3,4,0.7,3.3,3.5
		c-4.5-1-9.1-0.3-13.7-0.5c-1.8-0.1-1.4,1.1-1.3,2.3c0.6,5,2.9,9.4,4.7,14c1.4,3.5,1.4,3.5-2.1,3.5c-3.9,0-7.7-0.1-11.6,0
		C409,609.4,408,608.7,408,606.9"/>
	<path class="st187" d="M624.9,606.1c-0.2-0.1-0.3-0.3-0.3-0.6c-0.9-3.5-1-7.1-1-10.7c-0.1-14.3,0-28.6-0.1-42.9
		c0-3.2,1.6-6.3,0.3-9.6l0.1-0.1c2.8-0.4,4.4,0.2,2.8,3.5c-0.9,1.8-0.6,3.9-0.6,5.9c0,16.2,0,32.4,0,48.7c0,2.5,0,5,1,7.4
		c0.8,1.7,0.1,2.2-1.6,2.2c-4.5,0-9-0.1-13.5,0c-2.1,0-2.8-1.3-3.3-2.9c0.5,0,1.1,0,1.6,0c4.4,1.3,9,0.4,13.5,0.5
		C624.6,607.4,624.9,606.8,624.9,606.1"/>
	<path class="st188" d="M489.4,579.8c-0.3,0.8-0.7,1.8-1.6,1.9c-1.2,0.1-1-1.2-1.2-2c-3.2-10.2-6.7-20.3-9.2-30.7
		c-0.6-2.6-1.3-5.3,0.2-7.9c0.3,0.3,0.7,0.9,1,0.9c2.4-0.1,3.3,0.6,1.9,3c-0.7,1.2-0.7,2.7-0.4,4
		C482.5,559.5,485.5,569.8,489.4,579.8"/>
	<path class="st179" d="M740.1,559.4c0.7-4.6,3.3-8.6,3.9-13.2c1,0.8,2.1,1.7,3.2,2.6c1-1.4,0.2-2.8,0.6-4c0.7,0.9,0.5,1.9,0.5,2.9
		c0,16.7,0,33.4,0,50c0,1-0.3,1.9-0.4,2.9c-0.4-0.2-0.7-0.5-0.7-1c-0.6-2.4-0.8-4.9-0.7-7.4c0-11,0-22,0-33c0-1.7,0-3.4,0.2-4.4
		c-0.2,1.2-0.7,3-1.4,4.8c-0.5,1.3-1,2.9-2.6,2.8C741.1,562.4,740.3,561.1,740.1,559.4"/>
	<path class="st187" d="M521.8,606.9H538c-0.5-3-3.1-4.7-3.3-7.4c-0.5-2.2-1.5-4.2-1.9-6.4c-0.2-1.3-1.4-3.3,1.4-3.6
		c0.4,6.5,2.8,12.3,6.3,17.7c1.3,2,0.8,2.5-1.4,2.5c-4.6-0.1-9.2-0.1-13.8,0C523.1,609.8,521.9,609.1,521.8,606.9"/>
	<path class="st189" d="M534.2,589.5c-1.5,1-0.9,2.3-0.6,3.6c0.4,2.1,1.4,4.1,1.1,6.4c-2.2-3.3-2.9-7-3.7-10.8
		c-0.3-1.6,0.2-2.3,1.9-2.2c4.7,0.1,9.4,0.1,14.1,0c1.6,0,2.2,0.6,2.3,2.1c0.3,3.7,0.7,7.4-0.2,11c0-2.2-0.3-4.5-0.1-6.7
		c0.2-2.5-0.6-3.6-3.3-3.4C541.9,589.7,538.1,589.5,534.2,589.5"/>
	<path class="st190" d="M779.2,606.8c5,0,10.1,0,15.1-0.1c1.1,0,2.5,0.6,3.4-0.7c0.9,1,1.8,2,3.4,3.7c-7.3,0-13.8,0-20.3,0
		C778.6,609.8,779.4,608.1,779.2,606.8"/>
	<path class="st191" d="M850,606.1c-1.6-1.7-2.8-3.5-3.4-5.8c-0.7-2.8-1.9-5.4-2.5-8.2c-0.4-1.9-0.1-3.6,1.8-3.9
		c5-0.7,10.1-1.5,15,0.6c0,0.3,0,0.5,0,0.8c-3.7,0-7.5,0.2-11.2-0.1c-3.8-0.3-4.1,1.4-3.3,4.4c1.1,4.5,2.9,8.7,5.3,12.7
		c0.5,0.8,1,1.7,1.9,3.2c-6.3,0-12.1,0-17.8,0c-1.9,0-1.9-1.6-2.4-2.9c0.5,0,1,0,1.5,0c4.7,2.2,9.7,0.9,14.5,0.8
		C849.8,607.6,849.9,606.7,850,606.1"/>
	<path class="st187" d="M408,606.9c0.6,1.5,1.6,2.2,3.4,2.2c3.6-0.1,7.2-0.2,10.7,0c2.8,0.2,3.1-1.1,2.4-3.2c1,0.9,2.4,2,1.8,3.3
		c-0.5,1.2-2.2,0.6-3.4,0.6c-4,0.1-8-0.1-11.9,0.1c-2.3,0.1-3.6-0.6-3.8-2.9C407.5,606.9,407.8,606.9,408,606.9"/>
	<path class="st192" d="M747.6,599.9c0.1,0.3,0.2,0.5,0.3,0.7c-0.4,1,0.1,2.2-0.8,3.1c-0.4,0-0.7-0.1-1.1-0.1
		c0.8-1.1,0.9-2.4,0.8-3.7C747.2,599.7,747.4,599.6,747.6,599.9"/>
	<path class="st193" d="M623.8,542.2c1.4,0.9,2.5,2,1.5,3.9c-0.8,1.5-0.6,3.1-0.6,4.8c0,18.2-0.1,36.4-0.1,54.6
		c-1.9-2.2-1.8-4.9-1.8-7.5c-0.1-17.7-0.6-35.3,0.3-53C623.2,544.1,623,543,623.8,542.2"/>
	<path class="st193" d="M624.9,606.1c0.8,1.1,0.6,2.1-0.8,2.1c-4.3,0.1-8.6,0-12.9-0.2c-0.3,0-0.5-0.7-0.8-1.1c3.7,0,7.3,0,11-0.2
		C622.7,606.7,624,607.2,624.9,606.1"/>
	<path class="st194" d="M549.3,572.7c-4.8,0.9-9.7,0.4-14.5,0.3c-1-4.5,1.7-7.8,3.8-11.2c1-1.6,2.4-2.9,4-3.9c1.9-1.2,3.9-3.1,6.1-2
		c1.7,0.9,0.6,3.4,0.7,5.2C549.4,564.9,549.5,568.8,549.3,572.7"/>
	<path class="st195" d="M549.3,572.7c-0.1-4.5-0.3-9-0.1-13.5c0.2-3.6-1.3-3.4-3.6-2.1c-5.4,2.9-8.4,7.7-10.1,13.4
		c-0.3,0.8-0.5,1.7-0.7,2.5c-4.3,0.2-4.3,0.1-3.2-4c1.3-4.7,3.3-8.9,6.8-12.2c2-1.9,4.4-3.3,7.1-3.9c2.6-0.6,4.3-0.4,4.2,3.1
		C549.4,561.5,550.1,567.1,549.3,572.7"/>
	<path class="st196" d="M434.8,555.8c0,5,0,9.9,0.1,14.9c0.1,2-0.7,2.5-2.6,2.5c-4.1-0.2-8.2-0.1-12.3-0.2
		c-1.3-6.8,7.3-17.5,14.1-17.5C434.4,555.4,434.6,555.6,434.8,555.8"/>
	<path class="st197" d="M434.8,555.8c-9.1,2.1-12.4,9.1-14.7,17.1c-3.1,0.7-4.4-0.1-3.2-3.6c1.8-5.8,4.2-11.2,9.6-14.6
		c1.6-1,3.3-1.7,5.2-2C434.2,552.3,435.5,553,434.8,555.8"/>
	<path class="st198" d="M860.8,555.8c0,5,0,9.9,0.1,14.9c0,1.6-0.2,2.5-2.2,2.4c-4.2-0.2-8.4-0.2-12.7-0.2c-0.9-3.1,0.8-5.5,2.1-8
		c1.9-3.6,4.6-6.5,8.1-8.5C857.7,555.7,859.1,554.7,860.8,555.8"/>
	<path class="st195" d="M860.8,555.8c-7.1,1.7-10.9,6.8-13.4,13.2c-0.5,1.3-0.9,2.6-1.3,3.9c-3.3,0.8-4.1-0.3-3.2-3.5
		c2.3-7.7,5.8-14.4,14.4-16.6C859.8,552.2,861.6,552.5,860.8,555.8"/>
	<path class="st186" d="M860.8,588.8c-4.4,0-8.7,0-13.1,0c-2.5,0-3.5,0.7-2.9,3.6c0.5,2.6,2,5.1,1.7,7.9c-0.3-0.5-0.7-1-1-1.5
		c-1.7-3.7-4.2-8.1-2.7-11.5c0.9-2.2,6.4-0.5,9.8-0.7c2.1-0.1,4.2,0.1,6.3,0C860.7,586.4,861.1,587.2,860.8,588.8"/>
	<path class="st186" d="M850,606.1c1,1.5,1.9,3-1.1,2.9c-4,0-7.9,0-11.9,0c-1.5,0-2.3-0.5-2.3-2.1c3.9,0,7.9,0,11.8-0.1
		C847.7,606.7,849,607.2,850,606.1"/>
	<path class="st196" d="M781.3,555.9c3.6,6.1,1,11.5-6.2,12.9c-1.1,0.2-2.2,0.1-3.4,0.1c-5.6,0-5.7-0.1-5.8-5.9
		c-0.1-8.7,3.1-11.1,11.5-8.7C778.8,554.6,780.2,554.9,781.3,555.9"/>
	<path class="st199" d="M781.3,555.9c-3.6-0.6-7.1-0.7-10.7-0.7c-2.3,0-3.6,0.7-3.3,3.2c0.1,0.6,0,1.2,0,1.9c0,8,0,8,7.9,8.6
		c-3.1,0.9-6.1,0.3-9.2,0.3c-1.2,0-1.8-0.5-1.8-1.8c0-4.5,0-9,0-13.4c0-0.7,0.3-1.2,0.9-1.5c3.2-1.6,13.6,0.5,16.2,3.2
		C781.2,555.6,781.2,555.8,781.3,555.9"/>
	<path class="st198" d="M660.6,556.5c6.6,7.8,7.1,23.6,1,31.8c-3,4.1-7,5.7-12,4.9c-1.5-1.5-1.3-3.4-1.3-5.3c0-9-0.1-18,0-26.9
		c0-6.8,3-8.7,9.3-6C658.7,555.4,659.7,555.8,660.6,556.5"/>
	<path class="st195" d="M660.6,556.5c-0.5-0.2-0.9-0.3-1.4-0.5c-8.5-2.5-9.6-1.6-9.6,7c0,10,0,20.1,0,30.1c-2.4,0.6-3.3-0.2-3.3-2.8
		c0.1-11.7,0.1-23.4,0-35.2c0-2.2,0.6-3.1,2.9-3C653.5,552.4,657.8,552.6,660.6,556.5"/>
	<path class="st198" d="M747.6,599.9c-0.2,0-0.4,0-0.7,0c-1-2.8-2.1-5.5-2.9-8.3c-0.5-1.9-1.4-2-2.9-1.3c-0.4-1.3-0.8-2.5-1.3-3.8
		c-11.1,9-21,10.2-29.7,3.7c-2.5-2.6-1.6-5,0.3-7.3c6.7-4.9,13.7-4.4,20.9-1.4c3.9,1.2,3.9,1.2,4-2.7c0.1-4.3,0.5-8.7-2.5-12.3
		c-5.2-5.3-15.2-5.3-21.7,0.1c-1.2,1-2.2,2.3-3.4,3.4c-2.5-0.8-0.5-2.7-0.9-4c4-11.5,17.9-16,29.5-9.4c1.2,0.9,2.4,1.9,3.6,2.8
		c0.4,0.3,0.8,0.6,1.1,1c1.8,2.7,2.4,1.4,3-0.8c0.9-2.8,1.9-5.6,3.4-8.3V599.9z"/>
	<path class="st197" d="M736.5,556.6c-6.9-2.4-13.7-3.4-20.5,0.3c-3.8,2.1-6.8,5-8.2,9.2c-0.4,1.4-1.1,2.7-1.1,4.2
		c-0.4,1.2-0.6,2.6-1,3.8c-0.5,2.4-1,4.8-1.6,7.7c-4.2-12.5,0.2-22.7,7-27.2C718.9,549.6,730.2,550.5,736.5,556.6"/>
	<path class="st188" d="M732,582c-5-1.8-10.1-2.2-15.4-1.2c-2.1,0.4-3.9,1.4-5.6,2.7c-0.3,0.3-0.6,0.3-1,0c-0.7-1.3-1.3-2.7-0.5-4.2
		c7.9-3.4,15.4-2.8,22.5,2c0.2,0.2,0.2,0.3,0.2,0.5C732.1,581.9,732,582,732,582"/>
	<path class="st200" d="M732,582c0-0.3,0-0.5,0-0.8c1.9-1.3,0.8-3.2,0.9-4.8c0.2-3.3,0.1-6.7,0.1-10.1c3,1.6,3.9,4.2,3.5,7.4
		c-0.2,2,0.1,4-0.1,5.9c-0.1,1.4,0.8,3.4-0.6,4C734.6,584.3,733.1,582.9,732,582"/>
	<path class="st201" d="M710.2,583.5c0.3,0,0.5,0,0.8,0c-1.3,2.1-1.7,4.3-0.7,6.7c-2.1-1.4-4.1-2.9-3.8-5.9c0.3-0.4,0.8-0.5,1.3-0.4
		C708.7,584.8,709.2,582.7,710.2,583.5"/>
	<path class="st202" d="M710.2,583.5c-0.8,0.2-1.1,1.6-2.2,0.7c-1.3-1.7-0.1-3,0.8-4.4c0.2-0.2,0.5-0.4,0.7-0.5
		C709.9,580.6,710.5,582,710.2,583.5"/>
	<path class="st203" d="M708.7,579.8c-0.3,1.4-1,2.8-0.8,4.4c-0.5,0-1,0.1-1.5,0.1C706.2,582.3,707,580.8,708.7,579.8"/>
	<path class="st204" d="M706.4,570c0.2-1.4,0.4-2.8,1.5-3.9c0.7,1.3-1.2,2.6,0.1,3.9c-0.3,0.5-0.6,1-0.9,1.5
		C705.8,571.5,706.1,570.7,706.4,570"/>
	<path class="st205" d="M706.4,570c0.2,0.5,0.5,1,0.7,1.5c-0.5,0.9-0.9,1.8-1.4,2.6C705.8,572.7,705.3,571.2,706.4,570"/>
	<path class="st206" d="M763.9,639.9c0.1-6.7-0.9-5.8,5.7-5.9c1.7,0,3.5,0.1,5.2,0.5c2.3,0.5,3.6,2.2,3.6,4.6
		c0.1,2.2-0.8,3.9-2.9,4.8c-3.3,1.4-7,1.2-10.3,0.6C762.4,644.1,764.8,641,763.9,639.9"/>
	<path class="st207" d="M819.7,636.3c1.8,4.4,3.2,7.9,4.6,11.5c-10,1.3-10,1.3-6.4-7.4C818.4,639.4,818.9,638.3,819.7,636.3"/>
</g>
</svg>
