<?xml version="1.0" encoding="UTF-8"?> <svg xmlns="http://www.w3.org/2000/svg" width="231" height="56" viewBox="0 0 231 56" fill="none"><path fill-rule="evenodd" clip-rule="evenodd" d="M39.3032 53.9421C43.9326 49.176 52.278 41.5949 66.9989 40.3708L67.117 6.21875L63.3638 6.2374L63.2581 37.1644C56.5781 37.5683 42.665 45.9199 39.3032 53.9421ZM38.2158 53.9421C33.5864 49.176 25.241 41.5949 10.5201 40.3708L10.402 6.21875L14.1552 6.2374L14.2609 37.1644C20.9409 37.5683 34.854 45.9199 38.2096 53.9421H38.2158Z" fill="#BE1F24"></path><path fill-rule="evenodd" clip-rule="evenodd" d="M38.5142 55.9991C26.223 50.2139 18.6917 48.909 4.03909 49.0643C3.95831 36.22 2.55395 24.4321 0 12.6504L7.71155 12.6815L7.8234 44.0993C16.3179 44.3106 27.9256 44.4411 38.5142 55.9991Z" fill="#19437E"></path><path fill-rule="evenodd" clip-rule="evenodd" d="M38.8939 55.9991C51.1851 50.2139 58.7165 48.909 73.369 49.0643C73.4498 36.22 74.8542 24.4321 77.4081 12.6504L69.6966 12.6815L69.5847 44.0993C61.0902 44.3106 49.4825 44.4411 38.8939 55.9991Z" fill="#19437E"></path><path fill-rule="evenodd" clip-rule="evenodd" d="M37.6569 2.20596L37.5637 12.6206L26.7514 12.6455L26.8198 14.6464L37.6072 14.6029L37.6569 47.7172C37.0418 46.3625 36.3334 45.1508 35.5007 44.0633L35.451 16.784L24.7505 16.728L24.5641 10.4457L35.4261 10.4084L35.4572 0H41.9135L41.9384 10.4271L52.8253 10.4643L52.9558 16.6721L41.8017 16.7902L41.8762 44.8525C40.9876 45.9337 40.2357 47.394 39.6268 48.5125L39.6889 14.5842L50.5199 14.6339L50.5696 12.633L39.7076 12.6019L39.6206 2.23704L37.6569 2.21218V2.20596Z" fill="#19437E"></path><path fill-rule="evenodd" clip-rule="evenodd" d="M128.498 13.7273C130.754 13.7273 131.792 12.267 131.792 9.85596C131.792 7.27716 130.686 5.98465 128.498 5.98465C126.311 5.98465 125.186 7.44493 125.186 9.85596C125.186 12.4348 126.292 13.7273 128.498 13.7273ZM130.195 11.9501C129.884 12.4161 129.325 12.6522 128.498 12.6522C127.672 12.6522 127.113 12.4161 126.789 11.9501C126.479 11.4654 126.323 10.7694 126.323 9.84975C126.323 8.93008 126.479 8.23411 126.789 7.76806C127.119 7.28337 127.678 7.05346 128.498 7.05346C129.319 7.05346 129.884 7.28958 130.195 7.75563C130.505 8.22168 130.661 8.92386 130.661 9.85596C130.661 10.7881 130.505 11.4902 130.195 11.9563V11.9501ZM122.974 2.79688C122.322 2.79688 121.98 3.60469 122.446 4.07074C122.912 4.50572 123.707 4.17638 123.707 3.54255C123.707 3.12 123.366 2.79688 122.974 2.79688ZM123.533 13.603V6.10893H122.396V13.603H123.533ZM115.343 9.83732C115.343 7.7867 116.014 7.05346 117.767 7.05346C118.407 7.05346 118.904 7.12802 119.289 7.27094V12.3415C118.904 12.5466 118.401 12.6522 117.779 12.6522C115.927 12.6522 115.337 11.7202 115.337 9.83732H115.343ZM120.433 6.41963C119.687 6.12136 118.829 5.98465 117.854 5.98465C115.43 5.98465 114.219 7.27716 114.219 9.85596C114.219 12.4348 115.368 13.7273 117.686 13.7273C118.357 13.7273 118.898 13.6341 119.302 13.4476V14.1001C119.302 15.405 118.599 15.8276 117.189 15.8276C116.288 15.8276 115.492 15.6598 114.809 15.3118L114.635 16.3682C115.399 16.7286 116.251 16.8964 117.17 16.8964C119.345 16.8964 120.433 15.9643 120.433 14.1001V6.41963ZM107.675 9.24699C107.675 7.73699 108.359 6.99131 109.745 6.99131C111.13 6.99131 111.826 7.73699 111.826 9.24699V9.3402H107.675V9.24699ZM112.914 9.26563C112.914 7.10317 111.776 5.98465 109.776 5.98465C107.613 5.98465 106.526 7.27716 106.526 9.86839C106.526 12.4596 107.706 13.7211 110.13 13.7211C111.049 13.7211 111.901 13.5533 112.665 13.2053L112.497 12.1303C111.845 12.472 111.068 12.646 110.148 12.646C108.502 12.646 107.675 11.8817 107.675 10.3593V10.2972H112.789C112.87 9.99888 112.914 9.65711 112.914 9.2532V9.26563ZM109.104 5.22033H110.037L111.453 3.10757H110.335L109.104 5.22033ZM103.077 11.5151C103.077 12.9629 103.698 13.69 104.96 13.69C105.351 13.69 105.643 13.6403 105.879 13.5346L105.724 12.5093C105.569 12.5901 105.351 12.6212 105.053 12.6212C104.494 12.6212 104.214 12.3229 104.214 11.3473V2.99573H103.077V11.5151ZM98.2673 13.7273C100.523 13.7273 101.561 12.267 101.561 9.85596C101.561 7.27716 100.455 5.98465 98.2673 5.98465C96.08 5.98465 94.9552 7.44493 94.9552 9.85596C94.9552 12.4348 96.0613 13.7273 98.2673 13.7273ZM99.9637 11.9501C99.653 12.4161 99.0938 12.6522 98.2673 12.6522C97.4408 12.6522 96.8816 12.4161 96.5585 11.9501C96.2478 11.4654 96.0924 10.7694 96.0924 9.84975C96.0924 8.93008 96.2478 8.23411 96.5585 7.76806C96.8878 7.28337 97.4471 7.05346 98.2673 7.05346C99.0875 7.05346 99.653 7.28958 99.9637 7.75563C100.274 8.22168 100.43 8.92386 100.43 9.85596C100.43 10.7881 100.274 11.4902 99.9637 11.9563V11.9501ZM88.0764 8.7188C88.0764 5.966 88.8407 4.73563 90.9348 4.73563C91.8234 4.73563 92.6747 4.9842 93.5012 5.46889L93.6752 4.35037C92.8052 3.86568 91.9042 3.63577 90.9845 3.63577C88.1074 3.63577 86.8771 5.36325 86.8771 8.78094C86.8771 12.1986 88.1199 13.7583 91.028 13.7583C92.103 13.7583 93.0041 13.5098 93.7622 13.0251L93.5882 11.919C92.9171 12.4037 92.0471 12.6522 90.9783 12.6522C88.8034 12.6522 88.0702 11.3784 88.0702 8.7188H88.0764Z" fill="#19437E"></path><path fill-rule="evenodd" clip-rule="evenodd" d="M226.996 33.7171C226.431 33.8538 225.704 33.9346 224.79 33.9346C223.417 33.9346 222.795 33.6674 222.795 32.4556C222.795 31.4055 223.28 30.9767 224.573 30.9767H226.996V33.7233V33.7171ZM230.47 27.9008C230.47 24.4831 228.531 22.7867 224.629 22.7867C223.255 22.7867 221.776 23.0042 220.186 23.433L220.695 26.6083C221.801 26.1795 223.063 25.962 224.436 25.962C226.132 25.962 226.996 26.4716 226.996 27.4969V28.3296H224.629C221.074 28.3296 219.297 29.7588 219.297 32.5861C219.297 35.4135 221.049 36.8924 224.927 36.8924C227.108 36.8924 228.941 36.5942 230.476 36.0287V27.8946L230.47 27.9008ZM209.069 36.5693V26.3349C209.796 26.1733 210.684 26.0925 211.679 26.0925C213.269 26.0925 214.077 26.7947 214.077 28.1929V36.5693H217.551V28.0872C217.551 24.5577 215.612 22.7805 211.759 22.7805C209.094 22.7805 207.049 23.0788 205.564 23.6442V36.5693H209.063H209.069ZM194.932 28.1432C194.932 26.6083 195.74 25.8253 197.355 25.8253C198.971 25.8253 199.885 26.658 199.885 28.1432V28.2799H194.932V28.1432ZM203.228 28.8702C203.228 24.8062 201.314 22.7867 197.467 22.7867C193.186 22.7867 191.328 25.6141 191.328 29.9204C191.328 34.6616 193.59 36.8924 198.219 36.8924C200.021 36.8924 201.531 36.6252 202.799 36.1095L202.258 32.7974C201.102 33.307 199.779 33.5804 198.244 33.5804C196.063 33.5804 194.932 32.6359 194.932 31.2626V31.1259H202.929C203.116 30.5045 203.228 29.7526 203.228 28.864V28.8702ZM185.083 32.5054C185.083 35.4384 186.643 36.8427 189.097 36.8427C189.768 36.8427 190.334 36.7619 190.818 36.5755L190.309 33.3691C189.582 33.6363 188.426 33.7979 188.588 31.7286V17.7285H185.089V32.5116L185.083 32.5054ZM174.612 28.1432C174.612 26.6083 175.42 25.8253 177.036 25.8253C178.651 25.8253 179.565 26.658 179.565 28.1432V28.2799H174.612V28.1432ZM182.908 28.8702C182.908 24.8062 180.994 22.7867 177.148 22.7867C172.866 22.7867 171.008 25.6141 171.008 29.9204C171.008 34.6616 173.27 36.8924 177.899 36.8924C179.702 36.8924 181.212 36.6252 182.479 36.1095L181.939 32.7974C180.783 33.307 179.459 33.5804 177.924 33.5804C175.743 33.5804 174.612 32.6359 174.612 31.2626V31.1259H182.61C182.796 30.5045 182.908 29.7526 182.908 28.864V28.8702ZM165.329 29.0317V36.5693H168.939V19.0645H165.329V25.6638H158.947V19.0645H155.336V36.5693H158.947V29.0317H165.329ZM145.375 33.7171C144.81 33.8538 144.083 33.9346 143.17 33.9346C141.796 33.9346 141.175 33.6674 141.175 32.4556C141.175 31.4055 141.66 30.9767 142.952 30.9767H145.375V33.7233V33.7171ZM148.849 27.9008C148.849 24.4831 146.91 22.7867 143.008 22.7867C141.635 22.7867 140.156 23.0042 138.565 23.433L139.075 26.6083C140.181 26.1795 141.442 25.962 142.815 25.962C144.512 25.962 145.375 26.4716 145.375 27.4969V28.3296H143.008C139.454 28.3296 137.676 29.7588 137.676 32.5861C137.676 35.4135 139.429 36.8924 143.306 36.8924C145.487 36.8924 147.32 36.5942 148.855 36.0287V27.8946L148.849 27.9008ZM127.908 31.7224C127.908 35.1401 129.629 36.8676 133.103 36.8676C134.395 36.8676 135.526 36.6812 136.471 36.3021L135.93 32.99C135.147 33.3691 134.209 33.5555 133.103 33.5555C131.997 33.5555 131.406 32.9652 131.406 31.7535V26.4219H135.986V23.1098H131.406V19.6114H127.908V31.7286V31.7224ZM117.35 36.5693V26.3349C118.077 26.1733 118.966 26.0925 119.96 26.0925C121.551 26.0925 122.359 26.7947 122.359 28.1929V36.5693H125.833V28.0872C125.833 24.5577 123.894 22.7805 120.041 22.7805C117.375 22.7805 115.331 23.0788 113.846 23.6442V36.5693H117.344H117.35ZM108.042 33.7171C107.476 33.8538 106.749 33.9346 105.836 33.9346C104.463 33.9346 103.841 33.6674 103.841 32.4556C103.841 31.4055 104.326 30.9767 105.618 30.9767H108.042V33.7233V33.7171ZM111.516 27.9008C111.516 24.4831 109.577 22.7867 105.674 22.7867C104.301 22.7867 102.822 23.0042 101.231 23.433L101.741 26.6083C102.847 26.1795 104.108 25.962 105.482 25.962C107.178 25.962 108.042 26.4716 108.042 27.4969V28.3296H105.674C102.12 28.3296 100.343 29.7588 100.343 32.5861C100.343 35.4135 102.095 36.8924 105.973 36.8924C108.154 36.8924 109.987 36.5942 111.522 36.0287V27.8946L111.516 27.9008ZM86.8771 35.3016C88.356 36.3518 90.1643 36.8924 92.3454 36.8924C94.2034 36.8924 95.7382 36.4326 97.0059 35.4943C98.2735 34.5498 98.9198 33.1765 98.9198 31.3185C98.9198 25.2599 90.7857 27.1986 90.7857 23.8306C90.7857 22.7556 91.7799 22.1591 93.265 22.1591C94.7502 22.1591 96.0924 22.6438 97.3041 23.6132L98.3543 20.357C96.981 19.3069 95.3094 18.7973 93.321 18.7973C91.5997 18.7973 90.1456 19.2572 88.9339 20.1458C87.747 21.0344 87.1567 22.3269 87.1567 24.0233C87.1567 26.3908 88.4244 27.9567 90.0089 28.6278C90.8167 28.951 91.6246 29.2182 92.4075 29.4605C94.0232 29.8893 95.2908 30.5355 95.2908 31.6416C95.2908 32.8533 94.135 33.5245 92.4386 33.5245C90.7422 33.5245 89.2881 33.0398 87.9397 32.0455L86.8895 35.3016H86.8771Z" fill="#19437E"></path><path fill-rule="evenodd" clip-rule="evenodd" d="M92.3768 43.0877L90.177 49.109L87.9897 43.0877H86.8712L89.6178 50.4948H90.7363L93.4829 43.0877H92.3768ZM99.5788 47.1579V46.145H96.0927V44.1006H100.045V43.0877H95.0115V50.4948H100.045V49.4819H96.0927V47.1579H99.5788ZM107.365 45.3309C107.365 43.8334 106.458 43.0877 104.631 43.0877H101.866V50.4948H102.947V47.5742H104.525L106.408 50.4948H107.651L105.675 47.4375C106.743 47.1703 107.359 46.437 107.359 45.3309H107.365ZM104.637 44.1006C105.849 44.1006 106.29 44.5293 106.29 45.3309C106.29 46.1325 105.836 46.5489 104.637 46.5489H102.953V44.0944H104.637V44.1006ZM111.528 50.4948C113.852 50.4948 114.828 49.2023 114.828 46.7726C114.828 45.449 114.573 44.5045 114.064 43.9328C113.554 43.3611 112.703 43.0815 111.528 43.0815H109.31V50.4886H111.528V50.4948ZM110.391 49.4819V44.1006H111.528C112.38 44.1006 112.957 44.3119 113.262 44.7406C113.579 45.1694 113.728 45.8467 113.728 46.785C113.728 47.773 113.566 48.469 113.237 48.8791C112.92 49.283 112.355 49.4819 111.528 49.4819H110.391ZM122.738 50.4948L119.855 43.0877H118.736L115.866 50.4948H116.972L117.68 48.6679H120.911L121.62 50.4948H122.738ZM120.532 47.6488H118.053L119.296 44.461L120.526 47.6488H120.532ZM126.504 50.4948C128.828 50.4948 129.804 49.2023 129.804 46.7726C129.804 45.449 129.549 44.5045 129.039 43.9328C128.53 43.3611 127.678 43.0815 126.504 43.0815H124.286V50.4886H126.504V50.4948ZM125.367 49.4819V44.1006H126.504C127.355 44.1006 127.933 44.3119 128.238 44.7406C128.555 45.1694 128.704 45.8467 128.704 46.785C128.704 47.773 128.542 48.469 128.213 48.8791C127.902 49.283 127.33 49.4819 126.504 49.4819H125.367ZM136.31 47.1579V46.145H132.824V44.1006H136.776V43.0877H131.742V50.4948H136.776V49.4819H132.824V47.1579H136.31ZM146.146 47.1579V46.145H142.66V44.1006H146.612V43.0877H141.579V50.4948H146.612V49.4819H142.66V47.1579H146.146ZM160.296 50.4948V45.0389L162.495 48.5622H162.669L164.869 45.0389V50.4948H165.95V43.0877H164.906L162.595 46.8223L160.271 43.0877H159.227V50.4948H160.308H160.296ZM170.903 43.9949C171.667 43.9949 172.183 44.2249 172.45 44.6785C172.717 45.1321 172.86 45.8405 172.86 46.7974C172.86 47.7544 172.724 48.4628 172.45 48.9226C172.183 49.3762 171.673 49.6062 170.903 49.6062C170.132 49.6062 169.623 49.3762 169.356 48.9226C169.088 48.4566 168.958 47.7482 168.958 46.7974C168.958 45.8467 169.088 45.1321 169.356 44.6785C169.623 44.2249 170.145 43.9949 170.903 43.9949ZM167.877 46.7974C167.901 48.556 168.2 49.7615 169.411 50.3581C169.822 50.5321 170.306 50.6253 170.903 50.6253C171.499 50.6253 171.984 50.5321 172.388 50.3581C172.792 50.1716 173.096 49.9044 173.32 49.5565C173.774 48.8481 173.935 47.9967 173.935 46.8037C173.935 46.2133 173.886 45.6851 173.799 45.2439C173.506 43.8707 172.717 42.9883 170.903 42.9883C169.772 42.9883 168.995 43.3114 168.542 43.9763C168.1 44.6288 167.877 45.5671 167.877 46.8037V46.7974ZM181.367 45.3309C181.367 43.8334 180.46 43.0877 178.633 43.0877H175.868V50.4948H176.949V47.5742H178.527L180.41 50.4948H181.653L179.677 47.4375C180.746 47.1703 181.361 46.437 181.361 45.3309H181.367ZM178.633 44.1006C179.845 44.1006 180.286 44.5293 180.286 45.3309C180.286 46.1325 179.832 46.5489 178.633 46.5489H176.949V44.0944H178.633V44.1006ZM157.667 50.4948L154.784 43.0877H153.665L150.794 50.4948H151.9L152.609 48.6679H155.84L156.549 50.4948H157.667ZM155.461 47.6488H152.982L154.225 44.461L155.455 47.6488H155.461Z" fill="#BE1F24"></path></svg> 